STARTFONT 2.1
FONT -DIGITAL-VT220-Bold-I-Normal-80col-40-400-150-75-c-400-iso10646-1
SIZE 40 75 75
FONTBOUNDINGBOX 53 40 -6 -8
STARTPROPERTIES 21
FOUNDRY "DIGITAL"
FAMILY_NAME "vt220"
WEIGHT_NAME "Bold"
RELATIVE_SETWIDTH 50
SLANT "I"
SETWIDTH_NAME "Normal"
ADD_STYLE_NAME "80col"
PIXEL_SIZE 40
POINT_SIZE 400
RESOLUTION_X 75
RESOLUTION_Y 75
SPACING "c"
CHARSET_REGISTRY "ISO10646"
CHARSET_ENCODING "1"
CAP_HEIGHT 28
X_HEIGHT 20
WEIGHT 10
QUAD_WIDTH 40
FONT_ASCENT 32
FONT_DESCENT 8
AVERAGE_WIDTH 400
ENDPROPERTIES
CHARS 237
STARTCHAR U+00FD
ENCODING 253
SWIDTH 1000 0
DWIDTH 40 0
BBX 53 40 -6 -8
BITMAP
00000000000000
00000000000000
00000000000000
00000000000000
00000000000000
00000000000000
00000000000000
00000000000000
00000000000000
00000000000000
00000000000000
00000000000000
00000000000000
00000000000000
00000000000000
00000000000000
00000000000000
00000000000000
00000000000000
00000000000000
00000000000000
00000000000000
00000000000000
00000000000000
00000000000000
00000000000000
00000000000000
00000000000000
00000000000000
00000000000000
00000000000000
00000000000000
00000000000000
00000000000000
00000000000000
00000000000000
00000000000000
00000000000000
00000000000000
00000000000000
ENDCHAR
STARTCHAR U+25A1
ENCODING 9633
SWIDTH 1000 0
DWIDTH 40 0
BBX 53 40 -6 -8
BITMAP
00000000000000
00000000000000
00000000000000
00000000000000
001fffffffc000
001fffffffc000
003fffffff8000
003fffffff8000
003f80003f8000
007f00007f0000
007f00007f0000
007f00007f0000
00fe0000fe0000
00fe0000fe0000
00fe0000fe0000
01fc0001fc0000
01fc0001fc0000
01fc0001fc0000
03f80003f80000
03f80003f80000
03f80003f80000
07f00007f00000
07f00007f00000
07f00007f00000
0fe0000fe00000
0fe0000fe00000
0fe0000fe00000
1fc0001fc00000
1fffffffc00000
1fffffffc00000
3fffffff800000
3fffffff800000
00000000000000
00000000000000
00000000000000
00000000000000
00000000000000
00000000000000
00000000000000
00000000000000
ENDCHAR
STARTCHAR U+00FE
ENCODING 254
SWIDTH 1000 0
DWIDTH 40 0
BBX 53 40 -6 -8
BITMAP
00000000000000
00000000000000
00000000000000
00000000000000
001fc000000000
001fc000000000
003f8000000000
003f8000000000
003f8000000000
007f0000000000
007f0000000000
007f0000000000
00feffffe00000
00feffffe00000
00feffffe00000
01fdffffc00000
01ffc001fc0000
01ffc001fc0000
03ff8003f80000
03ff8003f80000
03ff8003f80000
07ff0007f00000
07ff0007f00000
07ff0007f00000
0feffffe000000
0feffffe000000
0feffffe000000
1fdffffc000000
1fc00000000000
1fc00000000000
3f800000000000
3f800000000000
3f800000000000
7f000000000000
7f000000000000
7f000000000000
fe000000000000
fe000000000000
fe000000000000
fc000000000000
ENDCHAR
STARTCHAR U+00FF
ENCODING 255
SWIDTH 1000 0
DWIDTH 40 0
BBX 53 40 -6 -8
BITMAP
00000000000000
00000000000000
00000000000000
00000000000000
0001fc01fc0000
0001fc01fc0000
0003f803f80000
0003f803f80000
00000000000000
00000000000000
00000000000000
00000000000000
00fe000fe00000
00fe000fe00000
00fe000fe00000
01fc001fc00000
01fc001fc00000
01fc001fc00000
03f8003f800000
03f8003f800000
03f803ff800000
07f007ff000000
07f007ff000000
07f007ff000000
00fffefe000000
00fffefe000000
00fffefe000000
01fffdfc000000
000001fc000000
000001fc000000
000003f8000000
000003f8000000
3f8003f8000000
7f0007f0000000
7f0007f0000000
7f0007f0000000
0ffffe00000000
0ffffe00000000
0ffffe00000000
1ffffc00000000
ENDCHAR
STARTCHAR U+00FC
ENCODING 252
SWIDTH 1000 0
DWIDTH 40 0
BBX 53 40 -6 -8
BITMAP
00000000000000
00000000000000
00000000000000
00000000000000
0001fc01fc0000
0001fc01fc0000
0003f803f80000
0003f803f80000
00000000000000
00000000000000
00000000000000
00000000000000
00fe000fe00000
00fe000fe00000
00fe000fe00000
01fc001fc00000
01fc001fc00000
01fc001fc00000
03f8003f800000
03f8003f800000
03f8003f800000
07f0007f000000
07f0007f000000
07f0007f000000
0fe000fe000000
0fe000fe000000
0fe000fe000000
1fc001fc000000
01ffffdfc00000
01ffffdfc00000
03ffffbf800000
03ffffbf800000
00000000000000
00000000000000
00000000000000
00000000000000
00000000000000
00000000000000
00000000000000
00000000000000
ENDCHAR
STARTCHAR U+00FB
ENCODING 251
SWIDTH 1000 0
DWIDTH 40 0
BBX 53 40 -6 -8
BITMAP
00000fffe00000
00000fffe00000
00000fffe00000
00001fffc00000
0001fc01fc0000
0001fc01fc0000
0003f803f80000
0003f803f80000
00000000000000
00000000000000
00000000000000
00000000000000
00fe000fe00000
00fe000fe00000
00fe000fe00000
01fc001fc00000
01fc001fc00000
01fc001fc00000
03f8003f800000
03f8003f800000
03f8003f800000
07f0007f000000
07f0007f000000
07f0007f000000
0fe000fe000000
0fe000fe000000
0fe000fe000000
1fc001fc000000
01ffffdfc00000
01ffffdfc00000
03ffffbf800000
03ffffbf800000
00000000000000
00000000000000
00000000000000
00000000000000
00000000000000
00000000000000
00000000000000
00000000000000
ENDCHAR
STARTCHAR U+00FA
ENCODING 250
SWIDTH 1000 0
DWIDTH 40 0
BBX 53 40 -6 -8
BITMAP
00000000000000
00000000000000
00000000000000
00000000000000
000001ffc00000
000001ffc00000
000003ff800000
000003ff800000
0003ff80000000
0007ff00000000
0007ff00000000
0007ff00000000
00fe000fe00000
00fe000fe00000
00fe000fe00000
01fc001fc00000
01fc001fc00000
01fc001fc00000
03f8003f800000
03f8003f800000
03f8003f800000
07f0007f000000
07f0007f000000
07f0007f000000
0fe000fe000000
0fe000fe000000
0fe000fe000000
1fc001fc000000
01ffffdfc00000
01ffffdfc00000
03ffffbf800000
03ffffbf800000
00000000000000
00000000000000
00000000000000
00000000000000
00000000000000
00000000000000
00000000000000
00000000000000
ENDCHAR
STARTCHAR U+00F9
ENCODING 249
SWIDTH 1000 0
DWIDTH 40 0
BBX 53 40 -6 -8
BITMAP
00000000000000
00000000000000
00000000000000
00000000000000
0001ffc0000000
0001ffc0000000
0003ff80000000
0003ff80000000
000003ff800000
000007ff000000
000007ff000000
000007ff000000
00fe000fe00000
00fe000fe00000
00fe000fe00000
01fc001fc00000
01fc001fc00000
01fc001fc00000
03f8003f800000
03f8003f800000
03f8003f800000
07f0007f000000
07f0007f000000
07f0007f000000
0fe000fe000000
0fe000fe000000
0fe000fe000000
1fc001fc000000
01ffffdfc00000
01ffffdfc00000
03ffffbf800000
03ffffbf800000
00000000000000
00000000000000
00000000000000
00000000000000
00000000000000
00000000000000
00000000000000
00000000000000
ENDCHAR
STARTCHAR U+00F8
ENCODING 248
SWIDTH 1000 0
DWIDTH 40 0
BBX 53 40 -6 -8
BITMAP
00000000000000
00000000000000
00000000000000
00000000000000
00000000000000
00000000000000
00000000000000
00000000000000
000000003f8000
000000007f0000
000000007f0000
000000007f0000
000fffffe00000
000fffffe00000
000fffffe00000
001fffffc00000
01fc01fdfc0000
01fc01fdfc0000
03f803fbf80000
03f803fbf80000
03f83f83f80000
07f07f07f00000
07f07f07f00000
07f07f07f00000
0fefe00fe00000
0fefe00fe00000
0fefe00fe00000
1fdfc01fc00000
01fffffc000000
01fffffc000000
03fffff8000000
03fffff8000000
3f800000000000
7f000000000000
7f000000000000
7f000000000000
00000000000000
00000000000000
00000000000000
00000000000000
ENDCHAR
STARTCHAR U+0153
ENCODING 339
SWIDTH 1000 0
DWIDTH 40 0
BBX 53 40 -6 -8
BITMAP
00000000000000
00000000000000
00000000000000
00000000000000
00000000000000
00000000000000
00000000000000
00000000000000
00000000000000
00000000000000
00000000000000
00000000000000
000ffeffe00000
000ffeffe00000
000ffeffe00000
001ffdffc00000
01fc1fc1fc0000
01fc1fc1fc0000
03f83f83f80000
03f83f83f80000
03f83ffff80000
07f07ffff00000
07f07ffff00000
07f07ffff00000
0fe0fe00000000
0fe0fe00000000
0fe0fe00000000
1fc1fc00000000
01ffdfffc00000
01ffdfffc00000
03ffbfff800000
03ffbfff800000
00000000000000
00000000000000
00000000000000
00000000000000
00000000000000
00000000000000
00000000000000
00000000000000
ENDCHAR
STARTCHAR U+00F6
ENCODING 246
SWIDTH 1000 0
DWIDTH 40 0
BBX 53 40 -6 -8
BITMAP
00000000000000
00000000000000
00000000000000
00000000000000
0001fc01fc0000
0001fc01fc0000
0003f803f80000
0003f803f80000
00000000000000
00000000000000
00000000000000
00000000000000
000fffffe00000
000fffffe00000
000fffffe00000
001fffffc00000
01fc0001fc0000
01fc0001fc0000
03f80003f80000
03f80003f80000
03f80003f80000
07f00007f00000
07f00007f00000
07f00007f00000
0fe0000fe00000
0fe0000fe00000
0fe0000fe00000
1fc0001fc00000
01fffffc000000
01fffffc000000
03fffff8000000
03fffff8000000
00000000000000
00000000000000
00000000000000
00000000000000
00000000000000
00000000000000
00000000000000
00000000000000
ENDCHAR
STARTCHAR U+00F5
ENCODING 245
SWIDTH 1000 0
DWIDTH 40 0
BBX 53 40 -6 -8
BITMAP
0000ffe0fe0000
0000ffe0fe0000
0000ffe0fe0000
0001ffc1fc0000
001fc1ffc00000
001fc1ffc00000
003f83ff800000
003f83ff800000
00000000000000
00000000000000
00000000000000
00000000000000
000fffffe00000
000fffffe00000
000fffffe00000
001fffffc00000
01fc0001fc0000
01fc0001fc0000
03f80003f80000
03f80003f80000
03f80003f80000
07f00007f00000
07f00007f00000
07f00007f00000
0fe0000fe00000
0fe0000fe00000
0fe0000fe00000
1fc0001fc00000
01fffffc000000
01fffffc000000
03fffff8000000
03fffff8000000
00000000000000
00000000000000
00000000000000
00000000000000
00000000000000
00000000000000
00000000000000
00000000000000
ENDCHAR
STARTCHAR U+00F4
ENCODING 244
SWIDTH 1000 0
DWIDTH 40 0
BBX 53 40 -6 -8
BITMAP
00000fffe00000
00000fffe00000
00000fffe00000
00001fffc00000
0001fc01fc0000
0001fc01fc0000
0003f803f80000
0003f803f80000
00000000000000
00000000000000
00000000000000
00000000000000
000fffffe00000
000fffffe00000
000fffffe00000
001fffffc00000
01fc0001fc0000
01fc0001fc0000
03f80003f80000
03f80003f80000
03f80003f80000
07f00007f00000
07f00007f00000
07f00007f00000
0fe0000fe00000
0fe0000fe00000
0fe0000fe00000
1fc0001fc00000
01fffffc000000
01fffffc000000
03fffff8000000
03fffff8000000
00000000000000
00000000000000
00000000000000
00000000000000
00000000000000
00000000000000
00000000000000
00000000000000
ENDCHAR
STARTCHAR U+00F3
ENCODING 243
SWIDTH 1000 0
DWIDTH 40 0
BBX 53 40 -6 -8
BITMAP
00000000000000
00000000000000
00000000000000
00000000000000
000001ffc00000
000001ffc00000
000003ff800000
000003ff800000
0003ff80000000
0007ff00000000
0007ff00000000
0007ff00000000
000fffffe00000
000fffffe00000
000fffffe00000
001fffffc00000
01fc0001fc0000
01fc0001fc0000
03f80003f80000
03f80003f80000
03f80003f80000
07f00007f00000
07f00007f00000
07f00007f00000
0fe0000fe00000
0fe0000fe00000
0fe0000fe00000
1fc0001fc00000
01fffffc000000
01fffffc000000
03fffff8000000
03fffff8000000
00000000000000
00000000000000
00000000000000
00000000000000
00000000000000
00000000000000
00000000000000
00000000000000
ENDCHAR
STARTCHAR U+00F2
ENCODING 242
SWIDTH 1000 0
DWIDTH 40 0
BBX 53 40 -6 -8
BITMAP
00000000000000
00000000000000
00000000000000
00000000000000
00001ffc000000
00001ffc000000
00003ff8000000
00003ff8000000
0000003ff80000
0000007ff00000
0000007ff00000
0000007ff00000
000fffffe00000
000fffffe00000
000fffffe00000
001fffffc00000
01fc0001fc0000
01fc0001fc0000
03f80003f80000
03f80003f80000
03f80003f80000
07f00007f00000
07f00007f00000
07f00007f00000
0fe0000fe00000
0fe0000fe00000
0fe0000fe00000
1fc0001fc00000
01fffffc000000
01fffffc000000
03fffff8000000
03fffff8000000
00000000000000
00000000000000
00000000000000
00000000000000
00000000000000
00000000000000
00000000000000
00000000000000
ENDCHAR
STARTCHAR U+00F1
ENCODING 241
SWIDTH 1000 0
DWIDTH 40 0
BBX 53 40 -6 -8
BITMAP
0000ffe0fe0000
0000ffe0fe0000
0000ffe0fe0000
0001ffc1fc0000
001fc1ffc00000
001fc1ffc00000
003f83ff800000
003f83ff800000
00000000000000
00000000000000
00000000000000
00000000000000
00feffffe00000
00feffffe00000
00feffffe00000
01fdffffc00000
01ffc001fc0000
01ffc001fc0000
03ff8003f80000
03ff8003f80000
03f80003f80000
07f00007f00000
07f00007f00000
07f00007f00000
0fe0000fe00000
0fe0000fe00000
0fe0000fe00000
1fc0001fc00000
1fc0001fc00000
1fc0001fc00000
3f80003f800000
3f80003f800000
00000000000000
00000000000000
00000000000000
00000000000000
00000000000000
00000000000000
00000000000000
00000000000000
ENDCHAR
STARTCHAR U+00F0
ENCODING 240
SWIDTH 1000 0
DWIDTH 40 0
BBX 53 40 -6 -8
BITMAP
000000fe0fe000
000000fe0fe000
000000fe0fe000
000001fc1fc000
0000001ffc0000
0000001ffc0000
0000003ff80000
0000003ff80000
000003f83f8000
000007f07f0000
000007f07f0000
000007f07f0000
000ffffefe0000
000ffffefe0000
000ffffefe0000
001ffffdfc0000
01fc001ffc0000
01fc001ffc0000
03f8003ff80000
03f8003ff80000
03f80003f80000
07f00007f00000
07f00007f00000
07f00007f00000
0fe000fe000000
0fe000fe000000
0fe000fe000000
1fc001fc000000
01ffffc0000000
01ffffc0000000
03ffff80000000
03ffff80000000
00000000000000
00000000000000
00000000000000
00000000000000
00000000000000
00000000000000
00000000000000
00000000000000
ENDCHAR
STARTCHAR U+00EF
ENCODING 239
SWIDTH 1000 0
DWIDTH 40 0
BBX 53 40 -6 -8
BITMAP
00000000000000
00000000000000
00000000000000
00000000000000
0001fc01fc0000
0001fc01fc0000
0003f803f80000
0003f803f80000
00000000000000
00000000000000
00000000000000
00000000000000
0000ffe0000000
0000ffe0000000
0000ffe0000000
0001ffc0000000
00001fc0000000
00001fc0000000
00003f80000000
00003f80000000
00003f80000000
00007f00000000
00007f00000000
00007f00000000
0000fe00000000
0000fe00000000
0000fe00000000
0001fc00000000
01fffffc000000
01fffffc000000
03fffff8000000
03fffff8000000
00000000000000
00000000000000
00000000000000
00000000000000
00000000000000
00000000000000
00000000000000
00000000000000
ENDCHAR
STARTCHAR U+00EE
ENCODING 238
SWIDTH 1000 0
DWIDTH 40 0
BBX 53 40 -6 -8
BITMAP
00000fffe00000
00000fffe00000
00000fffe00000
00001fffc00000
0001fc01fc0000
0001fc01fc0000
0003f803f80000
0003f803f80000
00000000000000
00000000000000
00000000000000
00000000000000
0000ffe0000000
0000ffe0000000
0000ffe0000000
0001ffc0000000
00001fc0000000
00001fc0000000
00003f80000000
00003f80000000
00003f80000000
00007f00000000
00007f00000000
00007f00000000
0000fe00000000
0000fe00000000
0000fe00000000
0001fc00000000
01fffffc000000
01fffffc000000
03fffff8000000
03fffff8000000
00000000000000
00000000000000
00000000000000
00000000000000
00000000000000
00000000000000
00000000000000
00000000000000
ENDCHAR
STARTCHAR U+00ED
ENCODING 237
SWIDTH 1000 0
DWIDTH 40 0
BBX 53 40 -6 -8
BITMAP
00000000000000
00000000000000
00000000000000
00000000000000
000001ffc00000
000001ffc00000
000003ff800000
000003ff800000
0003ff80000000
0007ff00000000
0007ff00000000
0007ff00000000
0000ffe0000000
0000ffe0000000
0000ffe0000000
0001ffc0000000
00001fc0000000
00001fc0000000
00003f80000000
00003f80000000
00003f80000000
00007f00000000
00007f00000000
00007f00000000
0000fe00000000
0000fe00000000
0000fe00000000
0001fc00000000
01fffffc000000
01fffffc000000
03fffff8000000
03fffff8000000
00000000000000
00000000000000
00000000000000
00000000000000
00000000000000
00000000000000
00000000000000
00000000000000
ENDCHAR
STARTCHAR U+00EC
ENCODING 236
SWIDTH 1000 0
DWIDTH 40 0
BBX 53 40 -6 -8
BITMAP
00000000000000
00000000000000
00000000000000
00000000000000
0001ffc0000000
0001ffc0000000
0003ff80000000
0003ff80000000
000003ff800000
000007ff000000
000007ff000000
000007ff000000
0000ffe0000000
0000ffe0000000
0000ffe0000000
0001ffc0000000
00001fc0000000
00001fc0000000
00003f80000000
00003f80000000
00003f80000000
00007f00000000
00007f00000000
00007f00000000
0000fe00000000
0000fe00000000
0000fe00000000
0001fc00000000
01fffffc000000
01fffffc000000
03fffff8000000
03fffff8000000
00000000000000
00000000000000
00000000000000
00000000000000
00000000000000
00000000000000
00000000000000
00000000000000
ENDCHAR
STARTCHAR U+00EB
ENCODING 235
SWIDTH 1000 0
DWIDTH 40 0
BBX 53 40 -6 -8
BITMAP
00000000000000
00000000000000
00000000000000
00000000000000
0001fc01fc0000
0001fc01fc0000
0003f803f80000
0003f803f80000
00000000000000
00000000000000
00000000000000
00000000000000
000fffffe00000
000fffffe00000
000fffffe00000
001fffffc00000
01fc0001fc0000
01fc0001fc0000
03f80003f80000
03f80003f80000
03fffffff80000
07fffffff00000
07fffffff00000
07fffffff00000
0fe00000000000
0fe00000000000
0fe00000000000
1fc00000000000
01fffffc000000
01fffffc000000
03fffff8000000
03fffff8000000
00000000000000
00000000000000
00000000000000
00000000000000
00000000000000
00000000000000
00000000000000
00000000000000
ENDCHAR
STARTCHAR U+00EA
ENCODING 234
SWIDTH 1000 0
DWIDTH 40 0
BBX 53 40 -6 -8
BITMAP
00000fffe00000
00000fffe00000
00000fffe00000
00001fffc00000
0001fc01fc0000
0001fc01fc0000
0003f803f80000
0003f803f80000
00000000000000
00000000000000
00000000000000
00000000000000
000fffffe00000
000fffffe00000
000fffffe00000
001fffffc00000
01fc0001fc0000
01fc0001fc0000
03f80003f80000
03f80003f80000
03fffffff80000
07fffffff00000
07fffffff00000
07fffffff00000
0fe00000000000
0fe00000000000
0fe00000000000
1fc00000000000
01fffffc000000
01fffffc000000
03fffff8000000
03fffff8000000
00000000000000
00000000000000
00000000000000
00000000000000
00000000000000
00000000000000
00000000000000
00000000000000
ENDCHAR
STARTCHAR U+00E9
ENCODING 233
SWIDTH 1000 0
DWIDTH 40 0
BBX 53 40 -6 -8
BITMAP
00000000000000
00000000000000
00000000000000
00000000000000
000001ffc00000
000001ffc00000
000003ff800000
000003ff800000
0003ff80000000
0007ff00000000
0007ff00000000
0007ff00000000
000fffffe00000
000fffffe00000
000fffffe00000
001fffffc00000
01fc0001fc0000
01fc0001fc0000
03f80003f80000
03f80003f80000
03fffffff80000
07fffffff00000
07fffffff00000
07fffffff00000
0fe00000000000
0fe00000000000
0fe00000000000
1fc00000000000
01fffffc000000
01fffffc000000
03fffff8000000
03fffff8000000
00000000000000
00000000000000
00000000000000
00000000000000
00000000000000
00000000000000
00000000000000
00000000000000
ENDCHAR
STARTCHAR U+00E8
ENCODING 232
SWIDTH 1000 0
DWIDTH 40 0
BBX 53 40 -6 -8
BITMAP
00000000000000
00000000000000
00000000000000
00000000000000
00001ffc000000
00001ffc000000
00003ff8000000
00003ff8000000
0000003ff80000
0000007ff00000
0000007ff00000
0000007ff00000
000fffffe00000
000fffffe00000
000fffffe00000
001fffffc00000
01fc0001fc0000
01fc0001fc0000
03f80003f80000
03f80003f80000
03fffffff80000
07fffffff00000
07fffffff00000
07fffffff00000
0fe00000000000
0fe00000000000
0fe00000000000
1fc00000000000
01fffffc000000
01fffffc000000
03fffff8000000
03fffff8000000
00000000000000
00000000000000
00000000000000
00000000000000
00000000000000
00000000000000
00000000000000
00000000000000
ENDCHAR
STARTCHAR U+00E7
ENCODING 231
SWIDTH 1000 0
DWIDTH 40 0
BBX 53 40 -6 -8
BITMAP
00000000000000
00000000000000
00000000000000
00000000000000
00000000000000
00000000000000
00000000000000
00000000000000
00000000000000
00000000000000
00000000000000
00000000000000
000fffffe00000
000fffffe00000
000fffffe00000
001fffffc00000
01fc0001fc0000
01fc0001fc0000
03f80003f80000
03f80003f80000
03f80000000000
07f00000000000
07f00000000000
07f00000000000
0fe0000fe00000
0fe0000fe00000
0fe0000fe00000
1fc0001fc00000
01fffffc000000
01fffffc000000
03fffff8000000
03fffff8000000
00003f80000000
00007f00000000
00007f00000000
00007f00000000
00fffe00000000
00fffe00000000
00fffe00000000
01fffc00000000
ENDCHAR
STARTCHAR U+00E6
ENCODING 230
SWIDTH 1000 0
DWIDTH 40 0
BBX 53 40 -6 -8
BITMAP
00000000000000
00000000000000
00000000000000
00000000000000
00000000000000
00000000000000
00000000000000
00000000000000
00000000000000
00000000000000
00000000000000
00000000000000
000ffeffe00000
000ffeffe00000
000ffeffe00000
001ffdffc00000
00001fc1fc0000
00001fc1fc0000
00003f83f80000
00003f83f80000
003ffffff80000
007ffffff00000
007ffffff00000
007ffffff00000
0fe0fe00000000
0fe0fe00000000
0fe0fe00000000
1fc1fc00000000
01ffffffc00000
01ffffffc00000
03ffffff800000
03ffffff800000
00000000000000
00000000000000
00000000000000
00000000000000
00000000000000
00000000000000
00000000000000
00000000000000
ENDCHAR
STARTCHAR U+00E5
ENCODING 229
SWIDTH 1000 0
DWIDTH 40 0
BBX 53 40 -6 -8
BITMAP
00000fffe00000
00000fffe00000
00000fffe00000
00001fffc00000
0001fc01fc0000
0001fc01fc0000
0003f803f80000
0003f803f80000
00003fff800000
00007fff000000
00007fff000000
00007fff000000
000fffffe00000
000fffffe00000
000fffffe00000
001fffffc00000
00000001fc0000
00000001fc0000
00000003f80000
00000003f80000
003ffffff80000
007ffffff00000
007ffffff00000
007ffffff00000
0fe000ffe00000
0fe000ffe00000
0fe000ffe00000
1fc001ffc00000
01ffffdfc00000
01ffffdfc00000
03ffffbf800000
03ffffbf800000
00000000000000
00000000000000
00000000000000
00000000000000
00000000000000
00000000000000
00000000000000
00000000000000
ENDCHAR
STARTCHAR U+00E4
ENCODING 228
SWIDTH 1000 0
DWIDTH 40 0
BBX 53 40 -6 -8
BITMAP
00000000000000
00000000000000
00000000000000
00000000000000
0001fc01fc0000
0001fc01fc0000
0003f803f80000
0003f803f80000
00000000000000
00000000000000
00000000000000
00000000000000
000fffffe00000
000fffffe00000
000fffffe00000
001fffffc00000
00000001fc0000
00000001fc0000
00000003f80000
00000003f80000
003ffffff80000
007ffffff00000
007ffffff00000
007ffffff00000
0fe000ffe00000
0fe000ffe00000
0fe000ffe00000
1fc001ffc00000
01ffffdfc00000
01ffffdfc00000
03ffffbf800000
03ffffbf800000
00000000000000
00000000000000
00000000000000
00000000000000
00000000000000
00000000000000
00000000000000
00000000000000
ENDCHAR
STARTCHAR U+00E3
ENCODING 227
SWIDTH 1000 0
DWIDTH 40 0
BBX 53 40 -6 -8
BITMAP
00000ffe0fe000
00000ffe0fe000
00000ffe0fe000
00001ffc1fc000
0001fc1ffc0000
0001fc1ffc0000
0003f83ff80000
0003f83ff80000
00000000000000
00000000000000
00000000000000
00000000000000
000fffffe00000
000fffffe00000
000fffffe00000
001fffffc00000
00000001fc0000
00000001fc0000
00000003f80000
00000003f80000
003ffffff80000
007ffffff00000
007ffffff00000
007ffffff00000
0fe000ffe00000
0fe000ffe00000
0fe000ffe00000
1fc001ffc00000
01ffffdfc00000
01ffffdfc00000
03ffffbf800000
03ffffbf800000
00000000000000
00000000000000
00000000000000
00000000000000
00000000000000
00000000000000
00000000000000
00000000000000
ENDCHAR
STARTCHAR U+00E2
ENCODING 226
SWIDTH 1000 0
DWIDTH 40 0
BBX 53 40 -6 -8
BITMAP
00000fffe00000
00000fffe00000
00000fffe00000
00001fffc00000
0001fc01fc0000
0001fc01fc0000
0003f803f80000
0003f803f80000
00000000000000
00000000000000
00000000000000
00000000000000
000fffffe00000
000fffffe00000
000fffffe00000
001fffffc00000
00000001fc0000
00000001fc0000
00000003f80000
00000003f80000
003ffffff80000
007ffffff00000
007ffffff00000
007ffffff00000
0fe000ffe00000
0fe000ffe00000
0fe000ffe00000
1fc001ffc00000
01ffffdfc00000
01ffffdfc00000
03ffffbf800000
03ffffbf800000
00000000000000
00000000000000
00000000000000
00000000000000
00000000000000
00000000000000
00000000000000
00000000000000
ENDCHAR
STARTCHAR U+00E1
ENCODING 225
SWIDTH 1000 0
DWIDTH 40 0
BBX 53 40 -6 -8
BITMAP
00000000000000
00000000000000
00000000000000
00000000000000
000001ffc00000
000001ffc00000
000003ff800000
000003ff800000
0003ff80000000
0007ff00000000
0007ff00000000
0007ff00000000
000fffffe00000
000fffffe00000
000fffffe00000
001fffffc00000
00000001fc0000
00000001fc0000
00000003f80000
00000003f80000
003ffffff80000
007ffffff00000
007ffffff00000
007ffffff00000
0fe000ffe00000
0fe000ffe00000
0fe000ffe00000
1fc001ffc00000
01ffffdfc00000
01ffffdfc00000
03ffffbf800000
03ffffbf800000
00000000000000
00000000000000
00000000000000
00000000000000
00000000000000
00000000000000
00000000000000
00000000000000
ENDCHAR
STARTCHAR U+00E0
ENCODING 224
SWIDTH 1000 0
DWIDTH 40 0
BBX 53 40 -6 -8
BITMAP
00000000000000
00000000000000
00000000000000
00000000000000
00001ffc000000
00001ffc000000
00003ff8000000
00003ff8000000
0000003ff80000
0000007ff00000
0000007ff00000
0000007ff00000
000fffffe00000
000fffffe00000
000fffffe00000
001fffffc00000
00000001fc0000
00000001fc0000
00000003f80000
00000003f80000
003ffffff80000
007ffffff00000
007ffffff00000
007ffffff00000
0fe000ffe00000
0fe000ffe00000
0fe000ffe00000
1fc001ffc00000
01ffffdfc00000
01ffffdfc00000
03ffffbf800000
03ffffbf800000
00000000000000
00000000000000
00000000000000
00000000000000
00000000000000
00000000000000
00000000000000
00000000000000
ENDCHAR
STARTCHAR U+00DF
ENCODING 223
SWIDTH 1000 0
DWIDTH 40 0
BBX 53 40 -6 -8
BITMAP
00000000000000
00000000000000
00000000000000
00000000000000
00001fffc00000
00001fffc00000
00003fff800000
00003fff800000
0003f803f80000
0007f007f00000
0007f007f00000
0007f007f00000
00fe000fe00000
00fe000fe00000
00fe000fe00000
01fc001fc00000
01fdfffc000000
01fdfffc000000
03fbfff8000000
03fbfff8000000
03f8003f800000
07f0007f000000
07f0007f000000
07f0007f000000
0fefe00fe00000
0fefe00fe00000
0fefe00fe00000
1fdfc01fc00000
1fc1fffc000000
1fc1fffc000000
3f83fff8000000
3f83fff8000000
3f800000000000
7f000000000000
7f000000000000
7f000000000000
00000000000000
00000000000000
00000000000000
00000000000000
ENDCHAR
STARTCHAR U+00DE
ENCODING 222
SWIDTH 1000 0
DWIDTH 40 0
BBX 53 40 -6 -8
BITMAP
00000000000000
00000000000000
00000000000000
00000000000000
001ffc00000000
001ffc00000000
003ff800000000
003ff800000000
0003fffff80000
0007fffff00000
0007fffff00000
0007fffff00000
000fe000fe0000
000fe000fe0000
000fe000fe0000
001fc001fc0000
001fc001fc0000
001fc001fc0000
003f8003f80000
003f8003f80000
003f8003f80000
007f0007f00000
007f0007f00000
007f0007f00000
00fffffe000000
00fffffe000000
00fffffe000000
01fffffc000000
1ffc0000000000
1ffc0000000000
3ff80000000000
3ff80000000000
00000000000000
00000000000000
00000000000000
00000000000000
00000000000000
00000000000000
00000000000000
00000000000000
ENDCHAR
STARTCHAR U+0178
ENCODING 376
SWIDTH 1000 0
DWIDTH 40 0
BBX 53 40 -6 -8
BITMAP
0000fe00fe0000
0000fe00fe0000
0000fe00fe0000
0001fc01fc0000
00000000000000
00000000000000
00000000000000
00000000000000
003f80003f8000
007f00007f0000
007f00007f0000
007f00007f0000
000fe00fe00000
000fe00fe00000
000fe00fe00000
001fc01fc00000
0001fdfc000000
0001fdfc000000
0003fbf8000000
0003fbf8000000
00003f80000000
00007f00000000
00007f00000000
00007f00000000
0000fe00000000
0000fe00000000
0000fe00000000
0001fc00000000
0001fc00000000
0001fc00000000
0003f800000000
0003f800000000
00000000000000
00000000000000
00000000000000
00000000000000
00000000000000
00000000000000
00000000000000
00000000000000
ENDCHAR
STARTCHAR U+00DC
ENCODING 220
SWIDTH 1000 0
DWIDTH 40 0
BBX 53 40 -6 -8
BITMAP
0000fe00fe0000
0000fe00fe0000
0000fe00fe0000
0001fc01fc0000
00000000000000
00000000000000
00000000000000
00000000000000
003f80003f8000
007f00007f0000
007f00007f0000
007f00007f0000
00fe0000fe0000
00fe0000fe0000
00fe0000fe0000
01fc0001fc0000
01fc0001fc0000
01fc0001fc0000
03f80003f80000
03f80003f80000
03f80003f80000
07f00007f00000
07f00007f00000
07f00007f00000
0fe0000fe00000
0fe0000fe00000
0fe0000fe00000
1fc0001fc00000
01fffffc000000
01fffffc000000
03fffff8000000
03fffff8000000
00000000000000
00000000000000
00000000000000
00000000000000
00000000000000
00000000000000
00000000000000
00000000000000
ENDCHAR
STARTCHAR U+00DB
ENCODING 219
SWIDTH 1000 0
DWIDTH 40 0
BBX 53 40 -6 -8
BITMAP
000000fe000000
000000fe000000
000000fe000000
000001fc000000
00001fdfc00000
00001fdfc00000
00003fbf800000
00003fbf800000
003f80003f8000
007f00007f0000
007f00007f0000
007f00007f0000
00fe0000fe0000
00fe0000fe0000
00fe0000fe0000
01fc0001fc0000
01fc0001fc0000
01fc0001fc0000
03f80003f80000
03f80003f80000
03f80003f80000
07f00007f00000
07f00007f00000
07f00007f00000
0fe0000fe00000
0fe0000fe00000
0fe0000fe00000
1fc0001fc00000
01fffffc000000
01fffffc000000
03fffff8000000
03fffff8000000
00000000000000
00000000000000
00000000000000
00000000000000
00000000000000
00000000000000
00000000000000
00000000000000
ENDCHAR
STARTCHAR U+00DA
ENCODING 218
SWIDTH 1000 0
DWIDTH 40 0
BBX 53 40 -6 -8
BITMAP
0000000ffe0000
0000000ffe0000
0000000ffe0000
0000001ffc0000
00001ffc000000
00001ffc000000
00003ff8000000
00003ff8000000
003f80003f8000
007f00007f0000
007f00007f0000
007f00007f0000
00fe0000fe0000
00fe0000fe0000
00fe0000fe0000
01fc0001fc0000
01fc0001fc0000
01fc0001fc0000
03f80003f80000
03f80003f80000
03f80003f80000
07f00007f00000
07f00007f00000
07f00007f00000
0fe0000fe00000
0fe0000fe00000
0fe0000fe00000
1fc0001fc00000
01fffffc000000
01fffffc000000
03fffff8000000
03fffff8000000
00000000000000
00000000000000
00000000000000
00000000000000
00000000000000
00000000000000
00000000000000
00000000000000
ENDCHAR
STARTCHAR U+00D9
ENCODING 217
SWIDTH 1000 0
DWIDTH 40 0
BBX 53 40 -6 -8
BITMAP
0000ffe0000000
0000ffe0000000
0000ffe0000000
0001ffc0000000
000001ffc00000
000001ffc00000
000003ff800000
000003ff800000
003f80003f8000
007f00007f0000
007f00007f0000
007f00007f0000
00fe0000fe0000
00fe0000fe0000
00fe0000fe0000
01fc0001fc0000
01fc0001fc0000
01fc0001fc0000
03f80003f80000
03f80003f80000
03f80003f80000
07f00007f00000
07f00007f00000
07f00007f00000
0fe0000fe00000
0fe0000fe00000
0fe0000fe00000
1fc0001fc00000
01fffffc000000
01fffffc000000
03fffff8000000
03fffff8000000
00000000000000
00000000000000
00000000000000
00000000000000
00000000000000
00000000000000
00000000000000
00000000000000
ENDCHAR
STARTCHAR U+00D8
ENCODING 216
SWIDTH 1000 0
DWIDTH 40 0
BBX 53 40 -6 -8
BITMAP
000000000fe000
000000000fe000
000000000fe000
000000001fc000
0001fffffc0000
0001fffffc0000
0003fffff80000
0003fffff80000
003f8003ff8000
007f0007ff0000
007f0007ff0000
007f0007ff0000
00fe00fefe0000
00fe00fefe0000
00fe00fefe0000
01fc01fdfc0000
01fc1fc1fc0000
01fc1fc1fc0000
03f83f83f80000
03f83f83f80000
03fbf803f80000
07f7f007f00000
07f7f007f00000
07f7f007f00000
0ffe000fe00000
0ffe000fe00000
0ffe000fe00000
1ffc001fc00000
01fffffc000000
01fffffc000000
03fffff8000000
03fffff8000000
3f800000000000
7f000000000000
7f000000000000
7f000000000000
00000000000000
00000000000000
00000000000000
00000000000000
ENDCHAR
STARTCHAR U+0152
ENCODING 338
SWIDTH 1000 0
DWIDTH 40 0
BBX 53 40 -6 -8
BITMAP
00000000000000
00000000000000
00000000000000
00000000000000
0001ffdfffc000
0001ffdfffc000
0003ffbfff8000
0003ffbfff8000
003f83f8000000
007f07f0000000
007f07f0000000
007f07f0000000
00fe0fe0000000
00fe0fe0000000
00fe0fe0000000
01fc1fc0000000
01fc1fffc00000
01fc1fffc00000
03f83fff800000
03f83fff800000
03f83f80000000
07f07f00000000
07f07f00000000
07f07f00000000
0fe0fe00000000
0fe0fe00000000
0fe0fe00000000
1fc1fc00000000
01ffdfffc00000
01ffdfffc00000
03ffbfff800000
03ffbfff800000
00000000000000
00000000000000
00000000000000
00000000000000
00000000000000
00000000000000
00000000000000
00000000000000
ENDCHAR
STARTCHAR U+00D6
ENCODING 214
SWIDTH 1000 0
DWIDTH 40 0
BBX 53 40 -6 -8
BITMAP
0000fe00fe0000
0000fe00fe0000
0000fe00fe0000
0001fc01fc0000
00000000000000
00000000000000
00000000000000
00000000000000
0003fffff80000
0007fffff00000
0007fffff00000
0007fffff00000
00fe0000fe0000
00fe0000fe0000
00fe0000fe0000
01fc0001fc0000
01fc0001fc0000
01fc0001fc0000
03f80003f80000
03f80003f80000
03f80003f80000
07f00007f00000
07f00007f00000
07f00007f00000
0fe0000fe00000
0fe0000fe00000
0fe0000fe00000
1fc0001fc00000
01fffffc000000
01fffffc000000
03fffff8000000
03fffff8000000
00000000000000
00000000000000
00000000000000
00000000000000
00000000000000
00000000000000
00000000000000
00000000000000
ENDCHAR
STARTCHAR U+00D5
ENCODING 213
SWIDTH 1000 0
DWIDTH 40 0
BBX 53 40 -6 -8
BITMAP
0000ffe0fe0000
0000ffe0fe0000
0000ffe0fe0000
0001ffc1fc0000
001fc1ffc00000
001fc1ffc00000
003f83ff800000
003f83ff800000
0003fffff80000
0007fffff00000
0007fffff00000
0007fffff00000
00fe0000fe0000
00fe0000fe0000
00fe0000fe0000
01fc0001fc0000
01fc0001fc0000
01fc0001fc0000
03f80003f80000
03f80003f80000
03f80003f80000
07f00007f00000
07f00007f00000
07f00007f00000
0fe0000fe00000
0fe0000fe00000
0fe0000fe00000
1fc0001fc00000
01fffffc000000
01fffffc000000
03fffff8000000
03fffff8000000
00000000000000
00000000000000
00000000000000
00000000000000
00000000000000
00000000000000
00000000000000
00000000000000
ENDCHAR
STARTCHAR U+00D4
ENCODING 212
SWIDTH 1000 0
DWIDTH 40 0
BBX 53 40 -6 -8
BITMAP
00000fffe00000
00000fffe00000
00000fffe00000
00001fffc00000
0001fc01fc0000
0001fc01fc0000
0003f803f80000
0003f803f80000
0003fffff80000
0007fffff00000
0007fffff00000
0007fffff00000
00fe0000fe0000
00fe0000fe0000
00fe0000fe0000
01fc0001fc0000
01fc0001fc0000
01fc0001fc0000
03f80003f80000
03f80003f80000
03f80003f80000
07f00007f00000
07f00007f00000
07f00007f00000
0fe0000fe00000
0fe0000fe00000
0fe0000fe00000
1fc0001fc00000
01fffffc000000
01fffffc000000
03fffff8000000
03fffff8000000
00000000000000
00000000000000
00000000000000
00000000000000
00000000000000
00000000000000
00000000000000
00000000000000
ENDCHAR
STARTCHAR U+00D3
ENCODING 211
SWIDTH 1000 0
DWIDTH 40 0
BBX 53 40 -6 -8
BITMAP
000000ffe00000
000000ffe00000
000000ffe00000
000001ffc00000
0001ffc0000000
0001ffc0000000
0003ff80000000
0003ff80000000
0003fffff80000
0007fffff00000
0007fffff00000
0007fffff00000
00fe0000fe0000
00fe0000fe0000
00fe0000fe0000
01fc0001fc0000
01fc0001fc0000
01fc0001fc0000
03f80003f80000
03f80003f80000
03f80003f80000
07f00007f00000
07f00007f00000
07f00007f00000
0fe0000fe00000
0fe0000fe00000
0fe0000fe00000
1fc0001fc00000
01fffffc000000
01fffffc000000
03fffff8000000
03fffff8000000
00000000000000
00000000000000
00000000000000
00000000000000
00000000000000
00000000000000
00000000000000
00000000000000
ENDCHAR
STARTCHAR U+00D2
ENCODING 210
SWIDTH 1000 0
DWIDTH 40 0
BBX 53 40 -6 -8
BITMAP
00000ffe000000
00000ffe000000
00000ffe000000
00001ffc000000
0000001ffc0000
0000001ffc0000
0000003ff80000
0000003ff80000
0003fffff80000
0007fffff00000
0007fffff00000
0007fffff00000
00fe0000fe0000
00fe0000fe0000
00fe0000fe0000
01fc0001fc0000
01fc0001fc0000
01fc0001fc0000
03f80003f80000
03f80003f80000
03f80003f80000
07f00007f00000
07f00007f00000
07f00007f00000
0fe0000fe00000
0fe0000fe00000
0fe0000fe00000
1fc0001fc00000
01fffffc000000
01fffffc000000
03fffff8000000
03fffff8000000
00000000000000
00000000000000
00000000000000
00000000000000
00000000000000
00000000000000
00000000000000
00000000000000
ENDCHAR
STARTCHAR U+00D1
ENCODING 209
SWIDTH 1000 0
DWIDTH 40 0
BBX 53 40 -6 -8
BITMAP
00000ffe0fe000
00000ffe0fe000
00000ffe0fe000
00001ffc1fc000
0001fc1ffc0000
0001fc1ffc0000
0003f83ff80000
0003f83ff80000
003ff8003f8000
007ff0007f0000
007ff0007f0000
007ff0007f0000
00fefe00fe0000
00fefe00fe0000
00fefe00fe0000
01fdfc01fc0000
01fc1fc1fc0000
01fc1fc1fc0000
03f83f83f80000
03f83f83f80000
03f803fbf80000
07f007f7f00000
07f007f7f00000
07f007f7f00000
0fe000ffe00000
0fe000ffe00000
0fe000ffe00000
1fc001ffc00000
1fc0001fc00000
1fc0001fc00000
3f80003f800000
3f80003f800000
00000000000000
00000000000000
00000000000000
00000000000000
00000000000000
00000000000000
00000000000000
00000000000000
ENDCHAR
STARTCHAR U+00D0
ENCODING 208
SWIDTH 1000 0
DWIDTH 40 0
BBX 53 40 -6 -8
BITMAP
00000000000000
00000000000000
00000000000000
00000000000000
001fffffc00000
001fffffc00000
003fffff800000
003fffff800000
0003f803f80000
0007f007f00000
0007f007f00000
0007f007f00000
000fe000fe0000
000fe000fe0000
000fe000fe0000
001fc001fc0000
01ffffc1fc0000
01ffffc1fc0000
03ffff83f80000
03ffff83f80000
003f8003f80000
007f0007f00000
007f0007f00000
007f0007f00000
00fe00fe000000
00fe00fe000000
00fe00fe000000
01fc01fc000000
1fffffc0000000
1fffffc0000000
3fffff80000000
3fffff80000000
00000000000000
00000000000000
00000000000000
00000000000000
00000000000000
00000000000000
00000000000000
00000000000000
ENDCHAR
STARTCHAR U+00CF
ENCODING 207
SWIDTH 1000 0
DWIDTH 40 0
BBX 53 40 -6 -8
BITMAP
0000fe00fe0000
0000fe00fe0000
0000fe00fe0000
0001fc01fc0000
00000000000000
00000000000000
00000000000000
00000000000000
0003fffff80000
0007fffff00000
0007fffff00000
0007fffff00000
00000fe0000000
00000fe0000000
00000fe0000000
00001fc0000000
00001fc0000000
00001fc0000000
00003f80000000
00003f80000000
00003f80000000
00007f00000000
00007f00000000
00007f00000000
0000fe00000000
0000fe00000000
0000fe00000000
0001fc00000000
01fffffc000000
01fffffc000000
03fffff8000000
03fffff8000000
00000000000000
00000000000000
00000000000000
00000000000000
00000000000000
00000000000000
00000000000000
00000000000000
ENDCHAR
STARTCHAR U+00CE
ENCODING 206
SWIDTH 1000 0
DWIDTH 40 0
BBX 53 40 -6 -8
BITMAP
00000fffe00000
00000fffe00000
00000fffe00000
00001fffc00000
0001fc01fc0000
0001fc01fc0000
0003f803f80000
0003f803f80000
0003fffff80000
0007fffff00000
0007fffff00000
0007fffff00000
00000fe0000000
00000fe0000000
00000fe0000000
00001fc0000000
00001fc0000000
00001fc0000000
00003f80000000
00003f80000000
00003f80000000
00007f00000000
00007f00000000
00007f00000000
0000fe00000000
0000fe00000000
0000fe00000000
0001fc00000000
01fffffc000000
01fffffc000000
03fffff8000000
03fffff8000000
00000000000000
00000000000000
00000000000000
00000000000000
00000000000000
00000000000000
00000000000000
00000000000000
ENDCHAR
STARTCHAR U+00CD
ENCODING 205
SWIDTH 1000 0
DWIDTH 40 0
BBX 53 40 -6 -8
BITMAP
000000ffe00000
000000ffe00000
000000ffe00000
000001ffc00000
0001ffc0000000
0001ffc0000000
0003ff80000000
0003ff80000000
0003fffff80000
0007fffff00000
0007fffff00000
0007fffff00000
00000fe0000000
00000fe0000000
00000fe0000000
00001fc0000000
00001fc0000000
00001fc0000000
00003f80000000
00003f80000000
00003f80000000
00007f00000000
00007f00000000
00007f00000000
0000fe00000000
0000fe00000000
0000fe00000000
0001fc00000000
01fffffc000000
01fffffc000000
03fffff8000000
03fffff8000000
00000000000000
00000000000000
00000000000000
00000000000000
00000000000000
00000000000000
00000000000000
00000000000000
ENDCHAR
STARTCHAR U+00CC
ENCODING 204
SWIDTH 1000 0
DWIDTH 40 0
BBX 53 40 -6 -8
BITMAP
00000ffe000000
00000ffe000000
00000ffe000000
00001ffc000000
0000001ffc0000
0000001ffc0000
0000003ff80000
0000003ff80000
0003fffff80000
0007fffff00000
0007fffff00000
0007fffff00000
00000fe0000000
00000fe0000000
00000fe0000000
00001fc0000000
00001fc0000000
00001fc0000000
00003f80000000
00003f80000000
00003f80000000
00007f00000000
00007f00000000
00007f00000000
0000fe00000000
0000fe00000000
0000fe00000000
0001fc00000000
01fffffc000000
01fffffc000000
03fffff8000000
03fffff8000000
00000000000000
00000000000000
00000000000000
00000000000000
00000000000000
00000000000000
00000000000000
00000000000000
ENDCHAR
STARTCHAR U+00CB
ENCODING 203
SWIDTH 1000 0
DWIDTH 40 0
BBX 53 40 -6 -8
BITMAP
0000fe00fe0000
0000fe00fe0000
0000fe00fe0000
0001fc01fc0000
00000000000000
00000000000000
00000000000000
00000000000000
003fffffff8000
007fffffff0000
007fffffff0000
007fffffff0000
00fe0000000000
00fe0000000000
00fe0000000000
01fc0000000000
01fffffc000000
01fffffc000000
03fffff8000000
03fffff8000000
03f80000000000
07f00000000000
07f00000000000
07f00000000000
0fe00000000000
0fe00000000000
0fe00000000000
1fc00000000000
1fffffffc00000
1fffffffc00000
3fffffff800000
3fffffff800000
00000000000000
00000000000000
00000000000000
00000000000000
00000000000000
00000000000000
00000000000000
00000000000000
ENDCHAR
STARTCHAR U+00CA
ENCODING 202
SWIDTH 1000 0
DWIDTH 40 0
BBX 53 40 -6 -8
BITMAP
00000fffe00000
00000fffe00000
00000fffe00000
00001fffc00000
0001fc01fc0000
0001fc01fc0000
0003f803f80000
0003f803f80000
003fffffff8000
007fffffff0000
007fffffff0000
007fffffff0000
00fe0000000000
00fe0000000000
00fe0000000000
01fc0000000000
01ffffc0000000
01ffffc0000000
03ffff80000000
03ffff80000000
03f80000000000
07f00000000000
07f00000000000
07f00000000000
0fe00000000000
0fe00000000000
0fe00000000000
1fc00000000000
1fffffffc00000
1fffffffc00000
3fffffff800000
3fffffff800000
00000000000000
00000000000000
00000000000000
00000000000000
00000000000000
00000000000000
00000000000000
00000000000000
ENDCHAR
STARTCHAR U+00C9
ENCODING 201
SWIDTH 1000 0
DWIDTH 40 0
BBX 53 40 -6 -8
BITMAP
0000000ffe0000
0000000ffe0000
0000000ffe0000
0000001ffc0000
00001ffc000000
00001ffc000000
00003ff8000000
00003ff8000000
003fffffff8000
007fffffff0000
007fffffff0000
007fffffff0000
00fe0000000000
00fe0000000000
00fe0000000000
01fc0000000000
01fffffc000000
01fffffc000000
03fffff8000000
03fffff8000000
03f80000000000
07f00000000000
07f00000000000
07f00000000000
0fe00000000000
0fe00000000000
0fe00000000000
1fc00000000000
1fffffffc00000
1fffffffc00000
3fffffff800000
3fffffff800000
00000000000000
00000000000000
00000000000000
00000000000000
00000000000000
00000000000000
00000000000000
00000000000000
ENDCHAR
STARTCHAR U+00C8
ENCODING 200
SWIDTH 1000 0
DWIDTH 40 0
BBX 53 40 -6 -8
BITMAP
0000ffe0000000
0000ffe0000000
0000ffe0000000
0001ffc0000000
000001ffc00000
000001ffc00000
000003ff800000
000003ff800000
003fffffff8000
007fffffff0000
007fffffff0000
007fffffff0000
00fe0000000000
00fe0000000000
00fe0000000000
01fc0000000000
01fffffc000000
01fffffc000000
03fffff8000000
03fffff8000000
03f80000000000
07f00000000000
07f00000000000
07f00000000000
0fe00000000000
0fe00000000000
0fe00000000000
1fc00000000000
1fffffffc00000
1fffffffc00000
3fffffff800000
3fffffff800000
00000000000000
00000000000000
00000000000000
00000000000000
00000000000000
00000000000000
00000000000000
00000000000000
ENDCHAR
STARTCHAR U+00C7
ENCODING 199
SWIDTH 1000 0
DWIDTH 40 0
BBX 53 40 -6 -8
BITMAP
00000000000000
00000000000000
00000000000000
00000000000000
00001ffffc0000
00001ffffc0000
00003ffff80000
00003ffff80000
0003f8003f8000
0007f0007f0000
0007f0007f0000
0007f0007f0000
00fe0000000000
00fe0000000000
00fe0000000000
01fc0000000000
01fc0000000000
01fc0000000000
03f80000000000
03f80000000000
03f80000000000
07f00000000000
07f00000000000
07f00000000000
00fe000fe00000
00fe000fe00000
00fe000fe00000
01fc001fc00000
001ffffc000000
001ffffc000000
003ffff8000000
003ffff8000000
00003f80000000
00007f00000000
00007f00000000
00007f00000000
00fffe00000000
00fffe00000000
00fffe00000000
01fffc00000000
ENDCHAR
STARTCHAR U+00C6
ENCODING 198
SWIDTH 1000 0
DWIDTH 40 0
BBX 53 40 -6 -8
BITMAP
00000000000000
00000000000000
00000000000000
00000000000000
00001fffffc000
00001fffffc000
00003fffff8000
00003fffff8000
0003fbf8000000
0007f7f0000000
0007f7f0000000
0007f7f0000000
00fe0fe0000000
00fe0fe0000000
00fe0fe0000000
01fc1fc0000000
01fc1fffc00000
01fc1fffc00000
03f83fff800000
03f83fff800000
03ffff80000000
07ffff00000000
07ffff00000000
07ffff00000000
0fe0fe00000000
0fe0fe00000000
0fe0fe00000000
1fc1fc00000000
1fc1ffffc00000
1fc1ffffc00000
3f83ffff800000
3f83ffff800000
00000000000000
00000000000000
00000000000000
00000000000000
00000000000000
00000000000000
00000000000000
00000000000000
ENDCHAR
STARTCHAR U+00C5
ENCODING 197
SWIDTH 1000 0
DWIDTH 40 0
BBX 53 40 -6 -8
BITMAP
00000fffe00000
00000fffe00000
00000fffe00000
00001fffc00000
0001fc01fc0000
0001fc01fc0000
0003f803f80000
0003f803f80000
00003fff800000
00007fff000000
00007fff000000
00007fff000000
0000fffe000000
0000fffe000000
0000fffe000000
0001fffc000000
001fc01fc00000
001fc01fc00000
003f803f800000
003f803f800000
03fffffff80000
07fffffff00000
07fffffff00000
07fffffff00000
0fe0000fe00000
0fe0000fe00000
0fe0000fe00000
1fc0001fc00000
1fc0001fc00000
1fc0001fc00000
3f80003f800000
3f80003f800000
00000000000000
00000000000000
00000000000000
00000000000000
00000000000000
00000000000000
00000000000000
00000000000000
ENDCHAR
STARTCHAR U+00C4
ENCODING 196
SWIDTH 1000 0
DWIDTH 40 0
BBX 53 40 -6 -8
BITMAP
0000fe00fe0000
0000fe00fe0000
0000fe00fe0000
0001fc01fc0000
00000000000000
00000000000000
00000000000000
00000000000000
000003f8000000
000007f0000000
000007f0000000
000007f0000000
0000fefe000000
0000fefe000000
0000fefe000000
0001fdfc000000
001fc01fc00000
001fc01fc00000
003f803f800000
003f803f800000
03fffffff80000
07fffffff00000
07fffffff00000
07fffffff00000
0fe0000fe00000
0fe0000fe00000
0fe0000fe00000
1fc0001fc00000
1fc0001fc00000
1fc0001fc00000
3f80003f800000
3f80003f800000
00000000000000
00000000000000
00000000000000
00000000000000
00000000000000
00000000000000
00000000000000
00000000000000
ENDCHAR
STARTCHAR U+00C3
ENCODING 195
SWIDTH 1000 0
DWIDTH 40 0
BBX 53 40 -6 -8
BITMAP
00000ffe0fe000
00000ffe0fe000
00000ffe0fe000
00001ffc1fc000
0001fc1ffc0000
0001fc1ffc0000
0003f83ff80000
0003f83ff80000
000003f8000000
000007f0000000
000007f0000000
000007f0000000
0000fefe000000
0000fefe000000
0000fefe000000
0001fdfc000000
001fc01fc00000
001fc01fc00000
003f803f800000
003f803f800000
03fffffff80000
07fffffff00000
07fffffff00000
07fffffff00000
0fe0000fe00000
0fe0000fe00000
0fe0000fe00000
1fc0001fc00000
1fc0001fc00000
1fc0001fc00000
3f80003f800000
3f80003f800000
00000000000000
00000000000000
00000000000000
00000000000000
00000000000000
00000000000000
00000000000000
00000000000000
ENDCHAR
STARTCHAR U+00C2
ENCODING 194
SWIDTH 1000 0
DWIDTH 40 0
BBX 53 40 -6 -8
BITMAP
00000fffe00000
00000fffe00000
00000fffe00000
00001fffc00000
0001fc01fc0000
0001fc01fc0000
0003f803f80000
0003f803f80000
000003f8000000
000007f0000000
000007f0000000
000007f0000000
0000fefe000000
0000fefe000000
0000fefe000000
0001fdfc000000
001fc01fc00000
001fc01fc00000
003f803f800000
003f803f800000
03fffffff80000
07fffffff00000
07fffffff00000
07fffffff00000
0fe0000fe00000
0fe0000fe00000
0fe0000fe00000
1fc0001fc00000
1fc0001fc00000
1fc0001fc00000
3f80003f800000
3f80003f800000
00000000000000
00000000000000
00000000000000
00000000000000
00000000000000
00000000000000
00000000000000
00000000000000
ENDCHAR
STARTCHAR U+00C1
ENCODING 193
SWIDTH 1000 0
DWIDTH 40 0
BBX 53 40 -6 -8
BITMAP
000000ffe00000
000000ffe00000
000000ffe00000
000001ffc00000
0001ffc0000000
0001ffc0000000
0003ff80000000
0003ff80000000
000003f8000000
000007f0000000
000007f0000000
000007f0000000
0000fefe000000
0000fefe000000
0000fefe000000
0001fdfc000000
001fc01fc00000
001fc01fc00000
003f803f800000
003f803f800000
03fffffff80000
07fffffff00000
07fffffff00000
07fffffff00000
0fe0000fe00000
0fe0000fe00000
0fe0000fe00000
1fc0001fc00000
1fc0001fc00000
1fc0001fc00000
3f80003f800000
3f80003f800000
00000000000000
00000000000000
00000000000000
00000000000000
00000000000000
00000000000000
00000000000000
00000000000000
ENDCHAR
STARTCHAR U+00C0
ENCODING 192
SWIDTH 1000 0
DWIDTH 40 0
BBX 53 40 -6 -8
BITMAP
00000ffe000000
00000ffe000000
00000ffe000000
00001ffc000000
0000001ffc0000
0000001ffc0000
0000003ff80000
0000003ff80000
000003f8000000
000007f0000000
000007f0000000
000007f0000000
0000fefe000000
0000fefe000000
0000fefe000000
0001fdfc000000
001fc01fc00000
001fc01fc00000
003f803f800000
003f803f800000
03fffffff80000
07fffffff00000
07fffffff00000
07fffffff00000
0fe0000fe00000
0fe0000fe00000
0fe0000fe00000
1fc0001fc00000
1fc0001fc00000
1fc0001fc00000
3f80003f800000
3f80003f800000
00000000000000
00000000000000
00000000000000
00000000000000
00000000000000
00000000000000
00000000000000
00000000000000
ENDCHAR
STARTCHAR U+00BF
ENCODING 191
SWIDTH 1000 0
DWIDTH 40 0
BBX 53 40 -6 -8
BITMAP
00000000000000
00000000000000
00000000000000
00000000000000
000001fc000000
000001fc000000
000003f8000000
000003f8000000
00000000000000
00000000000000
00000000000000
00000000000000
00000fe0000000
00000fe0000000
00000fe0000000
00001fc0000000
00001fc0000000
00001fc0000000
00003f80000000
00003f80000000
003ff800000000
007ff000000000
007ff000000000
007ff000000000
0fe0000fe00000
0fe0000fe00000
0fe0000fe00000
1fc0001fc00000
01fffffc000000
01fffffc000000
03fffff8000000
03fffff8000000
00000000000000
00000000000000
00000000000000
00000000000000
00000000000000
00000000000000
00000000000000
00000000000000
ENDCHAR
STARTCHAR U+00BE
ENCODING 190
SWIDTH 1000 0
DWIDTH 40 0
BBX 53 40 -6 -8
BITMAP
000ffffe000000
000ffffe000000
000ffffe000000
001ffffc000000
000001fc000000
000001fc000000
000003f8000000
000003f8000000
0003ff83f80000
0007ff07f00000
0007ff07f00000
0007ff07f00000
00000ffe000000
00000ffe000000
00000ffe000000
00001ffc000000
01ffffc0000000
01ffffc0000000
03ffff80000000
03ffff80000000
0003f83f800000
0007f07f000000
0007f07f000000
0007f07f000000
00fe0ffe000000
00fe0ffe000000
00fe0ffe000000
01fc1ffc000000
1fc1fdfc000000
1fc1fdfc000000
3f83fbf8000000
3f83fbf8000000
003fffff800000
007fffff000000
007fffff000000
007fffff000000
00000fe0000000
00000fe0000000
00000fe0000000
00001fc0000000
ENDCHAR
STARTCHAR U+00BD
ENCODING 189
SWIDTH 1000 0
DWIDTH 40 0
BBX 53 40 -6 -8
BITMAP
00000000000000
00000000000000
00000000000000
00000000000000
0001fc00000000
0001fc00000000
0003f800000000
0003f800000000
003ff803f80000
007ff007f00000
007ff007f00000
007ff007f00000
000fe0fe000000
000fe0fe000000
000fe0fe000000
001fc1fc000000
001fdfc0000000
001fdfc0000000
003fbf80000000
003fbf80000000
0003fbff800000
0007f7ff000000
0007f7ff000000
0007f7ff000000
00fefe0fe00000
00fefe0fe00000
00fefe0fe00000
01fdfc1fc00000
1fc001fc000000
1fc001fc000000
3f8003f8000000
3f8003f8000000
00003f80000000
00007f00000000
00007f00000000
00007f00000000
000ffffe000000
000ffffe000000
000ffffe000000
001ffffc000000
ENDCHAR
STARTCHAR U+00BC
ENCODING 188
SWIDTH 1000 0
DWIDTH 40 0
BBX 53 40 -6 -8
BITMAP
00000000000000
00000000000000
00000000000000
00000000000000
0001fc00000000
0001fc00000000
0003f800000000
0003f800000000
003ff803f80000
007ff007f00000
007ff007f00000
007ff007f00000
000fe0fe000000
000fe0fe000000
000fe0fe000000
001fc1fc000000
001fdfc0000000
001fdfc0000000
003fbf80000000
003fbf80000000
0003f83f800000
0007f07f000000
0007f07f000000
0007f07f000000
00fe0ffe000000
00fe0ffe000000
00fe0ffe000000
01fc1ffc000000
1fc1fdfc000000
1fc1fdfc000000
3f83fbf8000000
3f83fbf8000000
003fffff800000
007fffff000000
007fffff000000
007fffff000000
00000fe0000000
00000fe0000000
00000fe0000000
00001fc0000000
ENDCHAR
STARTCHAR U+00BB
ENCODING 187
SWIDTH 1000 0
DWIDTH 40 0
BBX 53 40 -6 -8
BITMAP
00000000000000
00000000000000
00000000000000
00000000000000
001fc1fc000000
001fc1fc000000
003f83f8000000
003f83f8000000
0003f83f800000
0007f07f000000
0007f07f000000
0007f07f000000
0000fe0fe00000
0000fe0fe00000
0000fe0fe00000
0001fc1fc00000
00001fc1fc0000
00001fc1fc0000
00003f83f80000
00003f83f80000
0003f83f800000
0007f07f000000
0007f07f000000
0007f07f000000
00fe0fe0000000
00fe0fe0000000
00fe0fe0000000
01fc1fc0000000
1fc1fc00000000
1fc1fc00000000
3f83f800000000
3f83f800000000
00000000000000
00000000000000
00000000000000
00000000000000
00000000000000
00000000000000
00000000000000
00000000000000
ENDCHAR
STARTCHAR U+00BA
ENCODING 186
SWIDTH 1000 0
DWIDTH 40 0
BBX 53 40 -6 -8
BITMAP
00000000000000
00000000000000
00000000000000
00000000000000
0001fffffc0000
0001fffffc0000
0003fffff80000
0003fffff80000
003f80003f8000
007f00007f0000
007f00007f0000
007f00007f0000
00fe0000fe0000
00fe0000fe0000
00fe0000fe0000
01fc0001fc0000
01fc0001fc0000
01fc0001fc0000
03f80003f80000
03f80003f80000
003fffff800000
007fffff000000
007fffff000000
007fffff000000
00000000000000
00000000000000
00000000000000
00000000000000
1fffffffc00000
1fffffffc00000
3fffffff800000
3fffffff800000
00000000000000
00000000000000
00000000000000
00000000000000
00000000000000
00000000000000
00000000000000
00000000000000
ENDCHAR
STARTCHAR U+00B9
ENCODING 185
SWIDTH 1000 0
DWIDTH 40 0
BBX 53 40 -6 -8
BITMAP
000000fe000000
000000fe000000
000000fe000000
000001fc000000
00001ffc000000
00001ffc000000
00003ff8000000
00003ff8000000
000003f8000000
000007f0000000
000007f0000000
000007f0000000
00000fe0000000
00000fe0000000
00000fe0000000
00001fc0000000
0001fffc000000
0001fffc000000
0003fff8000000
0003fff8000000
00000000000000
00000000000000
00000000000000
00000000000000
00000000000000
00000000000000
00000000000000
00000000000000
00000000000000
00000000000000
00000000000000
00000000000000
00000000000000
00000000000000
00000000000000
00000000000000
00000000000000
00000000000000
00000000000000
00000000000000
ENDCHAR
STARTCHAR U+00B8
ENCODING 184
SWIDTH 1000 0
DWIDTH 40 0
BBX 53 40 -6 -8
BITMAP
00000000000000
00000000000000
00000000000000
00000000000000
00000000000000
00000000000000
00000000000000
00000000000000
00000000000000
00000000000000
00000000000000
00000000000000
00000000000000
00000000000000
00000000000000
00000000000000
00000000000000
00000000000000
00000000000000
00000000000000
00000000000000
00000000000000
00000000000000
00000000000000
00000000000000
00000000000000
00000000000000
00000000000000
00000000000000
00000000000000
00000000000000
00000000000000
00003f80000000
00007f00000000
00007f00000000
00007f00000000
00fffe00000000
00fffe00000000
00fffe00000000
01fffc00000000
ENDCHAR
STARTCHAR U+2022
ENCODING 8226
SWIDTH 1000 0
DWIDTH 40 0
BBX 53 40 -6 -8
BITMAP
00000000000000
00000000000000
00000000000000
00000000000000
00000000000000
00000000000000
00000000000000
00000000000000
00000000000000
00000000000000
00000000000000
00000000000000
0000ffe0000000
0000ffe0000000
0000ffe0000000
0001ffc0000000
0001ffc0000000
0001ffc0000000
0003ff80000000
0003ff80000000
00000000000000
00000000000000
00000000000000
00000000000000
00000000000000
00000000000000
00000000000000
00000000000000
00000000000000
00000000000000
00000000000000
00000000000000
00000000000000
00000000000000
00000000000000
00000000000000
00000000000000
00000000000000
00000000000000
00000000000000
ENDCHAR
STARTCHAR U+00B6
ENCODING 182
SWIDTH 1000 0
DWIDTH 40 0
BBX 53 40 -6 -8
BITMAP
00000000000000
00000000000000
00000000000000
00000000000000
0001ffffffc000
0001ffffffc000
0003ffffff8000
0003ffffff8000
003ff83fbf8000
007ff07f7f0000
007ff07f7f0000
007ff07f7f0000
00ffe0fefe0000
00ffe0fefe0000
00ffe0fefe0000
01ffc1fdfc0000
001ffffffc0000
001ffffffc0000
003ffffff80000
003ffffff80000
000003fbf80000
000007f7f00000
000007f7f00000
000007f7f00000
00000fefe00000
00000fefe00000
00000fefe00000
00001fdfc00000
00001fdfc00000
00001fdfc00000
00003fbf800000
00003fbf800000
00000000000000
00000000000000
00000000000000
00000000000000
00000000000000
00000000000000
00000000000000
00000000000000
ENDCHAR
STARTCHAR U+00B5
ENCODING 181
SWIDTH 1000 0
DWIDTH 40 0
BBX 53 40 -6 -8
BITMAP
00000000000000
00000000000000
00000000000000
00000000000000
00000000000000
00000000000000
00000000000000
00000000000000
00000000000000
00000000000000
00000000000000
00000000000000
000fe000fe0000
000fe000fe0000
000fe000fe0000
001fc001fc0000
001fc001fc0000
001fc001fc0000
003f8003f80000
003f8003f80000
003f8003f80000
007f0007f00000
007f0007f00000
007f0007f00000
00ffe0ffe00000
00ffe0ffe00000
00ffe0ffe00000
01ffc1ffc00000
01fdffdfc00000
01fdffdfc00000
03fbffbf800000
03fbffbf800000
03f80000000000
07f00000000000
07f00000000000
07f00000000000
fe000000000000
fe000000000000
fe000000000000
fc000000000000
ENDCHAR
STARTCHAR U+00B4
ENCODING 180
SWIDTH 1000 0
DWIDTH 40 0
BBX 53 40 -6 -8
BITMAP
00000000000000
00000000000000
00000000000000
00000000000000
0000001ffc0000
0000001ffc0000
0000003ff80000
0000003ff80000
0000003f800000
0000007f000000
0000007f000000
0000007f000000
00000fe0000000
00000fe0000000
00000fe0000000
00001fc0000000
00000000000000
00000000000000
00000000000000
00000000000000
00000000000000
00000000000000
00000000000000
00000000000000
00000000000000
00000000000000
00000000000000
00000000000000
00000000000000
00000000000000
00000000000000
00000000000000
00000000000000
00000000000000
00000000000000
00000000000000
00000000000000
00000000000000
00000000000000
00000000000000
ENDCHAR
STARTCHAR U+00B3
ENCODING 179
SWIDTH 1000 0
DWIDTH 40 0
BBX 53 40 -6 -8
BITMAP
0000fffffe0000
0000fffffe0000
0000fffffe0000
0001fffffc0000
00000001fc0000
00000001fc0000
00000003f80000
00000003f80000
000003ff800000
000007ff000000
000007ff000000
000007ff000000
0000000fe00000
0000000fe00000
0000000fe00000
0000001fc00000
001ffffc000000
001ffffc000000
003ffff8000000
003ffff8000000
00000000000000
00000000000000
00000000000000
00000000000000
00000000000000
00000000000000
00000000000000
00000000000000
00000000000000
00000000000000
00000000000000
00000000000000
00000000000000
00000000000000
00000000000000
00000000000000
00000000000000
00000000000000
00000000000000
00000000000000
ENDCHAR
STARTCHAR U+00B2
ENCODING 178
SWIDTH 1000 0
DWIDTH 40 0
BBX 53 40 -6 -8
BITMAP
00000fffe00000
00000fffe00000
00000fffe00000
00001fffc00000
0001fc01fc0000
0001fc01fc0000
0003f803f80000
0003f803f80000
000003ff800000
000007ff000000
000007ff000000
000007ff000000
0000fe00000000
0000fe00000000
0000fe00000000
0001fc00000000
001fffffc00000
001fffffc00000
003fffff800000
003fffff800000
00000000000000
00000000000000
00000000000000
00000000000000
00000000000000
00000000000000
00000000000000
00000000000000
00000000000000
00000000000000
00000000000000
00000000000000
00000000000000
00000000000000
00000000000000
00000000000000
00000000000000
00000000000000
00000000000000
00000000000000
ENDCHAR
STARTCHAR U+00AF
ENCODING 175
SWIDTH 1000 0
DWIDTH 40 0
BBX 53 40 -6 -8
BITMAP
0000fffffe0000
0000fffffe0000
0000fffffe0000
0001fffffc0000
00000000000000
00000000000000
00000000000000
00000000000000
00000000000000
00000000000000
00000000000000
00000000000000
00000000000000
00000000000000
00000000000000
00000000000000
00000000000000
00000000000000
00000000000000
00000000000000
00000000000000
00000000000000
00000000000000
00000000000000
00000000000000
00000000000000
00000000000000
00000000000000
00000000000000
00000000000000
00000000000000
00000000000000
00000000000000
00000000000000
00000000000000
00000000000000
00000000000000
00000000000000
00000000000000
00000000000000
ENDCHAR
STARTCHAR U+00AE
ENCODING 174
SWIDTH 1000 0
DWIDTH 40 0
BBX 53 40 -6 -8
BITMAP
00000000000000
00000000000000
00000000000000
00000000000000
00001fffc00000
00001fffc00000
00003fff800000
00003fff800000
0003f803f80000
0007f007f00000
0007f007f00000
0007f007f00000
00fefffefe0000
00fefffefe0000
00fefffefe0000
01fdfffdfc0000
01fdfc1ffc0000
01fdfc1ffc0000
03fbf83ff80000
03fbf83ff80000
03fbfffbf80000
07f7fff7f00000
07f7fff7f00000
07f7fff7f00000
0feffe0fe00000
0feffe0fe00000
0feffe0fe00000
1fdffc1fc00000
01ffdffc000000
01ffdffc000000
03ffbff8000000
03ffbff8000000
003fff80000000
007fff00000000
007fff00000000
007fff00000000
00000000000000
00000000000000
00000000000000
00000000000000
ENDCHAR
STARTCHAR U+00D7
ENCODING 215
SWIDTH 1000 0
DWIDTH 40 0
BBX 53 40 -6 -8
BITMAP
00000000000000
00000000000000
00000000000000
00000000000000
00000000000000
00000000000000
00000000000000
00000000000000
0003f803f80000
0007f007f00000
0007f007f00000
0007f007f00000
0000fefe000000
0000fefe000000
0000fefe000000
0001fdfc000000
00001fc0000000
00001fc0000000
00003f80000000
00003f80000000
0003fbf8000000
0007f7f0000000
0007f7f0000000
0007f7f0000000
00fe00fe000000
00fe00fe000000
00fe00fe000000
01fc01fc000000
00000000000000
00000000000000
00000000000000
00000000000000
00000000000000
00000000000000
00000000000000
00000000000000
00000000000000
00000000000000
00000000000000
00000000000000
ENDCHAR
STARTCHAR U+00AC
ENCODING 172
SWIDTH 1000 0
DWIDTH 40 0
BBX 53 40 -6 -8
BITMAP
00000000000000
00000000000000
00000000000000
00000000000000
00000000000000
00000000000000
00000000000000
00000000000000
00000000000000
00000000000000
00000000000000
00000000000000
00000000000000
00000000000000
00000000000000
00000000000000
00000000000000
00000000000000
00000000000000
00000000000000
03fffffff80000
07fffffff00000
07fffffff00000
07fffffff00000
0000000fe00000
0000000fe00000
0000000fe00000
0000001fc00000
0000001fc00000
0000001fc00000
0000003f800000
0000003f800000
00000000000000
00000000000000
00000000000000
00000000000000
00000000000000
00000000000000
00000000000000
00000000000000
ENDCHAR
STARTCHAR U+00AB
ENCODING 171
SWIDTH 1000 0
DWIDTH 40 0
BBX 53 40 -6 -8
BITMAP
00000000000000
00000000000000
00000000000000
00000000000000
000001fc1fc000
000001fc1fc000
000003f83f8000
000003f83f8000
00003f83f80000
00007f07f00000
00007f07f00000
00007f07f00000
000fe0fe000000
000fe0fe000000
000fe0fe000000
001fc1fc000000
01fc1fc0000000
01fc1fc0000000
03f83f80000000
03f83f80000000
003f83f8000000
007f07f0000000
007f07f0000000
007f07f0000000
000fe0fe000000
000fe0fe000000
000fe0fe000000
001fc1fc000000
0001fc1fc00000
0001fc1fc00000
0003f83f800000
0003f83f800000
00000000000000
00000000000000
00000000000000
00000000000000
00000000000000
00000000000000
00000000000000
00000000000000
ENDCHAR
STARTCHAR U+00AA
ENCODING 170
SWIDTH 1000 0
DWIDTH 40 0
BBX 53 40 -6 -8
BITMAP
00000000000000
00000000000000
00000000000000
00000000000000
0001fffffc0000
0001fffffc0000
0003fffff80000
0003fffff80000
000000003f8000
000000007f0000
000000007f0000
000000007f0000
000ffffffe0000
000ffffffe0000
000ffffffe0000
001ffffffc0000
01fc001ffc0000
01fc001ffc0000
03f8003ff80000
03f8003ff80000
003ffffbf80000
007ffff7f00000
007ffff7f00000
007ffff7f00000
00000000000000
00000000000000
00000000000000
00000000000000
1fffffffc00000
1fffffffc00000
3fffffff800000
3fffffff800000
00000000000000
00000000000000
00000000000000
00000000000000
00000000000000
00000000000000
00000000000000
00000000000000
ENDCHAR
STARTCHAR U+00A9
ENCODING 169
SWIDTH 1000 0
DWIDTH 40 0
BBX 53 40 -6 -8
BITMAP
00000000000000
00000000000000
00000000000000
00000000000000
00001fffc00000
00001fffc00000
00003fff800000
00003fff800000
0003f803f80000
0007f007f00000
0007f007f00000
0007f007f00000
00fe0ffefe0000
00fe0ffefe0000
00fe0ffefe0000
01fc1ffdfc0000
01fdfc01fc0000
01fdfc01fc0000
03fbf803f80000
03fbf803f80000
03fbf803f80000
07f7f007f00000
07f7f007f00000
07f7f007f00000
0fe0ffefe00000
0fe0ffefe00000
0fe0ffefe00000
1fc1ffdfc00000
01fc01fc000000
01fc01fc000000
03f803f8000000
03f803f8000000
003fff80000000
007fff00000000
007fff00000000
007fff00000000
00000000000000
00000000000000
00000000000000
00000000000000
ENDCHAR
STARTCHAR U+00A4
ENCODING 164
SWIDTH 1000 0
DWIDTH 40 0
BBX 53 40 -6 -8
BITMAP
00000000000000
00000000000000
00000000000000
00000000000000
00000000000000
00000000000000
00000000000000
00000000000000
003f80003f8000
007f00007f0000
007f00007f0000
007f00007f0000
000fffffe00000
000fffffe00000
000fffffe00000
001fffffc00000
001fc01fc00000
001fc01fc00000
003f803f800000
003f803f800000
003fffff800000
007fffff000000
007fffff000000
007fffff000000
0fe0000fe00000
0fe0000fe00000
0fe0000fe00000
1fc0001fc00000
00000000000000
00000000000000
00000000000000
00000000000000
00000000000000
00000000000000
00000000000000
00000000000000
00000000000000
00000000000000
00000000000000
00000000000000
ENDCHAR
STARTCHAR U+00A7
ENCODING 167
SWIDTH 1000 0
DWIDTH 40 0
BBX 53 40 -6 -8
BITMAP
00000000000000
00000000000000
00000000000000
00000000000000
00001ffffc0000
00001ffffc0000
00003ffff80000
00003ffff80000
0003f800000000
0007f000000000
0007f000000000
0007f000000000
0000fffe000000
0000fffe000000
0000fffe000000
0001fffc000000
001fc01fc00000
001fc01fc00000
003f803f800000
003f803f800000
0003fff8000000
0007fff0000000
0007fff0000000
0007fff0000000
000000fe000000
000000fe000000
000000fe000000
000001fc000000
01ffffc0000000
01ffffc0000000
03ffff80000000
03ffff80000000
00000000000000
00000000000000
00000000000000
00000000000000
00000000000000
00000000000000
00000000000000
00000000000000
ENDCHAR
STARTCHAR U+00A6
ENCODING 166
SWIDTH 1000 0
DWIDTH 40 0
BBX 53 40 -6 -8
BITMAP
00000000000000
00000000000000
00000000000000
00000000000000
000001fc000000
000001fc000000
000003f8000000
000003f8000000
000003f8000000
000007f0000000
000007f0000000
000007f0000000
00000fe0000000
00000fe0000000
00000fe0000000
00001fc0000000
00000000000000
00000000000000
00000000000000
00000000000000
00003f80000000
00007f00000000
00007f00000000
00007f00000000
0000fe00000000
0000fe00000000
0000fe00000000
0001fc00000000
0001fc00000000
0001fc00000000
0003f800000000
0003f800000000
00000000000000
00000000000000
00000000000000
00000000000000
00000000000000
00000000000000
00000000000000
00000000000000
ENDCHAR
STARTCHAR U+00A5
ENCODING 165
SWIDTH 1000 0
DWIDTH 40 0
BBX 53 40 -6 -8
BITMAP
00000000000000
00000000000000
00000000000000
00000000000000
001fc0001fc000
001fc0001fc000
003f80003f8000
003f80003f8000
0003f803f80000
0007f007f00000
0007f007f00000
0007f007f00000
0000fefe000000
0000fefe000000
0000fefe000000
0001fdfc000000
00001fc0000000
00001fc0000000
00003f80000000
00003f80000000
03fffffff80000
07fffffff00000
07fffffff00000
07fffffff00000
0000fe00000000
0000fe00000000
0000fe00000000
0001fc00000000
0001fc00000000
0001fc00000000
0003f800000000
0003f800000000
00000000000000
00000000000000
00000000000000
00000000000000
00000000000000
00000000000000
00000000000000
00000000000000
ENDCHAR
STARTCHAR U+00A8
ENCODING 168
SWIDTH 1000 0
DWIDTH 40 0
BBX 53 40 -6 -8
BITMAP
0000fe00fe0000
0000fe00fe0000
0000fe00fe0000
0001fc01fc0000
00000000000000
00000000000000
00000000000000
00000000000000
00000000000000
00000000000000
00000000000000
00000000000000
00000000000000
00000000000000
00000000000000
00000000000000
00000000000000
00000000000000
00000000000000
00000000000000
00000000000000
00000000000000
00000000000000
00000000000000
00000000000000
00000000000000
00000000000000
00000000000000
00000000000000
00000000000000
00000000000000
00000000000000
00000000000000
00000000000000
00000000000000
00000000000000
00000000000000
00000000000000
00000000000000
00000000000000
ENDCHAR
STARTCHAR U+00A2
ENCODING 162
SWIDTH 1000 0
DWIDTH 40 0
BBX 53 40 -6 -8
BITMAP
00000000000000
00000000000000
00000000000000
00000000000000
00000000000000
00000000000000
00000000000000
00000000000000
000003f8000000
000007f0000000
000007f0000000
000007f0000000
000fffffe00000
000fffffe00000
000fffffe00000
001fffffc00000
01fc1fc1fc0000
01fc1fc1fc0000
03f83f83f80000
03f83f83f80000
03f83f80000000
07f07f00000000
07f07f00000000
07f07f00000000
0fe0fe0fe00000
0fe0fe0fe00000
0fe0fe0fe00000
1fc1fc1fc00000
01fffffc000000
01fffffc000000
03fffff8000000
03fffff8000000
0003f800000000
0007f000000000
0007f000000000
0007f000000000
00000000000000
00000000000000
00000000000000
00000000000000
ENDCHAR
STARTCHAR U+00A1
ENCODING 161
SWIDTH 1000 0
DWIDTH 40 0
BBX 53 40 -6 -8
BITMAP
00000000000000
00000000000000
00000000000000
00000000000000
000001fc000000
000001fc000000
000003f8000000
000003f8000000
00000000000000
00000000000000
00000000000000
00000000000000
00000fe0000000
00000fe0000000
00000fe0000000
00001fc0000000
00001fc0000000
00001fc0000000
00003f80000000
00003f80000000
00003f80000000
00007f00000000
00007f00000000
00007f00000000
0000fe00000000
0000fe00000000
0000fe00000000
0001fc00000000
0001fc00000000
0001fc00000000
0003f800000000
0003f800000000
00000000000000
00000000000000
00000000000000
00000000000000
00000000000000
00000000000000
00000000000000
00000000000000
ENDCHAR
STARTCHAR U+201F
ENCODING 8223
SWIDTH 1000 0
DWIDTH 40 0
BBX 53 40 -6 -8
BITMAP
00000000000000
00000000000000
00000000000000
00000000000000
0001ffdffc0000
0001ffdffc0000
0003ffbff80000
0003ffbff80000
0003f83f800000
0007f07f000000
0007f07f000000
0007f07f000000
0000fe0fe00000
0000fe0fe00000
0000fe0fe00000
0001fc1fc00000
00000000000000
00000000000000
00000000000000
00000000000000
00000000000000
00000000000000
00000000000000
00000000000000
00000000000000
00000000000000
00000000000000
00000000000000
00000000000000
00000000000000
00000000000000
00000000000000
00000000000000
00000000000000
00000000000000
00000000000000
00000000000000
00000000000000
00000000000000
00000000000000
ENDCHAR
STARTCHAR U+201E
ENCODING 8222
SWIDTH 1000 0
DWIDTH 40 0
BBX 53 40 -6 -8
BITMAP
00000000000000
00000000000000
00000000000000
00000000000000
00000000000000
00000000000000
00000000000000
00000000000000
00000000000000
00000000000000
00000000000000
00000000000000
00000000000000
00000000000000
00000000000000
00000000000000
00000000000000
00000000000000
00000000000000
00000000000000
00000000000000
00000000000000
00000000000000
00000000000000
00000000000000
00000000000000
00000000000000
00000000000000
01fc1fc0000000
01fc1fc0000000
03f83f80000000
03f83f80000000
03f83f80000000
07f07f00000000
07f07f00000000
07f07f00000000
00000000000000
00000000000000
00000000000000
00000000000000
ENDCHAR
STARTCHAR U+201D
ENCODING 8221
SWIDTH 1000 0
DWIDTH 40 0
BBX 53 40 -6 -8
BITMAP
00000000000000
00000000000000
00000000000000
00000000000000
0001ffc1ffc000
0001ffc1ffc000
0003ff83ff8000
0003ff83ff8000
00003f803f8000
00007f007f0000
00007f007f0000
00007f007f0000
000fe00fe00000
000fe00fe00000
000fe00fe00000
001fc01fc00000
00000000000000
00000000000000
00000000000000
00000000000000
00000000000000
00000000000000
00000000000000
00000000000000
00000000000000
00000000000000
00000000000000
00000000000000
00000000000000
00000000000000
00000000000000
00000000000000
00000000000000
00000000000000
00000000000000
00000000000000
00000000000000
00000000000000
00000000000000
00000000000000
ENDCHAR
STARTCHAR U+201C
ENCODING 8220
SWIDTH 1000 0
DWIDTH 40 0
BBX 53 40 -6 -8
BITMAP
00000000000000
00000000000000
00000000000000
00000000000000
00001fc01fc000
00001fc01fc000
00003f803f8000
00003f803f8000
0003f803f80000
0007f007f00000
0007f007f00000
0007f007f00000
000ffe0ffe0000
000ffe0ffe0000
000ffe0ffe0000
001ffc1ffc0000
00000000000000
00000000000000
00000000000000
00000000000000
00000000000000
00000000000000
00000000000000
00000000000000
00000000000000
00000000000000
00000000000000
00000000000000
00000000000000
00000000000000
00000000000000
00000000000000
00000000000000
00000000000000
00000000000000
00000000000000
00000000000000
00000000000000
00000000000000
00000000000000
ENDCHAR
STARTCHAR U+201B
ENCODING 8219
SWIDTH 1000 0
DWIDTH 40 0
BBX 53 40 -6 -8
BITMAP
00000000000000
00000000000000
00000000000000
00000000000000
000001fc000000
000001fc000000
000003f8000000
000003f8000000
000003f8000000
000007f0000000
000007f0000000
000007f0000000
00000fe0000000
00000fe0000000
00000fe0000000
00001fc0000000
00000000000000
00000000000000
00000000000000
00000000000000
00000000000000
00000000000000
00000000000000
00000000000000
00000000000000
00000000000000
00000000000000
00000000000000
00000000000000
00000000000000
00000000000000
00000000000000
00000000000000
00000000000000
00000000000000
00000000000000
00000000000000
00000000000000
00000000000000
00000000000000
ENDCHAR
STARTCHAR U+201A
ENCODING 8218
SWIDTH 1000 0
DWIDTH 40 0
BBX 53 40 -6 -8
BITMAP
00000000000000
00000000000000
00000000000000
00000000000000
00000000000000
00000000000000
00000000000000
00000000000000
00000000000000
00000000000000
00000000000000
00000000000000
00000000000000
00000000000000
00000000000000
00000000000000
00000000000000
00000000000000
00000000000000
00000000000000
00003f80000000
00007f00000000
00007f00000000
00007f00000000
0000fe00000000
0000fe00000000
0000fe00000000
0001fc00000000
0001fc00000000
0001fc00000000
0003f800000000
0003f800000000
00000000000000
00000000000000
00000000000000
00000000000000
00000000000000
00000000000000
00000000000000
00000000000000
ENDCHAR
STARTCHAR U+2019
ENCODING 8217
SWIDTH 1000 0
DWIDTH 40 0
BBX 53 40 -6 -8
BITMAP
00000000000000
00000000000000
00000000000000
00000000000000
0001ffc0000000
0001ffc0000000
0003ff80000000
0003ff80000000
00003f80000000
00007f00000000
00007f00000000
00007f00000000
000fe000000000
000fe000000000
000fe000000000
001fc000000000
00000000000000
00000000000000
00000000000000
00000000000000
00000000000000
00000000000000
00000000000000
00000000000000
00000000000000
00000000000000
00000000000000
00000000000000
00000000000000
00000000000000
00000000000000
00000000000000
00000000000000
00000000000000
00000000000000
00000000000000
00000000000000
00000000000000
00000000000000
00000000000000
ENDCHAR
STARTCHAR U+2018
ENCODING 8216
SWIDTH 1000 0
DWIDTH 40 0
BBX 53 40 -6 -8
BITMAP
00000000000000
00000000000000
00000000000000
00000000000000
000000001fc000
000000001fc000
000000003f8000
000000003f8000
00000003f80000
00000007f00000
00000007f00000
00000007f00000
0000000ffe0000
0000000ffe0000
0000000ffe0000
0000001ffc0000
00000000000000
00000000000000
00000000000000
00000000000000
00000000000000
00000000000000
00000000000000
00000000000000
00000000000000
00000000000000
00000000000000
00000000000000
00000000000000
00000000000000
00000000000000
00000000000000
00000000000000
00000000000000
00000000000000
00000000000000
00000000000000
00000000000000
00000000000000
00000000000000
ENDCHAR
STARTCHAR U+2017
ENCODING 8215
SWIDTH 1000 0
DWIDTH 40 0
BBX 53 40 -6 -8
BITMAP
00000000000000
00000000000000
00000000000000
00000000000000
00000000000000
00000000000000
00000000000000
00000000000000
00000000000000
00000000000000
00000000000000
00000000000000
00000000000000
00000000000000
00000000000000
00000000000000
00000000000000
00000000000000
00000000000000
00000000000000
00000000000000
00000000000000
00000000000000
00000000000000
00000000000000
00000000000000
00000000000000
00000000000000
1fffffffc00000
1fffffffc00000
3fffffff800000
3fffffff800000
00000000000000
00000000000000
00000000000000
00000000000000
fffffffe000000
fffffffe000000
fffffffe000000
fffffffc000000
ENDCHAR
STARTCHAR U+2016
ENCODING 8214
SWIDTH 1000 0
DWIDTH 40 0
BBX 53 40 -6 -8
BITMAP
00000000000000
00000000000000
00000000000000
00000000000000
000001fdfc0000
000001fdfc0000
000003fbf80000
000003fbf80000
000003fbf80000
000007f7f00000
000007f7f00000
000007f7f00000
00000fefe00000
00000fefe00000
00000fefe00000
00001fdfc00000
00001fdfc00000
00001fdfc00000
00003fbf800000
00003fbf800000
00003fbf800000
00007f7f000000
00007f7f000000
00007f7f000000
0000fefe000000
0000fefe000000
0000fefe000000
0001fdfc000000
0001fdfc000000
0001fdfc000000
0003fbf8000000
0003fbf8000000
00000000000000
00000000000000
00000000000000
00000000000000
00000000000000
00000000000000
00000000000000
00000000000000
ENDCHAR
STARTCHAR U+2015
ENCODING 8213
SWIDTH 1000 0
DWIDTH 40 0
BBX 53 40 -6 -8
BITMAP
00000000000000
00000000000000
00000000000000
00000000000000
00000000000000
00000000000000
00000000000000
00000000000000
00000000000000
00000000000000
00000000000000
00000000000000
00000000000000
00000000000000
00000000000000
00000000000000
01ffffffffff00
01ffffffffff00
03fffffffffe00
03fffffffffe00
00000000000000
00000000000000
00000000000000
00000000000000
00000000000000
00000000000000
00000000000000
00000000000000
00000000000000
00000000000000
00000000000000
00000000000000
00000000000000
00000000000000
00000000000000
00000000000000
00000000000000
00000000000000
00000000000000
00000000000000
ENDCHAR
STARTCHAR U+2014
ENCODING 8212
SWIDTH 1000 0
DWIDTH 40 0
BBX 53 40 -6 -8
BITMAP
00000000000000
00000000000000
00000000000000
00000000000000
00000000000000
00000000000000
00000000000000
00000000000000
00000000000000
00000000000000
00000000000000
00000000000000
00000000000000
00000000000000
00000000000000
00000000000000
01fffffffc0000
01fffffffc0000
03fffffff80000
03fffffff80000
00000000000000
00000000000000
00000000000000
00000000000000
00000000000000
00000000000000
00000000000000
00000000000000
00000000000000
00000000000000
00000000000000
00000000000000
00000000000000
00000000000000
00000000000000
00000000000000
00000000000000
00000000000000
00000000000000
00000000000000
ENDCHAR
STARTCHAR U+2013
ENCODING 8211
SWIDTH 1000 0
DWIDTH 40 0
BBX 53 40 -6 -8
BITMAP
00000000000000
00000000000000
00000000000000
00000000000000
00000000000000
00000000000000
00000000000000
00000000000000
00000000000000
00000000000000
00000000000000
00000000000000
00000000000000
00000000000000
00000000000000
00000000000000
0001ffffc00000
0001ffffc00000
0003ffff800000
0003ffff800000
00000000000000
00000000000000
00000000000000
00000000000000
00000000000000
00000000000000
00000000000000
00000000000000
00000000000000
00000000000000
00000000000000
00000000000000
00000000000000
00000000000000
00000000000000
00000000000000
00000000000000
00000000000000
00000000000000
00000000000000
ENDCHAR
STARTCHAR U+2012
ENCODING 8210
SWIDTH 1000 0
DWIDTH 40 0
BBX 53 40 -6 -8
BITMAP
00000000000000
00000000000000
00000000000000
00000000000000
00000000000000
00000000000000
00000000000000
00000000000000
00000000000000
00000000000000
00000000000000
00000000000000
00000000000000
00000000000000
00000000000000
00000000000000
001fffffc00000
001fffffc00000
003fffff800000
003fffff800000
00000000000000
00000000000000
00000000000000
00000000000000
00000000000000
00000000000000
00000000000000
00000000000000
00000000000000
00000000000000
00000000000000
00000000000000
00000000000000
00000000000000
00000000000000
00000000000000
00000000000000
00000000000000
00000000000000
00000000000000
ENDCHAR
STARTCHAR U+2011
ENCODING 8209
SWIDTH 1000 0
DWIDTH 40 0
BBX 53 40 -6 -8
BITMAP
00000000000000
00000000000000
00000000000000
00000000000000
00000000000000
00000000000000
00000000000000
00000000000000
00000000000000
00000000000000
00000000000000
00000000000000
00000000000000
00000000000000
00000000000000
00000000000000
0001fffc000000
0001fffc000000
0003fff8000000
0003fff8000000
00000000000000
00000000000000
00000000000000
00000000000000
00000000000000
00000000000000
00000000000000
00000000000000
00000000000000
00000000000000
00000000000000
00000000000000
00000000000000
00000000000000
00000000000000
00000000000000
00000000000000
00000000000000
00000000000000
00000000000000
ENDCHAR
STARTCHAR U+2010
ENCODING 8208
SWIDTH 1000 0
DWIDTH 40 0
BBX 53 40 -6 -8
BITMAP
00000000000000
00000000000000
00000000000000
00000000000000
00000000000000
00000000000000
00000000000000
00000000000000
00000000000000
00000000000000
00000000000000
00000000000000
00000000000000
00000000000000
00000000000000
00000000000000
0001fffc000000
0001fffc000000
0003fff8000000
0003fff8000000
00000000000000
00000000000000
00000000000000
00000000000000
00000000000000
00000000000000
00000000000000
00000000000000
00000000000000
00000000000000
00000000000000
00000000000000
00000000000000
00000000000000
00000000000000
00000000000000
00000000000000
00000000000000
00000000000000
00000000000000
ENDCHAR
STARTCHAR U+007F
ENCODING 127
SWIDTH 1000 0
DWIDTH 40 0
BBX 53 40 -6 -8
BITMAP
00000000000000
00000000000000
00000000000000
00000000000000
001fffc0000000
001fffc0000000
003fff80000000
003fff80000000
003f83f8000000
007f07f0000000
007f07f0000000
007f07f0000000
00fe0fe0000000
00fe0fe0000000
00fe0fe0000000
01fc1fc0000000
01fc1fc0000000
01fc1fc0000000
03f83f80000000
03f83f80000000
03fffff8000000
07fffff0000000
07fffff0000000
07fffff0000000
000fe000000000
000fe000000000
000fe000000000
001fc000000000
001fc000000000
001fc000000000
003f8000000000
003f8000000000
003f8000000000
007f0000000000
007f0000000000
007f0000000000
00fe0000000000
00fe0000000000
00fe0000000000
01fc0000000000
ENDCHAR
STARTCHAR U+007E
ENCODING 126
SWIDTH 1000 0
DWIDTH 40 0
BBX 53 40 -6 -8
BITMAP
00000000000000
00000000000000
00000000000000
00000000000000
0001ffc01fc000
0001ffc01fc000
0003ff803f8000
0003ff803f8000
003f83f83f8000
007f07f07f0000
007f07f07f0000
007f07f07f0000
00fe00ffe00000
00fe00ffe00000
00fe00ffe00000
01fc01ffc00000
00000000000000
00000000000000
00000000000000
00000000000000
00000000000000
00000000000000
00000000000000
00000000000000
00000000000000
00000000000000
00000000000000
00000000000000
00000000000000
00000000000000
00000000000000
00000000000000
00000000000000
00000000000000
00000000000000
00000000000000
00000000000000
00000000000000
00000000000000
00000000000000
ENDCHAR
STARTCHAR U+007D
ENCODING 125
SWIDTH 1000 0
DWIDTH 40 0
BBX 53 40 -6 -8
BITMAP
00000000000000
00000000000000
00000000000000
00000000000000
001fffc0000000
001fffc0000000
003fff80000000
003fff80000000
000003f8000000
000007f0000000
000007f0000000
000007f0000000
0000fe00000000
0000fe00000000
0000fe00000000
0001fc00000000
00001ffc000000
00001ffc000000
00003ff8000000
00003ff8000000
0003f800000000
0007f000000000
0007f000000000
0007f000000000
0000fe00000000
0000fe00000000
0000fe00000000
0001fc00000000
1fffc000000000
1fffc000000000
3fff8000000000
3fff8000000000
00000000000000
00000000000000
00000000000000
00000000000000
00000000000000
00000000000000
00000000000000
00000000000000
ENDCHAR
STARTCHAR U+007C
ENCODING 124
SWIDTH 1000 0
DWIDTH 40 0
BBX 53 40 -6 -8
BITMAP
00000000000000
00000000000000
00000000000000
00000000000000
000001fc000000
000001fc000000
000003f8000000
000003f8000000
000003f8000000
000007f0000000
000007f0000000
000007f0000000
00000fe0000000
00000fe0000000
00000fe0000000
00001fc0000000
00001fc0000000
00001fc0000000
00003f80000000
00003f80000000
00003f80000000
00007f00000000
00007f00000000
00007f00000000
0000fe00000000
0000fe00000000
0000fe00000000
0001fc00000000
0001fc00000000
0001fc00000000
0003f800000000
0003f800000000
00000000000000
00000000000000
00000000000000
00000000000000
00000000000000
00000000000000
00000000000000
00000000000000
ENDCHAR
STARTCHAR U+007B
ENCODING 123
SWIDTH 1000 0
DWIDTH 40 0
BBX 53 40 -6 -8
BITMAP
00000000000000
00000000000000
00000000000000
00000000000000
0000001fffc000
0000001fffc000
0000003fff8000
0000003fff8000
000003f8000000
000007f0000000
000007f0000000
000007f0000000
000000fe000000
000000fe000000
000000fe000000
000001fc000000
0001ffc0000000
0001ffc0000000
0003ff80000000
0003ff80000000
000003f8000000
000007f0000000
000007f0000000
000007f0000000
0000fe00000000
0000fe00000000
0000fe00000000
0001fc00000000
00001fffc00000
00001fffc00000
00003fff800000
00003fff800000
00000000000000
00000000000000
00000000000000
00000000000000
00000000000000
00000000000000
00000000000000
00000000000000
ENDCHAR
STARTCHAR U+007A
ENCODING 122
SWIDTH 1000 0
DWIDTH 40 0
BBX 53 40 -6 -8
BITMAP
00000000000000
00000000000000
00000000000000
00000000000000
00000000000000
00000000000000
00000000000000
00000000000000
00000000000000
00000000000000
00000000000000
00000000000000
00fffffffe0000
00fffffffe0000
00fffffffe0000
01fffffffc0000
0000001fc00000
0000001fc00000
0000003f800000
0000003f800000
00003ff8000000
00007ff0000000
00007ff0000000
00007ff0000000
000fe000000000
000fe000000000
000fe000000000
001fc000000000
1fffffffc00000
1fffffffc00000
3fffffff800000
3fffffff800000
00000000000000
00000000000000
00000000000000
00000000000000
00000000000000
00000000000000
00000000000000
00000000000000
ENDCHAR
STARTCHAR U+0079
ENCODING 121
SWIDTH 1000 0
DWIDTH 40 0
BBX 53 40 -6 -8
BITMAP
00000000000000
00000000000000
00000000000000
00000000000000
00000000000000
00000000000000
00000000000000
00000000000000
00000000000000
00000000000000
00000000000000
00000000000000
00fe000fe00000
00fe000fe00000
00fe000fe00000
01fc001fc00000
01fc001fc00000
01fc001fc00000
03f8003f800000
03f8003f800000
03f803ff800000
07f007ff000000
07f007ff000000
07f007ff000000
00fffefe000000
00fffefe000000
00fffefe000000
01fffdfc000000
000001fc000000
000001fc000000
000003f8000000
000003f8000000
3f8003f8000000
7f0007f0000000
7f0007f0000000
7f0007f0000000
0ffffe00000000
0ffffe00000000
0ffffe00000000
1ffffc00000000
ENDCHAR
STARTCHAR U+0078
ENCODING 120
SWIDTH 1000 0
DWIDTH 40 0
BBX 53 40 -6 -8
BITMAP
00000000000000
00000000000000
00000000000000
00000000000000
00000000000000
00000000000000
00000000000000
00000000000000
00000000000000
00000000000000
00000000000000
00000000000000
00fe000fe00000
00fe000fe00000
00fe000fe00000
01fc001fc00000
001fc1fc000000
001fc1fc000000
003f83f8000000
003f83f8000000
0003ff80000000
0007ff00000000
0007ff00000000
0007ff00000000
00fe0fe0000000
00fe0fe0000000
00fe0fe0000000
01fc1fc0000000
1fc001fc000000
1fc001fc000000
3f8003f8000000
3f8003f8000000
00000000000000
00000000000000
00000000000000
00000000000000
00000000000000
00000000000000
00000000000000
00000000000000
ENDCHAR
STARTCHAR U+0077
ENCODING 119
SWIDTH 1000 0
DWIDTH 40 0
BBX 53 40 -6 -8
BITMAP
00000000000000
00000000000000
00000000000000
00000000000000
00000000000000
00000000000000
00000000000000
00000000000000
00000000000000
00000000000000
00000000000000
00000000000000
00fe0000fe0000
00fe0000fe0000
00fe0000fe0000
01fc0001fc0000
01fc0001fc0000
01fc0001fc0000
03f80003f80000
03f80003f80000
03f83f83f80000
07f07f07f00000
07f07f07f00000
07f07f07f00000
0fefefefe00000
0fefefefe00000
0fefefefe00000
1fdfdfdfc00000
01fc01fc000000
01fc01fc000000
03f803f8000000
03f803f8000000
00000000000000
00000000000000
00000000000000
00000000000000
00000000000000
00000000000000
00000000000000
00000000000000
ENDCHAR
STARTCHAR U+0076
ENCODING 118
SWIDTH 1000 0
DWIDTH 40 0
BBX 53 40 -6 -8
BITMAP
00000000000000
00000000000000
00000000000000
00000000000000
00000000000000
00000000000000
00000000000000
00000000000000
00000000000000
00000000000000
00000000000000
00000000000000
00fe0000fe0000
00fe0000fe0000
00fe0000fe0000
01fc0001fc0000
01fc0001fc0000
01fc0001fc0000
03f80003f80000
03f80003f80000
003f803f800000
007f007f000000
007f007f000000
007f007f000000
000fefe0000000
000fefe0000000
000fefe0000000
001fdfc0000000
0001fc00000000
0001fc00000000
0003f800000000
0003f800000000
00000000000000
00000000000000
00000000000000
00000000000000
00000000000000
00000000000000
00000000000000
00000000000000
ENDCHAR
STARTCHAR U+0075
ENCODING 117
SWIDTH 1000 0
DWIDTH 40 0
BBX 53 40 -6 -8
BITMAP
00000000000000
00000000000000
00000000000000
00000000000000
00000000000000
00000000000000
00000000000000
00000000000000
00000000000000
00000000000000
00000000000000
00000000000000
00fe000fe00000
00fe000fe00000
00fe000fe00000
01fc001fc00000
01fc001fc00000
01fc001fc00000
03f8003f800000
03f8003f800000
03f8003f800000
07f0007f000000
07f0007f000000
07f0007f000000
0fe000fe000000
0fe000fe000000
0fe000fe000000
1fc001fc000000
01ffffdfc00000
01ffffdfc00000
03ffffbf800000
03ffffbf800000
00000000000000
00000000000000
00000000000000
00000000000000
00000000000000
00000000000000
00000000000000
00000000000000
ENDCHAR
STARTCHAR U+0074
ENCODING 116
SWIDTH 1000 0
DWIDTH 40 0
BBX 53 40 -6 -8
BITMAP
00000000000000
00000000000000
00000000000000
00000000000000
00001fc0000000
00001fc0000000
00003f80000000
00003f80000000
00003f80000000
00007f00000000
00007f00000000
00007f00000000
00fffffe000000
00fffffe000000
00fffffe000000
01fffffc000000
0001fc00000000
0001fc00000000
0003f800000000
0003f800000000
0003f800000000
0007f000000000
0007f000000000
0007f000000000
000fe0fe000000
000fe0fe000000
000fe0fe000000
001fc1fc000000
0001ffc0000000
0001ffc0000000
0003ff80000000
0003ff80000000
00000000000000
00000000000000
00000000000000
00000000000000
00000000000000
00000000000000
00000000000000
00000000000000
ENDCHAR
STARTCHAR U+0073
ENCODING 115
SWIDTH 1000 0
DWIDTH 40 0
BBX 53 40 -6 -8
BITMAP
00000000000000
00000000000000
00000000000000
00000000000000
00000000000000
00000000000000
00000000000000
00000000000000
00000000000000
00000000000000
00000000000000
00000000000000
000fffffe00000
000fffffe00000
000fffffe00000
001fffffc00000
01fc0000000000
01fc0000000000
03f80000000000
03f80000000000
003fffff800000
007fffff000000
007fffff000000
007fffff000000
0000000fe00000
0000000fe00000
0000000fe00000
0000001fc00000
1ffffffc000000
1ffffffc000000
3ffffff8000000
3ffffff8000000
00000000000000
00000000000000
00000000000000
00000000000000
00000000000000
00000000000000
00000000000000
00000000000000
ENDCHAR
STARTCHAR U+0072
ENCODING 114
SWIDTH 1000 0
DWIDTH 40 0
BBX 53 40 -6 -8
BITMAP
00000000000000
00000000000000
00000000000000
00000000000000
00000000000000
00000000000000
00000000000000
00000000000000
00000000000000
00000000000000
00000000000000
00000000000000
00fe0fffe00000
00fe0fffe00000
00fe0fffe00000
01fc1fffc00000
001ffc01fc0000
001ffc01fc0000
003ff803f80000
003ff803f80000
003f8000000000
007f0000000000
007f0000000000
007f0000000000
00fe0000000000
00fe0000000000
00fe0000000000
01fc0000000000
01fc0000000000
01fc0000000000
03f80000000000
03f80000000000
00000000000000
00000000000000
00000000000000
00000000000000
00000000000000
00000000000000
00000000000000
00000000000000
ENDCHAR
STARTCHAR U+0071
ENCODING 113
SWIDTH 1000 0
DWIDTH 40 0
BBX 53 40 -6 -8
BITMAP
00000000000000
00000000000000
00000000000000
00000000000000
00000000000000
00000000000000
00000000000000
00000000000000
00000000000000
00000000000000
00000000000000
00000000000000
000ffffefe0000
000ffffefe0000
000ffffefe0000
001ffffdfc0000
01fc001ffc0000
01fc001ffc0000
03f8003ff80000
03f8003ff80000
03f8003ff80000
07f0007ff00000
07f0007ff00000
07f0007ff00000
00ffffefe00000
00ffffefe00000
00ffffefe00000
01ffffdfc00000
0000001fc00000
0000001fc00000
0000003f800000
0000003f800000
0000003f800000
0000007f000000
0000007f000000
0000007f000000
000000fe000000
000000fe000000
000000fe000000
000001fc000000
ENDCHAR
STARTCHAR U+0070
ENCODING 112
SWIDTH 1000 0
DWIDTH 40 0
BBX 53 40 -6 -8
BITMAP
00000000000000
00000000000000
00000000000000
00000000000000
00000000000000
00000000000000
00000000000000
00000000000000
00000000000000
00000000000000
00000000000000
00000000000000
00feffffe00000
00feffffe00000
00feffffe00000
01fdffffc00000
01ffc001fc0000
01ffc001fc0000
03ff8003f80000
03ff8003f80000
03ff8003f80000
07ff0007f00000
07ff0007f00000
07ff0007f00000
0feffffe000000
0feffffe000000
0feffffe000000
1fdffffc000000
1fc00000000000
1fc00000000000
3f800000000000
3f800000000000
3f800000000000
7f000000000000
7f000000000000
7f000000000000
fe000000000000
fe000000000000
fe000000000000
fc000000000000
ENDCHAR
STARTCHAR U+006f
ENCODING 111
SWIDTH 1000 0
DWIDTH 40 0
BBX 53 40 -6 -8
BITMAP
00000000000000
00000000000000
00000000000000
00000000000000
00000000000000
00000000000000
00000000000000
00000000000000
00000000000000
00000000000000
00000000000000
00000000000000
000fffffe00000
000fffffe00000
000fffffe00000
001fffffc00000
01fc0001fc0000
01fc0001fc0000
03f80003f80000
03f80003f80000
03f80003f80000
07f00007f00000
07f00007f00000
07f00007f00000
0fe0000fe00000
0fe0000fe00000
0fe0000fe00000
1fc0001fc00000
01fffffc000000
01fffffc000000
03fffff8000000
03fffff8000000
00000000000000
00000000000000
00000000000000
00000000000000
00000000000000
00000000000000
00000000000000
00000000000000
ENDCHAR
STARTCHAR U+006e
ENCODING 110
SWIDTH 1000 0
DWIDTH 40 0
BBX 53 40 -6 -8
BITMAP
00000000000000
00000000000000
00000000000000
00000000000000
00000000000000
00000000000000
00000000000000
00000000000000
00000000000000
00000000000000
00000000000000
00000000000000
00feffffe00000
00feffffe00000
00feffffe00000
01fdffffc00000
01ffc001fc0000
01ffc001fc0000
03ff8003f80000
03ff8003f80000
03f80003f80000
07f00007f00000
07f00007f00000
07f00007f00000
0fe0000fe00000
0fe0000fe00000
0fe0000fe00000
1fc0001fc00000
1fc0001fc00000
1fc0001fc00000
3f80003f800000
3f80003f800000
00000000000000
00000000000000
00000000000000
00000000000000
00000000000000
00000000000000
00000000000000
00000000000000
ENDCHAR
STARTCHAR U+006d
ENCODING 109
SWIDTH 1000 0
DWIDTH 40 0
BBX 53 40 -6 -8
BITMAP
00000000000000
00000000000000
00000000000000
00000000000000
00000000000000
00000000000000
00000000000000
00000000000000
00000000000000
00000000000000
00000000000000
00000000000000
00ffe00fe00000
00ffe00fe00000
00ffe00fe00000
01ffc01fc00000
01fdfdfdfc0000
01fdfdfdfc0000
03fbfbfbf80000
03fbfbfbf80000
03f83f83f80000
07f07f07f00000
07f07f07f00000
07f07f07f00000
0fe0fe0fe00000
0fe0fe0fe00000
0fe0fe0fe00000
1fc1fc1fc00000
1fc0001fc00000
1fc0001fc00000
3f80003f800000
3f80003f800000
00000000000000
00000000000000
00000000000000
00000000000000
00000000000000
00000000000000
00000000000000
00000000000000
ENDCHAR
STARTCHAR U+006c
ENCODING 108
SWIDTH 1000 0
DWIDTH 40 0
BBX 53 40 -6 -8
BITMAP
00000000000000
00000000000000
00000000000000
00000000000000
00001ffc000000
00001ffc000000
00003ff8000000
00003ff8000000
000003f8000000
000007f0000000
000007f0000000
000007f0000000
00000fe0000000
00000fe0000000
00000fe0000000
00001fc0000000
00001fc0000000
00001fc0000000
00003f80000000
00003f80000000
00003f80000000
00007f00000000
00007f00000000
00007f00000000
0000fe00000000
0000fe00000000
0000fe00000000
0001fc00000000
001fffc0000000
001fffc0000000
003fff80000000
003fff80000000
00000000000000
00000000000000
00000000000000
00000000000000
00000000000000
00000000000000
00000000000000
00000000000000
ENDCHAR
STARTCHAR U+006b
ENCODING 107
SWIDTH 1000 0
DWIDTH 40 0
BBX 53 40 -6 -8
BITMAP
00000000000000
00000000000000
00000000000000
00000000000000
001fc000000000
001fc000000000
003f8000000000
003f8000000000
003f8000000000
007f0000000000
007f0000000000
007f0000000000
00fe00fe000000
00fe00fe000000
00fe00fe000000
01fc01fc000000
01fc1fc0000000
01fc1fc0000000
03f83f80000000
03f83f80000000
03fff800000000
07fff000000000
07fff000000000
07fff000000000
0fe00fe0000000
0fe00fe0000000
0fe00fe0000000
1fc01fc0000000
1fc0001fc00000
1fc0001fc00000
3f80003f800000
3f80003f800000
00000000000000
00000000000000
00000000000000
00000000000000
00000000000000
00000000000000
00000000000000
00000000000000
ENDCHAR
STARTCHAR U+006a
ENCODING 106
SWIDTH 1000 0
DWIDTH 40 0
BBX 53 40 -6 -8
BITMAP
00000000000000
00000000000000
00000000000000
00000000000000
00000001fc0000
00000001fc0000
00000003f80000
00000003f80000
00000000000000
00000000000000
00000000000000
00000000000000
0000000fe00000
0000000fe00000
0000000fe00000
0000001fc00000
0000001fc00000
0000001fc00000
0000003f800000
0000003f800000
0000003f800000
0000007f000000
0000007f000000
0000007f000000
000000fe000000
000000fe000000
000000fe000000
000001fc000000
1fc001fc000000
1fc001fc000000
3f8003f8000000
3f8003f8000000
3f8003f8000000
7f0007f0000000
7f0007f0000000
7f0007f0000000
0ffffe00000000
0ffffe00000000
0ffffe00000000
1ffffc00000000
ENDCHAR
STARTCHAR U+0069
ENCODING 105
SWIDTH 1000 0
DWIDTH 40 0
BBX 53 40 -6 -8
BITMAP
00000000000000
00000000000000
00000000000000
00000000000000
000001fc000000
000001fc000000
000003f8000000
000003f8000000
00000000000000
00000000000000
00000000000000
00000000000000
0000ffe0000000
0000ffe0000000
0000ffe0000000
0001ffc0000000
00001fc0000000
00001fc0000000
00003f80000000
00003f80000000
00003f80000000
00007f00000000
00007f00000000
00007f00000000
0000fe00000000
0000fe00000000
0000fe00000000
0001fc00000000
01fffffc000000
01fffffc000000
03fffff8000000
03fffff8000000
00000000000000
00000000000000
00000000000000
00000000000000
00000000000000
00000000000000
00000000000000
00000000000000
ENDCHAR
STARTCHAR U+0068
ENCODING 104
SWIDTH 1000 0
DWIDTH 40 0
BBX 53 40 -6 -8
BITMAP
00000000000000
00000000000000
00000000000000
00000000000000
001fc000000000
001fc000000000
003f8000000000
003f8000000000
003f8000000000
007f0000000000
007f0000000000
007f0000000000
00feffffe00000
00feffffe00000
00feffffe00000
01fdffffc00000
01ffc001fc0000
01ffc001fc0000
03ff8003f80000
03ff8003f80000
03f80003f80000
07f00007f00000
07f00007f00000
07f00007f00000
0fe0000fe00000
0fe0000fe00000
0fe0000fe00000
1fc0001fc00000
1fc0001fc00000
1fc0001fc00000
3f80003f800000
3f80003f800000
00000000000000
00000000000000
00000000000000
00000000000000
00000000000000
00000000000000
00000000000000
00000000000000
ENDCHAR
STARTCHAR U+0067
ENCODING 103
SWIDTH 1000 0
DWIDTH 40 0
BBX 53 40 -6 -8
BITMAP
00000000000000
00000000000000
00000000000000
00000000000000
00000000000000
00000000000000
00000000000000
00000000000000
00000000000000
00000000000000
00000000000000
00000000000000
000ffffefe0000
000ffffefe0000
000ffffefe0000
001ffffdfc0000
01fc001fc00000
01fc001fc00000
03f8003f800000
03f8003f800000
003ffff8000000
007ffff0000000
007ffff0000000
007ffff0000000
0fe00000000000
0fe00000000000
0fe00000000000
1fc00000000000
01fffffc000000
01fffffc000000
03fffff8000000
03fffff8000000
3f80003f800000
7f00007f000000
7f00007f000000
7f00007f000000
0fffffe0000000
0fffffe0000000
0fffffe0000000
1fffffc0000000
ENDCHAR
STARTCHAR U+0066
ENCODING 102
SWIDTH 1000 0
DWIDTH 40 0
BBX 53 40 -6 -8
BITMAP
00000000000000
00000000000000
00000000000000
00000000000000
000001fffc0000
000001fffc0000
000003fff80000
000003fff80000
00003f803f8000
00007f007f0000
00007f007f0000
00007f007f0000
0000fe00000000
0000fe00000000
0000fe00000000
0001fc00000000
01fffffc000000
01fffffc000000
03fffff8000000
03fffff8000000
0003f800000000
0007f000000000
0007f000000000
0007f000000000
000fe000000000
000fe000000000
000fe000000000
001fc000000000
001fc000000000
001fc000000000
003f8000000000
003f8000000000
00000000000000
00000000000000
00000000000000
00000000000000
00000000000000
00000000000000
00000000000000
00000000000000
ENDCHAR
STARTCHAR U+0065
ENCODING 101
SWIDTH 1000 0
DWIDTH 40 0
BBX 53 40 -6 -8
BITMAP
00000000000000
00000000000000
00000000000000
00000000000000
00000000000000
00000000000000
00000000000000
00000000000000
00000000000000
00000000000000
00000000000000
00000000000000
000fffffe00000
000fffffe00000
000fffffe00000
001fffffc00000
01fc0001fc0000
01fc0001fc0000
03f80003f80000
03f80003f80000
03fffffff80000
07fffffff00000
07fffffff00000
07fffffff00000
0fe00000000000
0fe00000000000
0fe00000000000
1fc00000000000
01fffffc000000
01fffffc000000
03fffff8000000
03fffff8000000
00000000000000
00000000000000
00000000000000
00000000000000
00000000000000
00000000000000
00000000000000
00000000000000
ENDCHAR
STARTCHAR U+0064
ENCODING 100
SWIDTH 1000 0
DWIDTH 40 0
BBX 53 40 -6 -8
BITMAP
00000000000000
00000000000000
00000000000000
00000000000000
000000001fc000
000000001fc000
000000003f8000
000000003f8000
000000003f8000
000000007f0000
000000007f0000
000000007f0000
000ffffefe0000
000ffffefe0000
000ffffefe0000
001ffffdfc0000
01fc001ffc0000
01fc001ffc0000
03f8003ff80000
03f8003ff80000
03f80003f80000
07f00007f00000
07f00007f00000
07f00007f00000
0fe000ffe00000
0fe000ffe00000
0fe000ffe00000
1fc001ffc00000
01ffffdfc00000
01ffffdfc00000
03ffffbf800000
03ffffbf800000
00000000000000
00000000000000
00000000000000
00000000000000
00000000000000
00000000000000
00000000000000
00000000000000
ENDCHAR
STARTCHAR U+0063
ENCODING 99
SWIDTH 1000 0
DWIDTH 40 0
BBX 53 40 -6 -8
BITMAP
00000000000000
00000000000000
00000000000000
00000000000000
00000000000000
00000000000000
00000000000000
00000000000000
00000000000000
00000000000000
00000000000000
00000000000000
000fffffe00000
000fffffe00000
000fffffe00000
001fffffc00000
01fc0001fc0000
01fc0001fc0000
03f80003f80000
03f80003f80000
03f80000000000
07f00000000000
07f00000000000
07f00000000000
0fe00000000000
0fe00000000000
0fe00000000000
1fc00000000000
01ffffffc00000
01ffffffc00000
03ffffff800000
03ffffff800000
00000000000000
00000000000000
00000000000000
00000000000000
00000000000000
00000000000000
00000000000000
00000000000000
ENDCHAR
STARTCHAR U+0062
ENCODING 98
SWIDTH 1000 0
DWIDTH 40 0
BBX 53 40 -6 -8
BITMAP
00000000000000
00000000000000
00000000000000
00000000000000
001fc000000000
001fc000000000
003f8000000000
003f8000000000
003f8000000000
007f0000000000
007f0000000000
007f0000000000
00feffffe00000
00feffffe00000
00feffffe00000
01fdffffc00000
01ffc001fc0000
01ffc001fc0000
03ff8003f80000
03ff8003f80000
03f80003f80000
07f00007f00000
07f00007f00000
07f00007f00000
0ffe000fe00000
0ffe000fe00000
0ffe000fe00000
1ffc001fc00000
1fdffffc000000
1fdffffc000000
3fbffff8000000
3fbffff8000000
00000000000000
00000000000000
00000000000000
00000000000000
00000000000000
00000000000000
00000000000000
00000000000000
ENDCHAR
STARTCHAR U+0061
ENCODING 97
SWIDTH 1000 0
DWIDTH 40 0
BBX 53 40 -6 -8
BITMAP
00000000000000
00000000000000
00000000000000
00000000000000
00000000000000
00000000000000
00000000000000
00000000000000
00000000000000
00000000000000
00000000000000
00000000000000
000fffffe00000
000fffffe00000
000fffffe00000
001fffffc00000
00000001fc0000
00000001fc0000
00000003f80000
00000003f80000
003ffffff80000
007ffffff00000
007ffffff00000
007ffffff00000
0fe000ffe00000
0fe000ffe00000
0fe000ffe00000
1fc001ffc00000
01ffffdfc00000
01ffffdfc00000
03ffffbf800000
03ffffbf800000
00000000000000
00000000000000
00000000000000
00000000000000
00000000000000
00000000000000
00000000000000
00000000000000
ENDCHAR
STARTCHAR U+0060
ENCODING 96
SWIDTH 1000 0
DWIDTH 40 0
BBX 53 40 -6 -8
BITMAP
00000000000000
00000000000000
00000000000000
00000000000000
00001ffc000000
00001ffc000000
00003ff8000000
00003ff8000000
000003f8000000
000007f0000000
000007f0000000
000007f0000000
000000fe000000
000000fe000000
000000fe000000
000001fc000000
00000000000000
00000000000000
00000000000000
00000000000000
00000000000000
00000000000000
00000000000000
00000000000000
00000000000000
00000000000000
00000000000000
00000000000000
00000000000000
00000000000000
00000000000000
00000000000000
00000000000000
00000000000000
00000000000000
00000000000000
00000000000000
00000000000000
00000000000000
00000000000000
ENDCHAR
STARTCHAR U+005F
ENCODING 95
SWIDTH 1000 0
DWIDTH 40 0
BBX 53 40 -6 -8
BITMAP
00000000000000
00000000000000
00000000000000
00000000000000
00000000000000
00000000000000
00000000000000
00000000000000
00000000000000
00000000000000
00000000000000
00000000000000
00000000000000
00000000000000
00000000000000
00000000000000
00000000000000
00000000000000
00000000000000
00000000000000
00000000000000
00000000000000
00000000000000
00000000000000
00000000000000
00000000000000
00000000000000
00000000000000
1fffffffc00000
1fffffffc00000
3fffffff800000
3fffffff800000
00000000000000
00000000000000
00000000000000
00000000000000
00000000000000
00000000000000
00000000000000
00000000000000
ENDCHAR
STARTCHAR U+005E
ENCODING 94
SWIDTH 1000 0
DWIDTH 40 0
BBX 53 40 -6 -8
BITMAP
00000000000000
00000000000000
00000000000000
00000000000000
000001fc000000
000001fc000000
000003f8000000
000003f8000000
00003fbf800000
00007f7f000000
00007f7f000000
00007f7f000000
000fe00fe00000
000fe00fe00000
000fe00fe00000
001fc01fc00000
01fc0001fc0000
01fc0001fc0000
03f80003f80000
03f80003f80000
00000000000000
00000000000000
00000000000000
00000000000000
00000000000000
00000000000000
00000000000000
00000000000000
00000000000000
00000000000000
00000000000000
00000000000000
00000000000000
00000000000000
00000000000000
00000000000000
00000000000000
00000000000000
00000000000000
00000000000000
ENDCHAR
STARTCHAR U+005D
ENCODING 93
SWIDTH 1000 0
DWIDTH 40 0
BBX 53 40 -6 -8
BITMAP
00000000000000
00000000000000
00000000000000
00000000000000
0001ffffc00000
0001ffffc00000
0003ffff800000
0003ffff800000
0000003f800000
0000007f000000
0000007f000000
0000007f000000
000000fe000000
000000fe000000
000000fe000000
000001fc000000
000001fc000000
000001fc000000
000003f8000000
000003f8000000
000003f8000000
000007f0000000
000007f0000000
000007f0000000
00000fe0000000
00000fe0000000
00000fe0000000
00001fc0000000
01ffffc0000000
01ffffc0000000
03ffff80000000
03ffff80000000
00000000000000
00000000000000
00000000000000
00000000000000
00000000000000
00000000000000
00000000000000
00000000000000
ENDCHAR
STARTCHAR U+005C
ENCODING 92
SWIDTH 1000 0
DWIDTH 40 0
BBX 53 40 -6 -8
BITMAP
00000000000000
00000000000000
00000000000000
00000000000000
001fc000000000
001fc000000000
003f8000000000
003f8000000000
0003f800000000
0007f000000000
0007f000000000
0007f000000000
0000fe00000000
0000fe00000000
0000fe00000000
0001fc00000000
00001fc0000000
00001fc0000000
00003f80000000
00003f80000000
000003f8000000
000007f0000000
000007f0000000
000007f0000000
000000fe000000
000000fe000000
000000fe000000
000001fc000000
0000001fc00000
0000001fc00000
0000003f800000
0000003f800000
00000000000000
00000000000000
00000000000000
00000000000000
00000000000000
00000000000000
00000000000000
00000000000000
ENDCHAR
STARTCHAR U+005B
ENCODING 91
SWIDTH 1000 0
DWIDTH 40 0
BBX 53 40 -6 -8
BITMAP
00000000000000
00000000000000
00000000000000
00000000000000
00001ffffc0000
00001ffffc0000
00003ffff80000
00003ffff80000
00003f80000000
00007f00000000
00007f00000000
00007f00000000
0000fe00000000
0000fe00000000
0000fe00000000
0001fc00000000
0001fc00000000
0001fc00000000
0003f800000000
0003f800000000
0003f800000000
0007f000000000
0007f000000000
0007f000000000
000fe000000000
000fe000000000
000fe000000000
001fc000000000
001ffffc000000
001ffffc000000
003ffff8000000
003ffff8000000
00000000000000
00000000000000
00000000000000
00000000000000
00000000000000
00000000000000
00000000000000
00000000000000
ENDCHAR
STARTCHAR U+005A
ENCODING 90
SWIDTH 1000 0
DWIDTH 40 0
BBX 53 40 -6 -8
BITMAP
00000000000000
00000000000000
00000000000000
00000000000000
001fffffffc000
001fffffffc000
003fffffff8000
003fffffff8000
00000003f80000
00000007f00000
00000007f00000
00000007f00000
000000fe000000
000000fe000000
000000fe000000
000001fc000000
00001fc0000000
00001fc0000000
00003f80000000
00003f80000000
0003f800000000
0007f000000000
0007f000000000
0007f000000000
00fe0000000000
00fe0000000000
00fe0000000000
01fc0000000000
1fffffffc00000
1fffffffc00000
3fffffff800000
3fffffff800000
00000000000000
00000000000000
00000000000000
00000000000000
00000000000000
00000000000000
00000000000000
00000000000000
ENDCHAR
STARTCHAR U+0059
ENCODING 89
SWIDTH 1000 0
DWIDTH 40 0
BBX 53 40 -6 -8
BITMAP
00000000000000
00000000000000
00000000000000
00000000000000
001fc0001fc000
001fc0001fc000
003f80003f8000
003f80003f8000
0003f803f80000
0007f007f00000
0007f007f00000
0007f007f00000
0000fefe000000
0000fefe000000
0000fefe000000
0001fdfc000000
00001fc0000000
00001fc0000000
00003f80000000
00003f80000000
00003f80000000
00007f00000000
00007f00000000
00007f00000000
0000fe00000000
0000fe00000000
0000fe00000000
0001fc00000000
0001fc00000000
0001fc00000000
0003f800000000
0003f800000000
00000000000000
00000000000000
00000000000000
00000000000000
00000000000000
00000000000000
00000000000000
00000000000000
ENDCHAR
STARTCHAR U+0058
ENCODING 88
SWIDTH 1000 0
DWIDTH 40 0
BBX 53 40 -6 -8
BITMAP
00000000000000
00000000000000
00000000000000
00000000000000
001fc0001fc000
001fc0001fc000
003f80003f8000
003f80003f8000
0003f803f80000
0007f007f00000
0007f007f00000
0007f007f00000
0000fefe000000
0000fefe000000
0000fefe000000
0001fdfc000000
00001fc0000000
00001fc0000000
00003f80000000
00003f80000000
0003fbf8000000
0007f7f0000000
0007f7f0000000
0007f7f0000000
00fe00fe000000
00fe00fe000000
00fe00fe000000
01fc01fc000000
1fc0001fc00000
1fc0001fc00000
3f80003f800000
3f80003f800000
00000000000000
00000000000000
00000000000000
00000000000000
00000000000000
00000000000000
00000000000000
00000000000000
ENDCHAR
STARTCHAR U+0057
ENCODING 87
SWIDTH 1000 0
DWIDTH 40 0
BBX 53 40 -6 -8
BITMAP
00000000000000
00000000000000
00000000000000
00000000000000
001fc0001fc000
001fc0001fc000
003f80003f8000
003f80003f8000
003f80003f8000
007f00007f0000
007f00007f0000
007f00007f0000
00fe0000fe0000
00fe0000fe0000
00fe0000fe0000
01fc0001fc0000
01fc1fc1fc0000
01fc1fc1fc0000
03f83f83f80000
03f83f83f80000
03f83f83f80000
07f07f07f00000
07f07f07f00000
07f07f07f00000
0fefefefe00000
0fefefefe00000
0fefefefe00000
1fdfdfdfc00000
01fc01fc000000
01fc01fc000000
03f803f8000000
03f803f8000000
00000000000000
00000000000000
00000000000000
00000000000000
00000000000000
00000000000000
00000000000000
00000000000000
ENDCHAR
STARTCHAR U+0056
ENCODING 86
SWIDTH 1000 0
DWIDTH 40 0
BBX 53 40 -6 -8
BITMAP
00000000000000
00000000000000
00000000000000
00000000000000
001fc0001fc000
001fc0001fc000
003f80003f8000
003f80003f8000
003f80003f8000
007f00007f0000
007f00007f0000
007f00007f0000
000fe00fe00000
000fe00fe00000
000fe00fe00000
001fc01fc00000
001fc01fc00000
001fc01fc00000
003f803f800000
003f803f800000
0003fbf8000000
0007f7f0000000
0007f7f0000000
0007f7f0000000
000fefe0000000
000fefe0000000
000fefe0000000
001fdfc0000000
0001fc00000000
0001fc00000000
0003f800000000
0003f800000000
00000000000000
00000000000000
00000000000000
00000000000000
00000000000000
00000000000000
00000000000000
00000000000000
ENDCHAR
STARTCHAR U+0055
ENCODING 85
SWIDTH 1000 0
DWIDTH 40 0
BBX 53 40 -6 -8
BITMAP
00000000000000
00000000000000
00000000000000
00000000000000
001fc0001fc000
001fc0001fc000
003f80003f8000
003f80003f8000
003f80003f8000
007f00007f0000
007f00007f0000
007f00007f0000
00fe0000fe0000
00fe0000fe0000
00fe0000fe0000
01fc0001fc0000
01fc0001fc0000
01fc0001fc0000
03f80003f80000
03f80003f80000
03f80003f80000
07f00007f00000
07f00007f00000
07f00007f00000
0fe0000fe00000
0fe0000fe00000
0fe0000fe00000
1fc0001fc00000
01fffffc000000
01fffffc000000
03fffff8000000
03fffff8000000
00000000000000
00000000000000
00000000000000
00000000000000
00000000000000
00000000000000
00000000000000
00000000000000
ENDCHAR
STARTCHAR U+0054
ENCODING 84
SWIDTH 1000 0
DWIDTH 40 0
BBX 53 40 -6 -8
BITMAP
00000000000000
00000000000000
00000000000000
00000000000000
001fffffffc000
001fffffffc000
003fffffff8000
003fffffff8000
000003f8000000
000007f0000000
000007f0000000
000007f0000000
00000fe0000000
00000fe0000000
00000fe0000000
00001fc0000000
00001fc0000000
00001fc0000000
00003f80000000
00003f80000000
00003f80000000
00007f00000000
00007f00000000
00007f00000000
0000fe00000000
0000fe00000000
0000fe00000000
0001fc00000000
0001fc00000000
0001fc00000000
0003f800000000
0003f800000000
00000000000000
00000000000000
00000000000000
00000000000000
00000000000000
00000000000000
00000000000000
00000000000000
ENDCHAR
STARTCHAR U+0053
ENCODING 83
SWIDTH 1000 0
DWIDTH 40 0
BBX 53 40 -6 -8
BITMAP
00000000000000
00000000000000
00000000000000
00000000000000
0001fffffc0000
0001fffffc0000
0003fffff80000
0003fffff80000
003f80003f8000
007f00007f0000
007f00007f0000
007f00007f0000
00fe0000000000
00fe0000000000
00fe0000000000
01fc0000000000
001fffffc00000
001fffffc00000
003fffff800000
003fffff800000
00000003f80000
00000007f00000
00000007f00000
00000007f00000
0fe0000fe00000
0fe0000fe00000
0fe0000fe00000
1fc0001fc00000
01fffffc000000
01fffffc000000
03fffff8000000
03fffff8000000
00000000000000
00000000000000
00000000000000
00000000000000
00000000000000
00000000000000
00000000000000
00000000000000
ENDCHAR
STARTCHAR U+0052
ENCODING 82
SWIDTH 1000 0
DWIDTH 40 0
BBX 53 40 -6 -8
BITMAP
00000000000000
00000000000000
00000000000000
00000000000000
001ffffffc0000
001ffffffc0000
003ffffff80000
003ffffff80000
003f80003f8000
007f00007f0000
007f00007f0000
007f00007f0000
00fe0000fe0000
00fe0000fe0000
00fe0000fe0000
01fc0001fc0000
01ffffffc00000
01ffffffc00000
03ffffff800000
03ffffff800000
03f803f8000000
07f007f0000000
07f007f0000000
07f007f0000000
0fe000fe000000
0fe000fe000000
0fe000fe000000
1fc001fc000000
1fc0001fc00000
1fc0001fc00000
3f80003f800000
3f80003f800000
00000000000000
00000000000000
00000000000000
00000000000000
00000000000000
00000000000000
00000000000000
00000000000000
ENDCHAR
STARTCHAR U+0051
ENCODING 81
SWIDTH 1000 0
DWIDTH 40 0
BBX 53 40 -6 -8
BITMAP
00000000000000
00000000000000
00000000000000
00000000000000
0001fffffc0000
0001fffffc0000
0003fffff80000
0003fffff80000
003f80003f8000
007f00007f0000
007f00007f0000
007f00007f0000
00fe0000fe0000
00fe0000fe0000
00fe0000fe0000
01fc0001fc0000
01fc0001fc0000
01fc0001fc0000
03f80003f80000
03f80003f80000
03f803fbf80000
07f007f7f00000
07f007f7f00000
07f007f7f00000
0fe000fe000000
0fe000fe000000
0fe000fe000000
1fc001fc000000
01ffffdfc00000
01ffffdfc00000
03ffffbf800000
03ffffbf800000
00000000000000
00000000000000
00000000000000
00000000000000
00000000000000
00000000000000
00000000000000
00000000000000
ENDCHAR
STARTCHAR U+0050
ENCODING 80
SWIDTH 1000 0
DWIDTH 40 0
BBX 53 40 -6 -8
BITMAP
00000000000000
00000000000000
00000000000000
00000000000000
001ffffffc0000
001ffffffc0000
003ffffff80000
003ffffff80000
003f80003f8000
007f00007f0000
007f00007f0000
007f00007f0000
00fe0000fe0000
00fe0000fe0000
00fe0000fe0000
01fc0001fc0000
01ffffffc00000
01ffffffc00000
03ffffff800000
03ffffff800000
03f80000000000
07f00000000000
07f00000000000
07f00000000000
0fe00000000000
0fe00000000000
0fe00000000000
1fc00000000000
1fc00000000000
1fc00000000000
3f800000000000
3f800000000000
00000000000000
00000000000000
00000000000000
00000000000000
00000000000000
00000000000000
00000000000000
00000000000000
ENDCHAR
STARTCHAR U+004F
ENCODING 79
SWIDTH 1000 0
DWIDTH 40 0
BBX 53 40 -6 -8
BITMAP
00000000000000
00000000000000
00000000000000
00000000000000
0001fffffc0000
0001fffffc0000
0003fffff80000
0003fffff80000
003f80003f8000
007f00007f0000
007f00007f0000
007f00007f0000
00fe0000fe0000
00fe0000fe0000
00fe0000fe0000
01fc0001fc0000
01fc0001fc0000
01fc0001fc0000
03f80003f80000
03f80003f80000
03f80003f80000
07f00007f00000
07f00007f00000
07f00007f00000
0fe0000fe00000
0fe0000fe00000
0fe0000fe00000
1fc0001fc00000
01fffffc000000
01fffffc000000
03fffff8000000
03fffff8000000
00000000000000
00000000000000
00000000000000
00000000000000
00000000000000
00000000000000
00000000000000
00000000000000
ENDCHAR
STARTCHAR U+004E
ENCODING 78
SWIDTH 1000 0
DWIDTH 40 0
BBX 53 40 -6 -8
BITMAP
00000000000000
00000000000000
00000000000000
00000000000000
001fc0001fc000
001fc0001fc000
003f80003f8000
003f80003f8000
003ff8003f8000
007ff0007f0000
007ff0007f0000
007ff0007f0000
00fefe00fe0000
00fefe00fe0000
00fefe00fe0000
01fdfc01fc0000
01fc1fc1fc0000
01fc1fc1fc0000
03f83f83f80000
03f83f83f80000
03f803fbf80000
07f007f7f00000
07f007f7f00000
07f007f7f00000
0fe000ffe00000
0fe000ffe00000
0fe000ffe00000
1fc001ffc00000
1fc0001fc00000
1fc0001fc00000
3f80003f800000
3f80003f800000
00000000000000
00000000000000
00000000000000
00000000000000
00000000000000
00000000000000
00000000000000
00000000000000
ENDCHAR
STARTCHAR U+004D
ENCODING 77
SWIDTH 1000 0
DWIDTH 40 0
BBX 53 40 -6 -8
BITMAP
00000000000000
00000000000000
00000000000000
00000000000000
001fc0001fc000
001fc0001fc000
003f80003f8000
003f80003f8000
003ff803ff8000
007ff007ff0000
007ff007ff0000
007ff007ff0000
00fefefefe0000
00fefefefe0000
00fefefefe0000
01fdfdfdfc0000
01fc1fc1fc0000
01fc1fc1fc0000
03f83f83f80000
03f83f83f80000
03f80003f80000
07f00007f00000
07f00007f00000
07f00007f00000
0fe0000fe00000
0fe0000fe00000
0fe0000fe00000
1fc0001fc00000
1fc0001fc00000
1fc0001fc00000
3f80003f800000
3f80003f800000
00000000000000
00000000000000
00000000000000
00000000000000
00000000000000
00000000000000
00000000000000
00000000000000
ENDCHAR
STARTCHAR U+004C
ENCODING 76
SWIDTH 1000 0
DWIDTH 40 0
BBX 53 40 -6 -8
BITMAP
00000000000000
00000000000000
00000000000000
00000000000000
001fc000000000
001fc000000000
003f8000000000
003f8000000000
003f8000000000
007f0000000000
007f0000000000
007f0000000000
00fe0000000000
00fe0000000000
00fe0000000000
01fc0000000000
01fc0000000000
01fc0000000000
03f80000000000
03f80000000000
03f80000000000
07f00000000000
07f00000000000
07f00000000000
0fe00000000000
0fe00000000000
0fe00000000000
1fc00000000000
1fffffffc00000
1fffffffc00000
3fffffff800000
3fffffff800000
00000000000000
00000000000000
00000000000000
00000000000000
00000000000000
00000000000000
00000000000000
00000000000000
ENDCHAR
STARTCHAR U+004B
ENCODING 75
SWIDTH 1000 0
DWIDTH 40 0
BBX 53 40 -6 -8
BITMAP
00000000000000
00000000000000
00000000000000
00000000000000
001fc0001fc000
001fc0001fc000
003f80003f8000
003f80003f8000
003f803ff80000
007f007ff00000
007f007ff00000
007f007ff00000
00feffe0000000
00feffe0000000
00feffe0000000
01fdffc0000000
01ffc000000000
01ffc000000000
03ff8000000000
03ff8000000000
03fbff80000000
07f7ff00000000
07f7ff00000000
07f7ff00000000
0fe00ffe000000
0fe00ffe000000
0fe00ffe000000
1fc01ffc000000
1fc0001fc00000
1fc0001fc00000
3f80003f800000
3f80003f800000
00000000000000
00000000000000
00000000000000
00000000000000
00000000000000
00000000000000
00000000000000
00000000000000
ENDCHAR
STARTCHAR U+004A
ENCODING 74
SWIDTH 1000 0
DWIDTH 40 0
BBX 53 40 -6 -8
BITMAP
00000000000000
00000000000000
00000000000000
00000000000000
0000001fffc000
0000001fffc000
0000003fff8000
0000003fff8000
00000003f80000
00000007f00000
00000007f00000
00000007f00000
0000000fe00000
0000000fe00000
0000000fe00000
0000001fc00000
0000001fc00000
0000001fc00000
0000003f800000
0000003f800000
0000003f800000
0000007f000000
0000007f000000
0000007f000000
0fe000fe000000
0fe000fe000000
0fe000fe000000
1fc001fc000000
01ffffc0000000
01ffffc0000000
03ffff80000000
03ffff80000000
00000000000000
00000000000000
00000000000000
00000000000000
00000000000000
00000000000000
00000000000000
00000000000000
ENDCHAR
STARTCHAR U+0049
ENCODING 73
SWIDTH 1000 0
DWIDTH 40 0
BBX 53 40 -6 -8
BITMAP
00000000000000
00000000000000
00000000000000
00000000000000
0001fffffc0000
0001fffffc0000
0003fffff80000
0003fffff80000
000003f8000000
000007f0000000
000007f0000000
000007f0000000
00000fe0000000
00000fe0000000
00000fe0000000
00001fc0000000
00001fc0000000
00001fc0000000
00003f80000000
00003f80000000
00003f80000000
00007f00000000
00007f00000000
00007f00000000
0000fe00000000
0000fe00000000
0000fe00000000
0001fc00000000
01fffffc000000
01fffffc000000
03fffff8000000
03fffff8000000
00000000000000
00000000000000
00000000000000
00000000000000
00000000000000
00000000000000
00000000000000
00000000000000
ENDCHAR
STARTCHAR U+0048
ENCODING 72
SWIDTH 1000 0
DWIDTH 40 0
BBX 53 40 -6 -8
BITMAP
00000000000000
00000000000000
00000000000000
00000000000000
001fc0001fc000
001fc0001fc000
003f80003f8000
003f80003f8000
003f80003f8000
007f00007f0000
007f00007f0000
007f00007f0000
00fe0000fe0000
00fe0000fe0000
00fe0000fe0000
01fc0001fc0000
01fffffffc0000
01fffffffc0000
03fffffff80000
03fffffff80000
03f80003f80000
07f00007f00000
07f00007f00000
07f00007f00000
0fe0000fe00000
0fe0000fe00000
0fe0000fe00000
1fc0001fc00000
1fc0001fc00000
1fc0001fc00000
3f80003f800000
3f80003f800000
00000000000000
00000000000000
00000000000000
00000000000000
00000000000000
00000000000000
00000000000000
00000000000000
ENDCHAR
STARTCHAR U+0047
ENCODING 71
SWIDTH 1000 0
DWIDTH 40 0
BBX 53 40 -6 -8
BITMAP
00000000000000
00000000000000
00000000000000
00000000000000
00001ffffc0000
00001ffffc0000
00003ffff80000
00003ffff80000
0003f8003f8000
0007f0007f0000
0007f0007f0000
0007f0007f0000
00fe0000000000
00fe0000000000
00fe0000000000
01fc0000000000
01fc0000000000
01fc0000000000
03f80000000000
03f80000000000
03f803fff80000
07f007fff00000
07f007fff00000
07f007fff00000
00fe000fe00000
00fe000fe00000
00fe000fe00000
01fc001fc00000
001ffffc000000
001ffffc000000
003ffff8000000
003ffff8000000
00000000000000
00000000000000
00000000000000
00000000000000
00000000000000
00000000000000
00000000000000
00000000000000
ENDCHAR
STARTCHAR U+0046
ENCODING 70
SWIDTH 1000 0
DWIDTH 40 0
BBX 53 40 -6 -8
BITMAP
00000000000000
00000000000000
00000000000000
00000000000000
001fffffffc000
001fffffffc000
003fffffff8000
003fffffff8000
003f8000000000
007f0000000000
007f0000000000
007f0000000000
00fe0000000000
00fe0000000000
00fe0000000000
01fc0000000000
01fffffc000000
01fffffc000000
03fffff8000000
03fffff8000000
03f80000000000
07f00000000000
07f00000000000
07f00000000000
0fe00000000000
0fe00000000000
0fe00000000000
1fc00000000000
1fc00000000000
1fc00000000000
3f800000000000
3f800000000000
00000000000000
00000000000000
00000000000000
00000000000000
00000000000000
00000000000000
00000000000000
00000000000000
ENDCHAR
STARTCHAR U+0045
ENCODING 69
SWIDTH 1000 0
DWIDTH 40 0
BBX 53 40 -6 -8
BITMAP
00000000000000
00000000000000
00000000000000
00000000000000
001fffffffc000
001fffffffc000
003fffffff8000
003fffffff8000
003f8000000000
007f0000000000
007f0000000000
007f0000000000
00fe0000000000
00fe0000000000
00fe0000000000
01fc0000000000
01fffffc000000
01fffffc000000
03fffff8000000
03fffff8000000
03f80000000000
07f00000000000
07f00000000000
07f00000000000
0fe00000000000
0fe00000000000
0fe00000000000
1fc00000000000
1fffffffc00000
1fffffffc00000
3fffffff800000
3fffffff800000
00000000000000
00000000000000
00000000000000
00000000000000
00000000000000
00000000000000
00000000000000
00000000000000
ENDCHAR
STARTCHAR U+0044
ENCODING 68
SWIDTH 1000 0
DWIDTH 40 0
BBX 53 40 -6 -8
BITMAP
00000000000000
00000000000000
00000000000000
00000000000000
001fffffc00000
001fffffc00000
003fffff800000
003fffff800000
0003f803f80000
0007f007f00000
0007f007f00000
0007f007f00000
000fe000fe0000
000fe000fe0000
000fe000fe0000
001fc001fc0000
001fc001fc0000
001fc001fc0000
003f8003f80000
003f8003f80000
003f8003f80000
007f0007f00000
007f0007f00000
007f0007f00000
00fe00fe000000
00fe00fe000000
00fe00fe000000
01fc01fc000000
1fffffc0000000
1fffffc0000000
3fffff80000000
3fffff80000000
00000000000000
00000000000000
00000000000000
00000000000000
00000000000000
00000000000000
00000000000000
00000000000000
ENDCHAR
STARTCHAR U+0043
ENCODING 67
SWIDTH 1000 0
DWIDTH 40 0
BBX 53 40 -6 -8
BITMAP
00000000000000
00000000000000
00000000000000
00000000000000
00001ffffc0000
00001ffffc0000
00003ffff80000
00003ffff80000
0003f8003f8000
0007f0007f0000
0007f0007f0000
0007f0007f0000
00fe0000000000
00fe0000000000
00fe0000000000
01fc0000000000
01fc0000000000
01fc0000000000
03f80000000000
03f80000000000
03f80000000000
07f00000000000
07f00000000000
07f00000000000
00fe000fe00000
00fe000fe00000
00fe000fe00000
01fc001fc00000
001ffffc000000
001ffffc000000
003ffff8000000
003ffff8000000
00000000000000
00000000000000
00000000000000
00000000000000
00000000000000
00000000000000
00000000000000
00000000000000
ENDCHAR
STARTCHAR U+0042
ENCODING 66
SWIDTH 1000 0
DWIDTH 40 0
BBX 53 40 -6 -8
BITMAP
00000000000000
00000000000000
00000000000000
00000000000000
001ffffffc0000
001ffffffc0000
003ffffff80000
003ffffff80000
0003f8003f8000
0007f0007f0000
0007f0007f0000
0007f0007f0000
000fe000fe0000
000fe000fe0000
000fe000fe0000
001fc001fc0000
001fffffc00000
001fffffc00000
003fffff800000
003fffff800000
003f8003f80000
007f0007f00000
007f0007f00000
007f0007f00000
00fe000fe00000
00fe000fe00000
00fe000fe00000
01fc001fc00000
1ffffffc000000
1ffffffc000000
3ffffff8000000
3ffffff8000000
00000000000000
00000000000000
00000000000000
00000000000000
00000000000000
00000000000000
00000000000000
00000000000000
ENDCHAR
STARTCHAR U+0041
ENCODING 65
SWIDTH 1000 0
DWIDTH 40 0
BBX 53 40 -6 -8
BITMAP
00000000000000
00000000000000
00000000000000
00000000000000
000001fc000000
000001fc000000
000003f8000000
000003f8000000
00003fbf800000
00007f7f000000
00007f7f000000
00007f7f000000
000fe00fe00000
000fe00fe00000
000fe00fe00000
001fc01fc00000
01fc0001fc0000
01fc0001fc0000
03f80003f80000
03f80003f80000
03fffffff80000
07fffffff00000
07fffffff00000
07fffffff00000
0fe0000fe00000
0fe0000fe00000
0fe0000fe00000
1fc0001fc00000
1fc0001fc00000
1fc0001fc00000
3f80003f800000
3f80003f800000
00000000000000
00000000000000
00000000000000
00000000000000
00000000000000
00000000000000
00000000000000
00000000000000
ENDCHAR
STARTCHAR U+0040
ENCODING 64
SWIDTH 1000 0
DWIDTH 40 0
BBX 53 40 -6 -8
BITMAP
00000000000000
00000000000000
00000000000000
00000000000000
0001fffffc0000
0001fffffc0000
0003fffff80000
0003fffff80000
003f80003f8000
007f00007f0000
007f00007f0000
007f00007f0000
00fe0ffffe0000
00fe0ffffe0000
00fe0ffffe0000
01fc1ffffc0000
01fdfc1ffc0000
01fdfc1ffc0000
03fbf83ff80000
03fbf83ff80000
03f83ffbf80000
07f07ff7f00000
07f07ff7f00000
07f07ff7f00000
0fe00000000000
0fe00000000000
0fe00000000000
1fc00000000000
01fffffc000000
01fffffc000000
03fffff8000000
03fffff8000000
00000000000000
00000000000000
00000000000000
00000000000000
00000000000000
00000000000000
00000000000000
00000000000000
ENDCHAR
STARTCHAR U+003F
ENCODING 63
SWIDTH 1000 0
DWIDTH 40 0
BBX 53 40 -6 -8
BITMAP
00000000000000
00000000000000
00000000000000
00000000000000
0001fffffc0000
0001fffffc0000
0003fffff80000
0003fffff80000
003f80003f8000
007f00007f0000
007f00007f0000
007f00007f0000
000000ffe00000
000000ffe00000
000000ffe00000
000001ffc00000
00001fc0000000
00001fc0000000
00003f80000000
00003f80000000
00003f80000000
00007f00000000
00007f00000000
00007f00000000
00000000000000
00000000000000
00000000000000
00000000000000
0001fc00000000
0001fc00000000
0003f800000000
0003f800000000
00000000000000
00000000000000
00000000000000
00000000000000
00000000000000
00000000000000
00000000000000
00000000000000
ENDCHAR
STARTCHAR U+003E
ENCODING 62
SWIDTH 1000 0
DWIDTH 40 0
BBX 53 40 -6 -8
BITMAP
00000000000000
00000000000000
00000000000000
00000000000000
001fc000000000
001fc000000000
003f8000000000
003f8000000000
00003f80000000
00007f00000000
00007f00000000
00007f00000000
000000fe000000
000000fe000000
000000fe000000
000001fc000000
00000001fc0000
00000001fc0000
00000003f80000
00000003f80000
000003f8000000
000007f0000000
000007f0000000
000007f0000000
000fe000000000
000fe000000000
000fe000000000
001fc000000000
1fc00000000000
1fc00000000000
3f800000000000
3f800000000000
00000000000000
00000000000000
00000000000000
00000000000000
00000000000000
00000000000000
00000000000000
00000000000000
ENDCHAR
STARTCHAR U+003D
ENCODING 61
SWIDTH 1000 0
DWIDTH 40 0
BBX 53 40 -6 -8
BITMAP
00000000000000
00000000000000
00000000000000
00000000000000
00000000000000
00000000000000
00000000000000
00000000000000
00000000000000
00000000000000
00000000000000
00000000000000
00fffffffe0000
00fffffffe0000
00fffffffe0000
01fffffffc0000
00000000000000
00000000000000
00000000000000
00000000000000
03fffffff80000
07fffffff00000
07fffffff00000
07fffffff00000
00000000000000
00000000000000
00000000000000
00000000000000
00000000000000
00000000000000
00000000000000
00000000000000
00000000000000
00000000000000
00000000000000
00000000000000
00000000000000
00000000000000
00000000000000
00000000000000
ENDCHAR
STARTCHAR U+003C
ENCODING 60
SWIDTH 1000 0
DWIDTH 40 0
BBX 53 40 -6 -8
BITMAP
00000000000000
00000000000000
00000000000000
00000000000000
000000001fc000
000000001fc000
000000003f8000
000000003f8000
0000003f800000
0000007f000000
0000007f000000
0000007f000000
0000fe00000000
0000fe00000000
0000fe00000000
0001fc00000000
01fc0000000000
01fc0000000000
03f80000000000
03f80000000000
0003f800000000
0007f000000000
0007f000000000
0007f000000000
00000fe0000000
00000fe0000000
00000fe0000000
00001fc0000000
0000001fc00000
0000001fc00000
0000003f800000
0000003f800000
00000000000000
00000000000000
00000000000000
00000000000000
00000000000000
00000000000000
00000000000000
00000000000000
ENDCHAR
STARTCHAR U+003B
ENCODING 59
SWIDTH 1000 0
DWIDTH 40 0
BBX 53 40 -6 -8
BITMAP
00000000000000
00000000000000
00000000000000
00000000000000
00000000000000
00000000000000
00000000000000
00000000000000
00003ff8000000
00007ff0000000
00007ff0000000
00007ff0000000
0000ffe0000000
0000ffe0000000
0000ffe0000000
0001ffc0000000
00000000000000
00000000000000
00000000000000
00000000000000
00000000000000
00000000000000
00000000000000
00000000000000
000ffe00000000
000ffe00000000
000ffe00000000
001ffc00000000
001fc000000000
001fc000000000
003f8000000000
003f8000000000
03f80000000000
07f00000000000
07f00000000000
07f00000000000
00000000000000
00000000000000
00000000000000
00000000000000
ENDCHAR
STARTCHAR U+003A
ENCODING 58
SWIDTH 1000 0
DWIDTH 40 0
BBX 53 40 -6 -8
BITMAP
00000000000000
00000000000000
00000000000000
00000000000000
00000000000000
00000000000000
00000000000000
00000000000000
00003ff8000000
00007ff0000000
00007ff0000000
00007ff0000000
0000ffe0000000
0000ffe0000000
0000ffe0000000
0001ffc0000000
00000000000000
00000000000000
00000000000000
00000000000000
00000000000000
00000000000000
00000000000000
00000000000000
000ffe00000000
000ffe00000000
000ffe00000000
001ffc00000000
001ffc00000000
001ffc00000000
003ff800000000
003ff800000000
00000000000000
00000000000000
00000000000000
00000000000000
00000000000000
00000000000000
00000000000000
00000000000000
ENDCHAR
STARTCHAR U+0039
ENCODING 57
SWIDTH 1000 0
DWIDTH 40 0
BBX 53 40 -6 -8
BITMAP
00000000000000
00000000000000
00000000000000
00000000000000
0001fffffc0000
0001fffffc0000
0003fffff80000
0003fffff80000
003f80003f8000
007f00007f0000
007f00007f0000
007f00007f0000
00fe000ffe0000
00fe000ffe0000
00fe000ffe0000
01fc001ffc0000
001ffffdfc0000
001ffffdfc0000
003ffffbf80000
003ffffbf80000
00000003f80000
00000007f00000
00000007f00000
00000007f00000
000000fe000000
000000fe000000
000000fe000000
000001fc000000
01ffffc0000000
01ffffc0000000
03ffff80000000
03ffff80000000
00000000000000
00000000000000
00000000000000
00000000000000
00000000000000
00000000000000
00000000000000
00000000000000
ENDCHAR
STARTCHAR U+0038
ENCODING 56
SWIDTH 1000 0
DWIDTH 40 0
BBX 53 40 -6 -8
BITMAP
00000000000000
00000000000000
00000000000000
00000000000000
0001fffffc0000
0001fffffc0000
0003fffff80000
0003fffff80000
003f80003f8000
007f00007f0000
007f00007f0000
007f00007f0000
00fe0000fe0000
00fe0000fe0000
00fe0000fe0000
01fc0001fc0000
001fffffc00000
001fffffc00000
003fffff800000
003fffff800000
03f80003f80000
07f00007f00000
07f00007f00000
07f00007f00000
0fe0000fe00000
0fe0000fe00000
0fe0000fe00000
1fc0001fc00000
01fffffc000000
01fffffc000000
03fffff8000000
03fffff8000000
00000000000000
00000000000000
00000000000000
00000000000000
00000000000000
00000000000000
00000000000000
00000000000000
ENDCHAR
STARTCHAR U+0037
ENCODING 55
SWIDTH 1000 0
DWIDTH 40 0
BBX 53 40 -6 -8
BITMAP
00000000000000
00000000000000
00000000000000
00000000000000
001fffffffc000
001fffffffc000
003fffffff8000
003fffffff8000
000000003f8000
000000007f0000
000000007f0000
000000007f0000
0000000fe00000
0000000fe00000
0000000fe00000
0000001fc00000
000001fc000000
000001fc000000
000003f8000000
000003f8000000
00003f80000000
00007f00000000
00007f00000000
00007f00000000
000fe000000000
000fe000000000
000fe000000000
001fc000000000
001fc000000000
001fc000000000
003f8000000000
003f8000000000
00000000000000
00000000000000
00000000000000
00000000000000
00000000000000
00000000000000
00000000000000
00000000000000
ENDCHAR
STARTCHAR U+0036
ENCODING 54
SWIDTH 1000 0
DWIDTH 40 0
BBX 53 40 -6 -8
BITMAP
00000000000000
00000000000000
00000000000000
00000000000000
00001ffffc0000
00001ffffc0000
00003ffff80000
00003ffff80000
0003f800000000
0007f000000000
0007f000000000
0007f000000000
00fe0000000000
00fe0000000000
00fe0000000000
01fc0000000000
01fdffffc00000
01fdffffc00000
03fbffff800000
03fbffff800000
03ff8003f80000
07ff0007f00000
07ff0007f00000
07ff0007f00000
0fe0000fe00000
0fe0000fe00000
0fe0000fe00000
1fc0001fc00000
01fffffc000000
01fffffc000000
03fffff8000000
03fffff8000000
00000000000000
00000000000000
00000000000000
00000000000000
00000000000000
00000000000000
00000000000000
00000000000000
ENDCHAR
STARTCHAR U+0035
ENCODING 53
SWIDTH 1000 0
DWIDTH 40 0
BBX 53 40 -6 -8
BITMAP
00000000000000
00000000000000
00000000000000
00000000000000
001fffffffc000
001fffffffc000
003fffffff8000
003fffffff8000
003f8000000000
007f0000000000
007f0000000000
007f0000000000
00feffffe00000
00feffffe00000
00feffffe00000
01fdffffc00000
01ffc001fc0000
01ffc001fc0000
03ff8003f80000
03ff8003f80000
00000003f80000
00000007f00000
00000007f00000
00000007f00000
0fe0000fe00000
0fe0000fe00000
0fe0000fe00000
1fc0001fc00000
01fffffc000000
01fffffc000000
03fffff8000000
03fffff8000000
00000000000000
00000000000000
00000000000000
00000000000000
00000000000000
00000000000000
00000000000000
00000000000000
ENDCHAR
STARTCHAR U+0034
ENCODING 52
SWIDTH 1000 0
DWIDTH 40 0
BBX 53 40 -6 -8
BITMAP
00000000000000
00000000000000
00000000000000
00000000000000
0000001fc00000
0000001fc00000
0000003f800000
0000003f800000
000003ff800000
000007ff000000
000007ff000000
000007ff000000
0000fefe000000
0000fefe000000
0000fefe000000
0001fdfc000000
001fc1fc000000
001fc1fc000000
003f83f8000000
003f83f8000000
03fffffff80000
07fffffff00000
07fffffff00000
07fffffff00000
00000fe0000000
00000fe0000000
00000fe0000000
00001fc0000000
00001fc0000000
00001fc0000000
00003f80000000
00003f80000000
00000000000000
00000000000000
00000000000000
00000000000000
00000000000000
00000000000000
00000000000000
00000000000000
ENDCHAR
STARTCHAR U+0033
ENCODING 51
SWIDTH 1000 0
DWIDTH 40 0
BBX 53 40 -6 -8
BITMAP
00000000000000
00000000000000
00000000000000
00000000000000
001fffffffc000
001fffffffc000
003fffffff8000
003fffffff8000
00000003f80000
00000007f00000
00000007f00000
00000007f00000
000000fe000000
000000fe000000
000000fe000000
000001fc000000
00001fffc00000
00001fffc00000
00003fff800000
00003fff800000
00000003f80000
00000007f00000
00000007f00000
00000007f00000
0fe0000fe00000
0fe0000fe00000
0fe0000fe00000
1fc0001fc00000
01fffffc000000
01fffffc000000
03fffff8000000
03fffff8000000
00000000000000
00000000000000
00000000000000
00000000000000
00000000000000
00000000000000
00000000000000
00000000000000
ENDCHAR
STARTCHAR U+0032
ENCODING 50
SWIDTH 1000 0
DWIDTH 40 0
BBX 53 40 -6 -8
BITMAP
00000000000000
00000000000000
00000000000000
00000000000000
0001fffffc0000
0001fffffc0000
0003fffff80000
0003fffff80000
003f80003f8000
007f00007f0000
007f00007f0000
007f00007f0000
00000000fe0000
00000000fe0000
00000000fe0000
00000001fc0000
00001fffc00000
00001fffc00000
00003fff800000
00003fff800000
003ff800000000
007ff000000000
007ff000000000
007ff000000000
0fe00000000000
0fe00000000000
0fe00000000000
1fc00000000000
1fffffffc00000
1fffffffc00000
3fffffff800000
3fffffff800000
00000000000000
00000000000000
00000000000000
00000000000000
00000000000000
00000000000000
00000000000000
00000000000000
ENDCHAR
STARTCHAR U+0031
ENCODING 49
SWIDTH 1000 0
DWIDTH 40 0
BBX 53 40 -6 -8
BITMAP
00000000000000
00000000000000
00000000000000
00000000000000
000001fc000000
000001fc000000
000003f8000000
000003f8000000
00003ff8000000
00007ff0000000
00007ff0000000
00007ff0000000
000fefe0000000
000fefe0000000
000fefe0000000
001fdfc0000000
00001fc0000000
00001fc0000000
00003f80000000
00003f80000000
00003f80000000
00007f00000000
00007f00000000
00007f00000000
0000fe00000000
0000fe00000000
0000fe00000000
0001fc00000000
01fffffc000000
01fffffc000000
03fffff8000000
03fffff8000000
00000000000000
00000000000000
00000000000000
00000000000000
00000000000000
00000000000000
00000000000000
00000000000000
ENDCHAR
STARTCHAR U+0030
ENCODING 48
SWIDTH 1000 0
DWIDTH 40 0
BBX 53 40 -6 -8
BITMAP
00000000000000
00000000000000
00000000000000
00000000000000
00001fffc00000
00001fffc00000
00003fff800000
00003fff800000
0003f803f80000
0007f007f00000
0007f007f00000
0007f007f00000
00fe0000fe0000
00fe0000fe0000
00fe0000fe0000
01fc0001fc0000
01fc0001fc0000
01fc0001fc0000
03f80003f80000
03f80003f80000
03f80003f80000
07f00007f00000
07f00007f00000
07f00007f00000
00fe00fe000000
00fe00fe000000
00fe00fe000000
01fc01fc000000
001fffc0000000
001fffc0000000
003fff80000000
003fff80000000
00000000000000
00000000000000
00000000000000
00000000000000
00000000000000
00000000000000
00000000000000
00000000000000
ENDCHAR
STARTCHAR U+002F
ENCODING 47
SWIDTH 1000 0
DWIDTH 40 0
BBX 53 40 -6 -8
BITMAP
00000000000000
00000000000000
00000000000000
00000000000000
000000001fc000
000000001fc000
000000003f8000
000000003f8000
00000003f80000
00000007f00000
00000007f00000
00000007f00000
000000fe000000
000000fe000000
000000fe000000
000001fc000000
00001fc0000000
00001fc0000000
00003f80000000
00003f80000000
0003f800000000
0007f000000000
0007f000000000
0007f000000000
00fe0000000000
00fe0000000000
00fe0000000000
01fc0000000000
1fc00000000000
1fc00000000000
3f800000000000
3f800000000000
00000000000000
00000000000000
00000000000000
00000000000000
00000000000000
00000000000000
00000000000000
00000000000000
ENDCHAR
STARTCHAR U+002E
ENCODING 46
SWIDTH 1000 0
DWIDTH 40 0
BBX 53 40 -6 -8
BITMAP
00000000000000
00000000000000
00000000000000
00000000000000
00000000000000
00000000000000
00000000000000
00000000000000
00000000000000
00000000000000
00000000000000
00000000000000
00000000000000
00000000000000
00000000000000
00000000000000
00000000000000
00000000000000
00000000000000
00000000000000
00000000000000
00000000000000
00000000000000
00000000000000
000ffe00000000
000ffe00000000
000ffe00000000
001ffc00000000
001ffc00000000
001ffc00000000
003ff800000000
003ff800000000
00000000000000
00000000000000
00000000000000
00000000000000
00000000000000
00000000000000
00000000000000
00000000000000
ENDCHAR
STARTCHAR U+002D
ENCODING 45
SWIDTH 1000 0
DWIDTH 40 0
BBX 53 40 -6 -8
BITMAP
00000000000000
00000000000000
00000000000000
00000000000000
00000000000000
00000000000000
00000000000000
00000000000000
00000000000000
00000000000000
00000000000000
00000000000000
00000000000000
00000000000000
00000000000000
00000000000000
01fffffffc0000
01fffffffc0000
03fffffff80000
03fffffff80000
00000000000000
00000000000000
00000000000000
00000000000000
00000000000000
00000000000000
00000000000000
00000000000000
00000000000000
00000000000000
00000000000000
00000000000000
00000000000000
00000000000000
00000000000000
00000000000000
00000000000000
00000000000000
00000000000000
00000000000000
ENDCHAR
STARTCHAR U+002C
ENCODING 44
SWIDTH 1000 0
DWIDTH 40 0
BBX 53 40 -6 -8
BITMAP
00000000000000
00000000000000
00000000000000
00000000000000
00000000000000
00000000000000
00000000000000
00000000000000
00000000000000
00000000000000
00000000000000
00000000000000
00000000000000
00000000000000
00000000000000
00000000000000
00000000000000
00000000000000
00000000000000
00000000000000
00000000000000
00000000000000
00000000000000
00000000000000
000ffe00000000
000ffe00000000
000ffe00000000
001ffc00000000
001fc000000000
001fc000000000
003f8000000000
003f8000000000
03f80000000000
07f00000000000
07f00000000000
07f00000000000
00000000000000
00000000000000
00000000000000
00000000000000
ENDCHAR
STARTCHAR U+002B
ENCODING 43
SWIDTH 1000 0
DWIDTH 40 0
BBX 53 40 -6 -8
BITMAP
00000000000000
00000000000000
00000000000000
00000000000000
00000000000000
00000000000000
00000000000000
00000000000000
000003f8000000
000007f0000000
000007f0000000
000007f0000000
00000fe0000000
00000fe0000000
00000fe0000000
00001fc0000000
01fffffffc0000
01fffffffc0000
03fffffff80000
03fffffff80000
00003f80000000
00007f00000000
00007f00000000
00007f00000000
0000fe00000000
0000fe00000000
0000fe00000000
0001fc00000000
00000000000000
00000000000000
00000000000000
00000000000000
00000000000000
00000000000000
00000000000000
00000000000000
00000000000000
00000000000000
00000000000000
00000000000000
ENDCHAR
STARTCHAR U+002A
ENCODING 42
SWIDTH 1000 0
DWIDTH 40 0
BBX 53 40 -6 -8
BITMAP
00000000000000
00000000000000
00000000000000
00000000000000
00000000000000
00000000000000
00000000000000
00000000000000
0003f803f80000
0007f007f00000
0007f007f00000
0007f007f00000
0000fefe000000
0000fefe000000
0000fefe000000
0001fdfc000000
01fffffffc0000
01fffffffc0000
03fffffff80000
03fffffff80000
0003fbf8000000
0007f7f0000000
0007f7f0000000
0007f7f0000000
00fe00fe000000
00fe00fe000000
00fe00fe000000
01fc01fc000000
00000000000000
00000000000000
00000000000000
00000000000000
00000000000000
00000000000000
00000000000000
00000000000000
00000000000000
00000000000000
00000000000000
00000000000000
ENDCHAR
STARTCHAR U+0029
ENCODING 41
SWIDTH 1000 0
DWIDTH 40 0
BBX 53 40 -6 -8
BITMAP
00000000000000
00000000000000
00000000000000
00000000000000
00001fc0000000
00001fc0000000
00003f80000000
00003f80000000
000003f8000000
000007f0000000
000007f0000000
000007f0000000
000000fe000000
000000fe000000
000000fe000000
000001fc000000
000001fc000000
000001fc000000
000003f8000000
000003f8000000
000003f8000000
000007f0000000
000007f0000000
000007f0000000
0000fe00000000
0000fe00000000
0000fe00000000
0001fc00000000
001fc000000000
001fc000000000
003f8000000000
003f8000000000
00000000000000
00000000000000
00000000000000
00000000000000
00000000000000
00000000000000
00000000000000
00000000000000
ENDCHAR
STARTCHAR U+0028
ENCODING 40
SWIDTH 1000 0
DWIDTH 40 0
BBX 53 40 -6 -8
BITMAP
00000000000000
00000000000000
00000000000000
00000000000000
0000001fc00000
0000001fc00000
0000003f800000
0000003f800000
000003f8000000
000007f0000000
000007f0000000
000007f0000000
0000fe00000000
0000fe00000000
0000fe00000000
0001fc00000000
0001fc00000000
0001fc00000000
0003f800000000
0003f800000000
0003f800000000
0007f000000000
0007f000000000
0007f000000000
0000fe00000000
0000fe00000000
0000fe00000000
0001fc00000000
00001fc0000000
00001fc0000000
00003f80000000
00003f80000000
00000000000000
00000000000000
00000000000000
00000000000000
00000000000000
00000000000000
00000000000000
00000000000000
ENDCHAR
STARTCHAR U+0027
ENCODING 39
SWIDTH 1000 0
DWIDTH 40 0
BBX 53 40 -6 -8
BITMAP
00000000000000
00000000000000
00000000000000
00000000000000
000001ffc00000
000001ffc00000
000003ff800000
000003ff800000
000003f8000000
000007f0000000
000007f0000000
000007f0000000
0000fe00000000
0000fe00000000
0000fe00000000
0001fc00000000
00000000000000
00000000000000
00000000000000
00000000000000
00000000000000
00000000000000
00000000000000
00000000000000
00000000000000
00000000000000
00000000000000
00000000000000
00000000000000
00000000000000
00000000000000
00000000000000
00000000000000
00000000000000
00000000000000
00000000000000
00000000000000
00000000000000
00000000000000
00000000000000
ENDCHAR
STARTCHAR U+0026
ENCODING 38
SWIDTH 1000 0
DWIDTH 40 0
BBX 53 40 -6 -8
BITMAP
00000000000000
00000000000000
00000000000000
00000000000000
0001fffc000000
0001fffc000000
0003fff8000000
0003fff8000000
003f803f800000
007f007f000000
007f007f000000
007f007f000000
00fe00fe000000
00fe00fe000000
00fe00fe000000
01fc01fc000000
001fffc0000000
001fffc0000000
003fff80000000
003fff80000000
03f803fbf80000
07f007f7f00000
07f007f7f00000
07f007f7f00000
0fe000fe000000
0fe000fe000000
0fe000fe000000
1fc001fc000000
01ffffdfc00000
01ffffdfc00000
03ffffbf800000
03ffffbf800000
00000000000000
00000000000000
00000000000000
00000000000000
00000000000000
00000000000000
00000000000000
00000000000000
ENDCHAR
STARTCHAR U+0025
ENCODING 37
SWIDTH 1000 0
DWIDTH 40 0
BBX 53 40 -6 -8
BITMAP
00000000000000
00000000000000
00000000000000
00000000000000
0001fc001fc000
0001fc001fc000
0003f8003f8000
0003f8003f8000
003fbf83f80000
007f7f07f00000
007f7f07f00000
007f7f07f00000
000fe0fe000000
000fe0fe000000
000fe0fe000000
001fc1fc000000
00001fc0000000
00001fc0000000
00003f80000000
00003f80000000
0003f83f800000
0007f07f000000
0007f07f000000
0007f07f000000
00fe0fefe00000
00fe0fefe00000
00fe0fefe00000
01fc1fdfc00000
1fc001fc000000
1fc001fc000000
3f8003f8000000
3f8003f8000000
00000000000000
00000000000000
00000000000000
00000000000000
00000000000000
00000000000000
00000000000000
00000000000000
ENDCHAR
STARTCHAR U+0024
ENCODING 36
SWIDTH 1000 0
DWIDTH 40 0
BBX 53 40 -6 -8
BITMAP
00000000000000
00000000000000
00000000000000
00000000000000
000001fc000000
000001fc000000
000003f8000000
000003f8000000
0003fffff80000
0007fffff00000
0007fffff00000
0007fffff00000
00fe0fe0000000
00fe0fe0000000
00fe0fe0000000
01fc1fc0000000
001fffffc00000
001fffffc00000
003fffff800000
003fffff800000
00003f83f80000
00007f07f00000
00007f07f00000
00007f07f00000
00fffffe000000
00fffffe000000
00fffffe000000
01fffffc000000
0001fc00000000
0001fc00000000
0003f800000000
0003f800000000
00000000000000
00000000000000
00000000000000
00000000000000
00000000000000
00000000000000
00000000000000
00000000000000
ENDCHAR
STARTCHAR U+0023
ENCODING 35
SWIDTH 1000 0
DWIDTH 40 0
BBX 53 40 -6 -8
BITMAP
00000000000000
00000000000000
00000000000000
00000000000000
0001fc1fc00000
0001fc1fc00000
0003f83f800000
0003f83f800000
0003f83f800000
0007f07f000000
0007f07f000000
0007f07f000000
00ffffffe00000
00ffffffe00000
00ffffffe00000
01ffffffc00000
001fc1fc000000
001fc1fc000000
003f83f8000000
003f83f8000000
03ffffff800000
07ffffff000000
07ffffff000000
07ffffff000000
00fe0fe0000000
00fe0fe0000000
00fe0fe0000000
01fc1fc0000000
01fc1fc0000000
01fc1fc0000000
03f83f80000000
03f83f80000000
00000000000000
00000000000000
00000000000000
00000000000000
00000000000000
00000000000000
00000000000000
00000000000000
ENDCHAR
STARTCHAR U+0022
ENCODING 34
SWIDTH 1000 0
DWIDTH 40 0
BBX 53 40 -6 -8
BITMAP
00000000000000
00000000000000
00000000000000
00000000000000
0001fc1fc00000
0001fc1fc00000
0003f83f800000
0003f83f800000
0003f83f800000
0007f07f000000
0007f07f000000
0007f07f000000
000fe0fe000000
000fe0fe000000
000fe0fe000000
001fc1fc000000
00000000000000
00000000000000
00000000000000
00000000000000
00000000000000
00000000000000
00000000000000
00000000000000
00000000000000
00000000000000
00000000000000
00000000000000
00000000000000
00000000000000
00000000000000
00000000000000
00000000000000
00000000000000
00000000000000
00000000000000
00000000000000
00000000000000
00000000000000
00000000000000
ENDCHAR
STARTCHAR U+0021
ENCODING 33
SWIDTH 1000 0
DWIDTH 40 0
BBX 53 40 -6 -8
BITMAP
00000000000000
00000000000000
00000000000000
00000000000000
000001fc000000
000001fc000000
000003f8000000
000003f8000000
000003f8000000
000007f0000000
000007f0000000
000007f0000000
00000fe0000000
00000fe0000000
00000fe0000000
00001fc0000000
00001fc0000000
00001fc0000000
00003f80000000
00003f80000000
00003f80000000
00007f00000000
00007f00000000
00007f00000000
00000000000000
00000000000000
00000000000000
00000000000000
0001fc00000000
0001fc00000000
0003f800000000
0003f800000000
00000000000000
00000000000000
00000000000000
00000000000000
00000000000000
00000000000000
00000000000000
00000000000000
ENDCHAR
STARTCHAR U+2E2E
ENCODING 11822
SWIDTH 1000 0
DWIDTH 40 0
BBX 53 40 -6 -8
BITMAP
00000000000000
00000000000000
00000000000000
00000000000000
0001fffffc0000
0001fffffc0000
0003fffff80000
0003fffff80000
003f80003f8000
007f00007f0000
007f00007f0000
007f00007f0000
000ffe00000000
000ffe00000000
000ffe00000000
001ffc00000000
00001fc0000000
00001fc0000000
00003f80000000
00003f80000000
00003f80000000
00007f00000000
00007f00000000
00007f00000000
00000000000000
00000000000000
00000000000000
00000000000000
0001fc00000000
0001fc00000000
0003f800000000
0003f800000000
00000000000000
00000000000000
00000000000000
00000000000000
00000000000000
00000000000000
00000000000000
00000000000000
ENDCHAR
STARTCHAR U+00b7
ENCODING 183
SWIDTH 1000 0
DWIDTH 40 0
BBX 53 40 -6 -8
BITMAP
00000000000000
00000000000000
00000000000000
00000000000000
00000000000000
00000000000000
00000000000000
00000000000000
00000000000000
00000000000000
00000000000000
00000000000000
00000000000000
00000000000000
00000000000000
00000000000000
00001fc0000000
00001fc0000000
00003f80000000
00003f80000000
00000000000000
00000000000000
00000000000000
00000000000000
00000000000000
00000000000000
00000000000000
00000000000000
00000000000000
00000000000000
00000000000000
00000000000000
00000000000000
00000000000000
00000000000000
00000000000000
00000000000000
00000000000000
00000000000000
00000000000000
ENDCHAR
STARTCHAR U+00A3
ENCODING 163
SWIDTH 1000 0
DWIDTH 40 0
BBX 53 40 -6 -8
BITMAP
00000000000000
00000000000000
00000000000000
00000000000000
000001fffc0000
000001fffc0000
000003fff80000
000003fff80000
00003f803f8000
00007f007f0000
00007f007f0000
00007f007f0000
0000fe00000000
0000fe00000000
0000fe00000000
0001fc00000000
01fffffc000000
01fffffc000000
03fffff8000000
03fffff8000000
0003f800000000
0007f000000000
0007f000000000
0007f000000000
00ffffe0000000
00ffffe0000000
00ffffe0000000
01ffffc0000000
1fdfc1ffc00000
1fdfc1ffc00000
3fbf83ff800000
3fbf83ff800000
03f80000000000
07f00000000000
07f00000000000
07f00000000000
00000000000000
00000000000000
00000000000000
00000000000000
ENDCHAR
STARTCHAR U+2260
ENCODING 8800
SWIDTH 1000 0
DWIDTH 40 0
BBX 53 40 -6 -8
BITMAP
00000000000000
00000000000000
00000000000000
00000000000000
000000001fc000
000000001fc000
000000003f8000
000000003f8000
00000003f80000
00000007f00000
00000007f00000
00000007f00000
00fffffffe0000
00fffffffe0000
00fffffffe0000
01fffffffc0000
00001fc0000000
00001fc0000000
00003f80000000
00003f80000000
03fffffff80000
07fffffff00000
07fffffff00000
07fffffff00000
00fe0000000000
00fe0000000000
00fe0000000000
01fc0000000000
1fc00000000000
1fc00000000000
3f800000000000
3f800000000000
00000000000000
00000000000000
00000000000000
00000000000000
00000000000000
00000000000000
00000000000000
00000000000000
ENDCHAR
STARTCHAR U+03C0
ENCODING 960
SWIDTH 1000 0
DWIDTH 40 0
BBX 53 40 -6 -8
BITMAP
00000000000000
00000000000000
00000000000000
00000000000000
00000000000000
00000000000000
00000000000000
00000000000000
00000000000000
00000000000000
00000000000000
00000000000000
00fffffffe0000
00fffffffe0000
00fffffffe0000
01fffffffc0000
0001fc1fc00000
0001fc1fc00000
0003f83f800000
0003f83f800000
0003f83f800000
0007f07f000000
0007f07f000000
0007f07f000000
000fe0fe000000
000fe0fe000000
000fe0fe000000
001fc1fc000000
01fc01fc000000
01fc01fc000000
03f803f8000000
03f803f8000000
00000000000000
00000000000000
00000000000000
00000000000000
00000000000000
00000000000000
00000000000000
00000000000000
ENDCHAR
STARTCHAR U+2265
ENCODING 8805
SWIDTH 1000 0
DWIDTH 40 0
BBX 53 40 -6 -8
BITMAP
00000000000000
00000000000000
00000000000000
00000000000000
001fc000000000
001fc000000000
003f8000000000
003f8000000000
00003f80000000
00007f00000000
00007f00000000
00007f00000000
000000fe000000
000000fe000000
000000fe000000
000001fc000000
00000001fc0000
00000001fc0000
00000003f80000
00000003f80000
000003f8000000
000007f0000000
000007f0000000
000007f0000000
000fe000000000
000fe000000000
000fe000000000
001fc000000000
1fc00000000000
1fc00000000000
3f800000000000
3f800000000000
3fffffff800000
7fffffff000000
7fffffff000000
7fffffff000000
00000000000000
00000000000000
00000000000000
00000000000000
ENDCHAR
STARTCHAR U+2264
ENCODING 8804
SWIDTH 1000 0
DWIDTH 40 0
BBX 53 40 -6 -8
BITMAP
00000000000000
00000000000000
00000000000000
00000000000000
000000001fc000
000000001fc000
000000003f8000
000000003f8000
0000003f800000
0000007f000000
0000007f000000
0000007f000000
0000fe00000000
0000fe00000000
0000fe00000000
0001fc00000000
01fc0000000000
01fc0000000000
03f80000000000
03f80000000000
0003f800000000
0007f000000000
0007f000000000
0007f000000000
00000fe0000000
00000fe0000000
00000fe0000000
00001fc0000000
0000001fc00000
0000001fc00000
0000003f800000
0000003f800000
3fffffff800000
7fffffff000000
7fffffff000000
7fffffff000000
00000000000000
00000000000000
00000000000000
00000000000000
ENDCHAR
STARTCHAR U+2502
ENCODING 9474
SWIDTH 1000 0
DWIDTH 40 0
BBX 53 40 -6 -8
BITMAP
000000fe000000
000000fe000000
000000fe000000
000001fc000000
000001fc000000
000001fc000000
000003f8000000
000003f8000000
000003f8000000
000007f0000000
000007f0000000
000007f0000000
00000fe0000000
00000fe0000000
00000fe0000000
00001fc0000000
00001fc0000000
00001fc0000000
00003f80000000
00003f80000000
00003f80000000
00007f00000000
00007f00000000
00007f00000000
0000fe00000000
0000fe00000000
0000fe00000000
0001fc00000000
0001fc00000000
0001fc00000000
0003f800000000
0003f800000000
0003f800000000
0007f000000000
0007f000000000
0007f000000000
000fe000000000
000fe000000000
000fe000000000
001fc000000000
ENDCHAR
STARTCHAR U+252C
ENCODING 9516
SWIDTH 1000 0
DWIDTH 40 0
BBX 53 40 -6 -8
BITMAP
00000000000000
00000000000000
00000000000000
00000000000000
00000000000000
00000000000000
00000000000000
00000000000000
00000000000000
00000000000000
00000000000000
00000000000000
00000000000000
00000000000000
00000000000000
00000000000000
01ffffffffff00
01ffffffffff00
03fffffffffe00
03fffffffffe00
00003f80000000
00007f00000000
00007f00000000
00007f00000000
0000fe00000000
0000fe00000000
0000fe00000000
0001fc00000000
0001fc00000000
0001fc00000000
0003f800000000
0003f800000000
0003f800000000
0007f000000000
0007f000000000
0007f000000000
000fe000000000
000fe000000000
000fe000000000
001fc000000000
ENDCHAR
STARTCHAR U+2534
ENCODING 9524
SWIDTH 1000 0
DWIDTH 40 0
BBX 53 40 -6 -8
BITMAP
000000fe000000
000000fe000000
000000fe000000
000001fc000000
000001fc000000
000001fc000000
000003f8000000
000003f8000000
000003f8000000
000007f0000000
000007f0000000
000007f0000000
00000fe0000000
00000fe0000000
00000fe0000000
00001fc0000000
01ffffffffff00
01ffffffffff00
03fffffffffe00
03fffffffffe00
00000000000000
00000000000000
00000000000000
00000000000000
00000000000000
00000000000000
00000000000000
00000000000000
00000000000000
00000000000000
00000000000000
00000000000000
00000000000000
00000000000000
00000000000000
00000000000000
00000000000000
00000000000000
00000000000000
00000000000000
ENDCHAR
STARTCHAR U+2524
ENCODING 9508
SWIDTH 1000 0
DWIDTH 40 0
BBX 53 40 -6 -8
BITMAP
000000fe000000
000000fe000000
000000fe000000
000001fc000000
000001fc000000
000001fc000000
000003f8000000
000003f8000000
000003f8000000
000007f0000000
000007f0000000
000007f0000000
00000fe0000000
00000fe0000000
00000fe0000000
00001fc0000000
01ffffc0000000
01ffffc0000000
03ffff80000000
03ffff80000000
00003f80000000
00007f00000000
00007f00000000
00007f00000000
0000fe00000000
0000fe00000000
0000fe00000000
0001fc00000000
0001fc00000000
0001fc00000000
0003f800000000
0003f800000000
0003f800000000
0007f000000000
0007f000000000
0007f000000000
000fe000000000
000fe000000000
000fe000000000
001fc000000000
ENDCHAR
STARTCHAR U+251C
ENCODING 9500
SWIDTH 1000 0
DWIDTH 40 0
BBX 53 40 -6 -8
BITMAP
000000fe000000
000000fe000000
000000fe000000
000001fc000000
000001fc000000
000001fc000000
000003f8000000
000003f8000000
000003f8000000
000007f0000000
000007f0000000
000007f0000000
00000fe0000000
00000fe0000000
00000fe0000000
00001fc0000000
00001fffffff00
00001fffffff00
00003ffffffe00
00003ffffffe00
00003f80000000
00007f00000000
00007f00000000
00007f00000000
0000fe00000000
0000fe00000000
0000fe00000000
0001fc00000000
0001fc00000000
0001fc00000000
0003f800000000
0003f800000000
0003f800000000
0007f000000000
0007f000000000
0007f000000000
000fe000000000
000fe000000000
000fe000000000
001fc000000000
ENDCHAR
STARTCHAR U+23BD
ENCODING 9149
SWIDTH 1000 0
DWIDTH 40 0
BBX 53 40 -6 -8
BITMAP
00000000000000
00000000000000
00000000000000
00000000000000
00000000000000
00000000000000
00000000000000
00000000000000
00000000000000
00000000000000
00000000000000
00000000000000
00000000000000
00000000000000
00000000000000
00000000000000
00000000000000
00000000000000
00000000000000
00000000000000
00000000000000
00000000000000
00000000000000
00000000000000
00000000000000
00000000000000
00000000000000
00000000000000
00000000000000
00000000000000
00000000000000
00000000000000
3fffffffffe000
7fffffffffc000
7fffffffffc000
7fffffffffc000
00000000000000
00000000000000
00000000000000
00000000000000
ENDCHAR
STARTCHAR U+23BC
ENCODING 9148
SWIDTH 1000 0
DWIDTH 40 0
BBX 53 40 -6 -8
BITMAP
00000000000000
00000000000000
00000000000000
00000000000000
00000000000000
00000000000000
00000000000000
00000000000000
00000000000000
00000000000000
00000000000000
00000000000000
00000000000000
00000000000000
00000000000000
00000000000000
00000000000000
00000000000000
00000000000000
00000000000000
00000000000000
00000000000000
00000000000000
00000000000000
0ffffffffff800
0ffffffffff800
0ffffffffff800
1ffffffffff000
00000000000000
00000000000000
00000000000000
00000000000000
00000000000000
00000000000000
00000000000000
00000000000000
00000000000000
00000000000000
00000000000000
00000000000000
ENDCHAR
STARTCHAR U+2500
ENCODING 9472
SWIDTH 1000 0
DWIDTH 40 0
BBX 53 40 -6 -8
BITMAP
00000000000000
00000000000000
00000000000000
00000000000000
00000000000000
00000000000000
00000000000000
00000000000000
00000000000000
00000000000000
00000000000000
00000000000000
00000000000000
00000000000000
00000000000000
00000000000000
01ffffffffff00
01ffffffffff00
03fffffffffe00
03fffffffffe00
00000000000000
00000000000000
00000000000000
00000000000000
00000000000000
00000000000000
00000000000000
00000000000000
00000000000000
00000000000000
00000000000000
00000000000000
00000000000000
00000000000000
00000000000000
00000000000000
00000000000000
00000000000000
00000000000000
00000000000000
ENDCHAR
STARTCHAR U+23BB
ENCODING 9147
SWIDTH 1000 0
DWIDTH 40 0
BBX 53 40 -6 -8
BITMAP
00000000000000
00000000000000
00000000000000
00000000000000
00000000000000
00000000000000
00000000000000
00000000000000
003fffffffffe0
007fffffffffc0
007fffffffffc0
007fffffffffc0
00000000000000
00000000000000
00000000000000
00000000000000
00000000000000
00000000000000
00000000000000
00000000000000
00000000000000
00000000000000
00000000000000
00000000000000
00000000000000
00000000000000
00000000000000
00000000000000
00000000000000
00000000000000
00000000000000
00000000000000
00000000000000
00000000000000
00000000000000
00000000000000
00000000000000
00000000000000
00000000000000
00000000000000
ENDCHAR
STARTCHAR U+23BA
ENCODING 9146
SWIDTH 1000 0
DWIDTH 40 0
BBX 53 40 -6 -8
BITMAP
000ffffffffff8
000ffffffffff8
000ffffffffff8
001ffffffffff0
00000000000000
00000000000000
00000000000000
00000000000000
00000000000000
00000000000000
00000000000000
00000000000000
00000000000000
00000000000000
00000000000000
00000000000000
00000000000000
00000000000000
00000000000000
00000000000000
00000000000000
00000000000000
00000000000000
00000000000000
00000000000000
00000000000000
00000000000000
00000000000000
00000000000000
00000000000000
00000000000000
00000000000000
00000000000000
00000000000000
00000000000000
00000000000000
00000000000000
00000000000000
00000000000000
00000000000000
ENDCHAR
STARTCHAR U+253C
ENCODING 9532
SWIDTH 1000 0
DWIDTH 40 0
BBX 53 40 -6 -8
BITMAP
000000fe000000
000000fe000000
000000fe000000
000001fc000000
000001fc000000
000001fc000000
000003f8000000
000003f8000000
000003f8000000
000007f0000000
000007f0000000
000007f0000000
00000fe0000000
00000fe0000000
00000fe0000000
00001fc0000000
01ffffffffff00
01ffffffffff00
03fffffffffe00
03fffffffffe00
00003f80000000
00007f00000000
00007f00000000
00007f00000000
0000fe00000000
0000fe00000000
0000fe00000000
0001fc00000000
0001fc00000000
0001fc00000000
0003f800000000
0003f800000000
0003f800000000
0007f000000000
0007f000000000
0007f000000000
000fe000000000
000fe000000000
000fe000000000
001fc000000000
ENDCHAR
STARTCHAR U+2514
ENCODING 9492
SWIDTH 1000 0
DWIDTH 40 0
BBX 53 40 -6 -8
BITMAP
000000fe000000
000000fe000000
000000fe000000
000001fc000000
000001fc000000
000001fc000000
000003f8000000
000003f8000000
000003f8000000
000007f0000000
000007f0000000
000007f0000000
00000fe0000000
00000fe0000000
00000fe0000000
00001fc0000000
00001fffffff00
00001fffffff00
00003ffffffe00
00003ffffffe00
00000000000000
00000000000000
00000000000000
00000000000000
00000000000000
00000000000000
00000000000000
00000000000000
00000000000000
00000000000000
00000000000000
00000000000000
00000000000000
00000000000000
00000000000000
00000000000000
00000000000000
00000000000000
00000000000000
00000000000000
ENDCHAR
STARTCHAR U+250C
ENCODING 9484
SWIDTH 1000 0
DWIDTH 40 0
BBX 53 40 -6 -8
BITMAP
00000000000000
00000000000000
00000000000000
00000000000000
00000000000000
00000000000000
00000000000000
00000000000000
00000000000000
00000000000000
00000000000000
00000000000000
00000000000000
00000000000000
00000000000000
00000000000000
00001fffffff00
00001fffffff00
00003ffffffe00
00003ffffffe00
00003f80000000
00007f00000000
00007f00000000
00007f00000000
0000fe00000000
0000fe00000000
0000fe00000000
0001fc00000000
0001fc00000000
0001fc00000000
0003f800000000
0003f800000000
0003f800000000
0007f000000000
0007f000000000
0007f000000000
000fe000000000
000fe000000000
000fe000000000
001fc000000000
ENDCHAR
STARTCHAR U+2510
ENCODING 9488
SWIDTH 1000 0
DWIDTH 40 0
BBX 53 40 -6 -8
BITMAP
00000000000000
00000000000000
00000000000000
00000000000000
00000000000000
00000000000000
00000000000000
00000000000000
00000000000000
00000000000000
00000000000000
00000000000000
00000000000000
00000000000000
00000000000000
00000000000000
01ffffc0000000
01ffffc0000000
03ffff80000000
03ffff80000000
00003f80000000
00007f00000000
00007f00000000
00007f00000000
0000fe00000000
0000fe00000000
0000fe00000000
0001fc00000000
0001fc00000000
0001fc00000000
0003f800000000
0003f800000000
0003f800000000
0007f000000000
0007f000000000
0007f000000000
000fe000000000
000fe000000000
000fe000000000
001fc000000000
ENDCHAR
STARTCHAR U+2518
ENCODING 9496
SWIDTH 1000 0
DWIDTH 40 0
BBX 53 40 -6 -8
BITMAP
000000fe000000
000000fe000000
000000fe000000
000001fc000000
000001fc000000
000001fc000000
000003f8000000
000003f8000000
000003f8000000
000007f0000000
000007f0000000
000007f0000000
00000fe0000000
00000fe0000000
00000fe0000000
00001fc0000000
01ffffc0000000
01ffffc0000000
03ffff80000000
03ffff80000000
00000000000000
00000000000000
00000000000000
00000000000000
00000000000000
00000000000000
00000000000000
00000000000000
00000000000000
00000000000000
00000000000000
00000000000000
00000000000000
00000000000000
00000000000000
00000000000000
00000000000000
00000000000000
00000000000000
00000000000000
ENDCHAR
STARTCHAR U+240B
ENCODING 9227
SWIDTH 1000 0
DWIDTH 40 0
BBX 53 40 -6 -8
BITMAP
00000000000000
00000000000000
00000000000000
00000000000000
001fc01fc00000
001fc01fc00000
003f803f800000
003f803f800000
003f803f800000
007f007f000000
007f007f000000
007f007f000000
000fefe0000000
000fefe0000000
000fefe0000000
001fdfc0000000
001fdfc0000000
001fdfc0000000
003fbf80000000
003fbf80000000
0003fffff80000
0007fffff00000
0007fffff00000
0007fffff00000
00000fe0000000
00000fe0000000
00000fe0000000
00001fc0000000
00001fc0000000
00001fc0000000
00003f80000000
00003f80000000
00003f80000000
00007f00000000
00007f00000000
00007f00000000
0000fe00000000
0000fe00000000
0000fe00000000
0001fc00000000
ENDCHAR
STARTCHAR U+2424
ENCODING 9252
SWIDTH 1000 0
DWIDTH 40 0
BBX 53 40 -6 -8
BITMAP
00000000000000
00000000000000
00000000000000
00000000000000
001fc01fc00000
001fc01fc00000
003f803f800000
003f803f800000
003ff83f800000
007ff07f000000
007ff07f000000
007ff07f000000
00fefefe000000
00fefefe000000
00fefefe000000
01fdfdfc000000
01fc1ffc000000
01fc1ffc000000
03f83ff8000000
03f83ff8000000
03f83ff8000000
07f07ff0000000
07f07ff0000000
07f07ff0000000
0000fe00000000
0000fe00000000
0000fe00000000
0001fc00000000
0001fc00000000
0001fc00000000
0003f800000000
0003f800000000
0003f800000000
0007f000000000
0007f000000000
0007f000000000
000ffffe000000
000ffffe000000
000ffffe000000
001ffffc000000
ENDCHAR
STARTCHAR U+00B1
ENCODING 177
SWIDTH 1000 0
DWIDTH 40 0
BBX 53 40 -6 -8
BITMAP
00000000000000
00000000000000
00000000000000
00000000000000
00000000000000
00000000000000
00000000000000
00000000000000
000003f8000000
000007f0000000
000007f0000000
000007f0000000
00000fe0000000
00000fe0000000
00000fe0000000
00001fc0000000
01fffffffc0000
01fffffffc0000
03fffffff80000
03fffffff80000
00003f80000000
00007f00000000
00007f00000000
00007f00000000
0000fe00000000
0000fe00000000
0000fe00000000
0001fc00000000
1fffffffc00000
1fffffffc00000
3fffffff800000
3fffffff800000
00000000000000
00000000000000
00000000000000
00000000000000
00000000000000
00000000000000
00000000000000
00000000000000
ENDCHAR
STARTCHAR U+00B0
ENCODING 176
SWIDTH 1000 0
DWIDTH 40 0
BBX 53 40 -6 -8
BITMAP
00000000000000
00000000000000
00000000000000
00000000000000
00001fffc00000
00001fffc00000
00003fff800000
00003fff800000
0003f803f80000
0007f007f00000
0007f007f00000
0007f007f00000
0000fffe000000
0000fffe000000
0000fffe000000
0001fffc000000
00000000000000
00000000000000
00000000000000
00000000000000
00000000000000
00000000000000
00000000000000
00000000000000
00000000000000
00000000000000
00000000000000
00000000000000
00000000000000
00000000000000
00000000000000
00000000000000
00000000000000
00000000000000
00000000000000
00000000000000
00000000000000
00000000000000
00000000000000
00000000000000
ENDCHAR
STARTCHAR U+240A
ENCODING 9226
SWIDTH 1000 0
DWIDTH 40 0
BBX 53 40 -6 -8
BITMAP
00000000000000
00000000000000
00000000000000
00000000000000
001fc000000000
001fc000000000
003f8000000000
003f8000000000
003f8000000000
007f0000000000
007f0000000000
007f0000000000
00fe0000000000
00fe0000000000
00fe0000000000
01fc0000000000
01fc0000000000
01fc0000000000
03f80000000000
03f80000000000
03fffffff80000
07fffffff00000
07fffffff00000
07fffffff00000
0000fe00000000
0000fe00000000
0000fe00000000
0001fc00000000
0001fffc000000
0001fffc000000
0003fff8000000
0003fff8000000
0003f800000000
0007f000000000
0007f000000000
0007f000000000
000fe000000000
000fe000000000
000fe000000000
001fc000000000
ENDCHAR
STARTCHAR U+240D
ENCODING 9229
SWIDTH 1000 0
DWIDTH 40 0
BBX 53 40 -6 -8
BITMAP
00000000000000
00000000000000
00000000000000
00000000000000
0001fffc000000
0001fffc000000
0003fff8000000
0003fff8000000
003f8000000000
007f0000000000
007f0000000000
007f0000000000
00fe0000000000
00fe0000000000
00fe0000000000
01fc0000000000
01fc0000000000
01fc0000000000
03f80000000000
03f80000000000
003fffff800000
007fffff000000
007fffff000000
007fffff000000
0000fe0fe00000
0000fe0fe00000
0000fe0fe00000
0001fc1fc00000
0001fffc000000
0001fffc000000
0003fff8000000
0003fff8000000
0003f83f800000
0007f07f000000
0007f07f000000
0007f07f000000
000fe0fe000000
000fe0fe000000
000fe0fe000000
001fc1fc000000
ENDCHAR
STARTCHAR U+240C
ENCODING 9228
SWIDTH 1000 0
DWIDTH 40 0
BBX 53 40 -6 -8
BITMAP
00000000000000
00000000000000
00000000000000
00000000000000
001ffffc000000
001ffffc000000
003ffff8000000
003ffff8000000
003f8000000000
007f0000000000
007f0000000000
007f0000000000
00fffe00000000
00fffe00000000
00fffe00000000
01fffc00000000
01fc0000000000
01fc0000000000
03f80000000000
03f80000000000
03f83ffff80000
07f07ffff00000
07f07ffff00000
07f07ffff00000
0000fe00000000
0000fe00000000
0000fe00000000
0001fc00000000
0001fffc000000
0001fffc000000
0003fff8000000
0003fff8000000
0003f800000000
0007f000000000
0007f000000000
0007f000000000
000fe000000000
000fe000000000
000fe000000000
001fc000000000
ENDCHAR
STARTCHAR U+2409
ENCODING 9225
SWIDTH 1000 0
DWIDTH 40 0
BBX 53 40 -6 -8
BITMAP
00000000000000
00000000000000
00000000000000
00000000000000
001fc1fc000000
001fc1fc000000
003f83f8000000
003f83f8000000
003f83f8000000
007f07f0000000
007f07f0000000
007f07f0000000
00ffffe0000000
00ffffe0000000
00ffffe0000000
01ffffc0000000
01fc1fc0000000
01fc1fc0000000
03f83f80000000
03f83f80000000
03fbfffff80000
07f7fffff00000
07f7fffff00000
07f7fffff00000
00000fe0000000
00000fe0000000
00000fe0000000
00001fc0000000
00001fc0000000
00001fc0000000
00003f80000000
00003f80000000
00003f80000000
00007f00000000
00007f00000000
00007f00000000
0000fe00000000
0000fe00000000
0000fe00000000
0001fc00000000
ENDCHAR
STARTCHAR U+2592
ENCODING 9618
SWIDTH 1000 0
DWIDTH 40 0
BBX 53 40 -6 -8
BITMAP
00000000000000
00000000000000
00000000000000
00000000000000
001fc1fc1fc000
001fc1fc1fc000
003f83f83f8000
003f83f83f8000
0003f803f80000
0007f007f00000
0007f007f00000
0007f007f00000
00fe0fe0fe0000
00fe0fe0fe0000
00fe0fe0fe0000
01fc1fc1fc0000
001fc01fc00000
001fc01fc00000
003f803f800000
003f803f800000
03f83f83f80000
07f07f07f00000
07f07f07f00000
07f07f07f00000
00fe00fe000000
00fe00fe000000
00fe00fe000000
01fc01fc000000
1fc1fc1fc00000
1fc1fc1fc00000
3f83f83f800000
3f83f83f800000
00000000000000
00000000000000
00000000000000
00000000000000
00000000000000
00000000000000
00000000000000
00000000000000
ENDCHAR
STARTCHAR U+25C6
ENCODING 9670
SWIDTH 1000 0
DWIDTH 40 0
BBX 53 40 -6 -8
BITMAP
00000000000000
00000000000000
00000000000000
00000000000000
000001fc000000
000001fc000000
000003f8000000
000003f8000000
00003fff800000
00007fff000000
00007fff000000
00007fff000000
000fffffe00000
000fffffe00000
000fffffe00000
001fffffc00000
01fffffffc0000
01fffffffc0000
03fffffff80000
03fffffff80000
003fffff800000
007fffff000000
007fffff000000
007fffff000000
000fffe0000000
000fffe0000000
000fffe0000000
001fffc0000000
0001fc00000000
0001fc00000000
0003f800000000
0003f800000000
00000000000000
00000000000000
00000000000000
00000000000000
00000000000000
00000000000000
00000000000000
00000000000000
ENDCHAR
STARTCHAR U+0020
ENCODING 32
SWIDTH 1000 0
DWIDTH 40 0
BBX 53 40 -6 -8
BITMAP
00000000000000
00000000000000
00000000000000
00000000000000
00000000000000
00000000000000
00000000000000
00000000000000
00000000000000
00000000000000
00000000000000
00000000000000
00000000000000
00000000000000
00000000000000
00000000000000
00000000000000
00000000000000
00000000000000
00000000000000
00000000000000
00000000000000
00000000000000
00000000000000
00000000000000
00000000000000
00000000000000
00000000000000
00000000000000
00000000000000
00000000000000
00000000000000
00000000000000
00000000000000
00000000000000
00000000000000
00000000000000
00000000000000
00000000000000
00000000000000
ENDCHAR
ENDFONT
